<?xml version="1.0" encoding="utf-8"?>
<!-- Generator: Adobe Illustrator 22.1.0, SVG Export Plug-In . SVG Version: 6.00 Build 0)  -->
<svg version="1.1" id="Layer_1" xmlns="http://www.w3.org/2000/svg" xmlns:xlink="http://www.w3.org/1999/xlink" x="0px" y="0px"
	 viewBox="0 0 100 100" style="enable-background:new 0 0 100 100;" xml:space="preserve">
<style type="text/css">
	.st0{fill:#684BC7;}
	.st1{fill:#FFFFFF;}
</style>
<g>
	<circle class="st0" cx="50" cy="50" r="50"/>
	<g>
		<circle class="st1" cx="50" cy="50" r="6.2"/>
		<path class="st1" d="M77.1,37.5H66.7v-6.2c0-1.2-0.9-2.1-2.1-2.1H35.4c-1.2,0-2.1,0.9-2.1,2.1v6.2H22.9c-1.2,0-2.1,0.9-2.1,2.1
			v29.1c0,1.2,0.9,2.1,2.1,2.1H77c1.2,0,2.1-0.9,2.1-2.1V39.6C79.2,38.4,78.2,37.5,77.1,37.5z M50,62.5c-6.9,0-12.5-5.6-12.5-12.5
			S43.1,37.5,50,37.5S62.5,43.1,62.5,50S56.9,62.5,50,62.5z"/>
	</g>
</g>
</svg>
