<?xml version="1.0" encoding="utf-8"?>
<!-- Generator: Adobe Illustrator 22.0.1, SVG Export Plug-In . SVG Version: 6.00 Build 0)  -->
<svg version="1.1" id="Layer_1" xmlns="http://www.w3.org/2000/svg" xmlns:xlink="http://www.w3.org/1999/xlink" x="0px" y="0px"
	 viewBox="0 0 20 20" style="enable-background:new 0 0 20 20;" xml:space="preserve">
<style type="text/css">
	.st0{fill:#333333;}
</style>
<path class="st0" d="M12.1,3.8c0.4-0.6,0.5-1.3,0.3-2c-0.2-0.8-0.9-1.5-1.7-1.7C9-0.3,7.5,0.9,7.5,2.5c0,0.5,0.1,0.9,0.4,1.3
	l-7.7,9.3c-0.3,0.3-0.3,0.8-0.1,1.1c2,3.5,5.6,5.8,9.9,5.8c4.3,0,7.9-2.3,9.9-5.8c0.2-0.4,0.1-0.8-0.1-1.1L12.1,3.8z M10,1.5
	c0.5,0,1,0.4,1,1c0,0.5-0.4,1-1,1c-0.5,0-1-0.4-1-1C9,1.9,9.5,1.5,10,1.5z M1.1,13.6l7.5-9.1C9,4.8,9.5,4.9,10,4.9
	c0.5,0,1-0.2,1.4-0.4l7.5,9.1H1.1z"/>
</svg>
