<?xml version="1.0" encoding="utf-8"?>
<!-- Generator: Adobe Illustrator 22.1.0, SVG Export Plug-In . SVG Version: 6.00 Build 0)  -->
<svg version="1.1" id="Layer_1" xmlns="http://www.w3.org/2000/svg" xmlns:xlink="http://www.w3.org/1999/xlink" x="0px" y="0px"
	 viewBox="0 0 100 100" style="enable-background:new 0 0 100 100;" xml:space="preserve">
<style type="text/css">
	.st0{fill:#DBDBDB;}
</style>
<g>
	<path class="st0" d="M26.5,91.9l-24.1,8C1,100.4-0.4,99,0.1,97.6l8.1-24.2c0.4-1.3,2-1.7,2.9-0.7C15,76.6,23.4,85,27.3,88.9
		C28.2,89.9,27.8,91.4,26.5,91.9z"/>
	<path class="st0" d="M33.1,84.6L15.4,66.9c-0.7-0.7-0.7-1.8,0-2.5L77.7,2.1c2.8-2.8,7.3-2.8,10.1,0l10.1,10.1
		c2.8,2.8,2.8,7.3,0,10.1L35.6,84.6C34.9,85.3,33.8,85.3,33.1,84.6z"/>
</g>
</svg>
