<?xml version="1.0" encoding="utf-8"?>
<!-- Generator: Adobe Illustrator 24.2.0, SVG Export Plug-In . SVG Version: 6.00 Build 0)  -->
<svg version="1.1" id="Layer_1" xmlns="http://www.w3.org/2000/svg" xmlns:xlink="http://www.w3.org/1999/xlink" x="0px" y="0px"
	 viewBox="0 0 26 26" style="enable-background:new 0 0 26 26;" xml:space="preserve">
<style type="text/css">
	.st0{fill:none;}
	.st1{fill:#333333;}
</style>
<rect y="0" class="st0" width="26" height="26"/>
<path class="st1" d="M21,4H5C4.4,4,4,4.4,4,5v16c0,0.6,0.4,1,1,1h16c0.6,0,1-0.4,1-1V5C22,4.4,21.6,4,21,4z M18.5,17.4
	c-1-1.3-2.5-2.2-4.3-2.5c1.1-0.8,1.8-2.3,1.8-3.6c0-1.7-1.3-3-3-3c-1.7,0-3,1.3-3,3c0,1.2,0.7,2.8,1.8,3.6c-1.7,0.3-3.2,1.2-4.3,2.5
	C6.6,16.2,6,14.7,6,13c0-3.9,3.1-7,7-7c3.9,0,7,3.1,7,7C20,14.7,19.4,16.2,18.5,17.4z"/>
</svg>
