<?xml version="1.0" encoding="utf-8"?>
<!-- Generator: Adobe Illustrator 24.2.0, SVG Export Plug-In . SVG Version: 6.00 Build 0)  -->
<svg version="1.1" id="Layer_1" xmlns="http://www.w3.org/2000/svg" xmlns:xlink="http://www.w3.org/1999/xlink" x="0px" y="0px"
	 viewBox="0 0 26 26" style="enable-background:new 0 0 26 26;" xml:space="preserve">
<style type="text/css">
	.st0{fill:none;}
	.st1{fill:#333333;}
</style>
<rect y="0" class="st0" width="26" height="26"/>
<path class="st1" d="M13,4c-5,0-9,4-9,9s4,9,9,9c5,0,9-4,9-9S18,4,13,4z M18.7,9H14V6.1C16,6.4,17.7,7.4,18.7,9z M20,13
	c0,0.7-0.1,1.4-0.3,2H14v-4h5.7C19.9,11.6,20,12.3,20,13z M6,13c0-0.7,0.1-1.4,0.3-2H12v4H6.3C6.1,14.4,6,13.7,6,13z M12,6.1V9H7.3
	C8.3,7.4,10,6.4,12,6.1z M7.3,17H12v2.9C10,19.6,8.3,18.6,7.3,17z M14,19.9V17h4.7C17.7,18.6,16,19.6,14,19.9z"/>
</svg>
