<?xml version="1.0" encoding="utf-8"?>
<!-- Generator: Adobe Illustrator 24.2.0, SVG Export Plug-In . SVG Version: 6.00 Build 0)  -->
<svg version="1.1" id="Layer_1" xmlns="http://www.w3.org/2000/svg" xmlns:xlink="http://www.w3.org/1999/xlink" x="0px" y="0px"
	 viewBox="0 0 26 26" style="enable-background:new 0 0 26 26;" xml:space="preserve">
<style type="text/css">
	.st0{fill:none;}
	.st1{fill:#333333;}
</style>
<rect y="0" class="st0" width="26" height="26"/>
<path class="st1" d="M21,4H5C4.4,4,4,4.4,4,5v16c0,0.6,0.4,1,1,1h16c0.6,0,1-0.4,1-1V5C22,4.4,21.6,4,21,4z M9,17.8
	c-0.6,0-1-0.4-1-1c0-0.6,0.4-1,1-1s1,0.4,1,1C10,17.3,9.6,17.8,9,17.8z M15,14.8h-4v-4h4V14.8z M17,9.8c-0.6,0-1-0.4-1-1s0.4-1,1-1
	c0.6,0,1,0.4,1,1S17.6,9.8,17,9.8z"/>
</svg>
