<?xml version="1.0" encoding="utf-8"?>
<!-- Generator: Adobe Illustrator 24.2.0, SVG Export Plug-In . SVG Version: 6.00 Build 0)  -->
<svg version="1.1" id="Layer_1" xmlns="http://www.w3.org/2000/svg" xmlns:xlink="http://www.w3.org/1999/xlink" x="0px" y="0px"
	 viewBox="0 0 26 26" style="enable-background:new 0 0 26 26;" xml:space="preserve">
<style type="text/css">
	.st0{fill:none;}
	.st1{fill:#333333;}
</style>
<rect y="0" class="st0" width="26" height="26"/>
<path class="st1" d="M21.8,14.5l-5.8-6.9C16,7.4,16,7.2,16,7c0-1.7-1.3-3-3-3c-1.7,0-3,1.3-3,3c0,0.2,0,0.4,0.1,0.6l-5.8,6.9
	c-0.3,0.3-0.3,0.7-0.1,1.1C4.9,17.3,7.9,22,13,22s8.1-4.7,8.9-6.4C22.1,15.2,22,14.8,21.8,14.5z M13,6c0.6,0,1,0.4,1,1
	c0,0.6-0.4,1-1,1s-1-0.4-1-1C12,6.4,12.4,6,13,6z M6.4,15l4.7-5.6C11.7,9.8,12.3,10,13,10s1.3-0.2,1.8-0.6l4.7,5.6H6.4z"/>
</svg>
