<?xml version="1.0" encoding="utf-8"?>
<!-- Generator: Adobe Illustrator 24.2.0, SVG Export Plug-In . SVG Version: 6.00 Build 0)  -->
<svg version="1.1" id="Layer_1" xmlns="http://www.w3.org/2000/svg" xmlns:xlink="http://www.w3.org/1999/xlink" x="0px" y="0px"
	 viewBox="0 0 26 26" style="enable-background:new 0 0 26 26;" xml:space="preserve">
<style type="text/css">
	.st0{fill:none;}
	.st1{fill:#333333;}
</style>
<rect y="0" class="st0" width="26" height="26"/>
<g>
	<polygon class="st1" points="15.5,17.4 17.3,17.4 16.4,14.8 	"/>
	<path class="st1" d="M21,4H5C4.4,4,4,4.4,4,5v16c0,0.6,0.4,1,1,1h16c0.6,0,1-0.4,1-1V5C22,4.4,21.6,4,21,4z M8,8H6V6h2V8z M18.3,20
		l-0.5-1.4H15L14.5,20h-1.6l2.8-7h1.4l2.8,7H18.3z"/>
</g>
</svg>
