<?xml version="1.0" encoding="utf-8"?>
<!-- Generator: Adobe Illustrator 22.1.0, SVG Export Plug-In . SVG Version: 6.00 Build 0)  -->
<svg version="1.1" id="Layer_1" xmlns="http://www.w3.org/2000/svg" xmlns:xlink="http://www.w3.org/1999/xlink" x="0px" y="0px"
	 viewBox="0 0 100 100" style="enable-background:new 0 0 100 100;" xml:space="preserve">
<style type="text/css">
	.st0{fill:#4B23A0;}
</style>
<path class="st0" d="M59.8,0.9C24.6-5.7-5.7,24.6,0.9,59.8c3.7,19.7,19.6,35.6,39.3,39.3c35.2,6.7,65.5-23.6,58.9-58.9
	C95.3,20.5,79.5,4.7,59.8,0.9z M56.3,79c0,1.2-0.7,2.2-1.6,2.2h-9.4c-0.9,0-1.6-1-1.6-2.2V39.6c0-1.2,0.7-2.2,1.6-2.2h9.4
	c0.9,0,1.6,1,1.6,2.2V79z M50.1,31.2c-3.5,0-6.2-2.8-6.2-6.2s2.8-6.2,6.2-6.2c3.5,0,6.2,2.8,6.2,6.2S53.5,31.2,50.1,31.2z"/>
</svg>
