<?xml version="1.0" encoding="utf-8"?>
<!-- Generator: Adobe Illustrator 22.1.0, SVG Export Plug-In . SVG Version: 6.00 Build 0)  -->
<svg version="1.1" id="Layer_1" xmlns="http://www.w3.org/2000/svg" xmlns:xlink="http://www.w3.org/1999/xlink" x="0px" y="0px"
	 viewBox="0 0 100 100" style="enable-background:new 0 0 100 100;" xml:space="preserve">
<style type="text/css">
	.st0{fill:#7D7E90;}
</style>
<path class="st0" d="M50,0C22.4,0,0,22.4,0,50c0,3.9,0.5,7.7,1.3,11.3L23,39.6c0.6-0.6,1.6-0.6,2.2,0l16.6,16.6l15.1-15.1l-8.8-8.8
	L79,27.8l-4.4,30.9l-8.8-8.8L42.9,72.8c-0.6,0.6-1.6,0.6-2.2,0L24.1,56.2L6.2,74.1C14.7,89.5,31.1,100,50,100c27.6,0,50-22.4,50-50
	S77.6,0,50,0z"/>
</svg>
