<?xml version="1.0" encoding="utf-8"?>
<!-- Generator: Adobe Illustrator 22.1.0, SVG Export Plug-In . SVG Version: 6.00 Build 0)  -->
<svg version="1.1" id="Layer_1" xmlns="http://www.w3.org/2000/svg" xmlns:xlink="http://www.w3.org/1999/xlink" x="0px" y="0px"
	 viewBox="0 0 100 100" style="enable-background:new 0 0 100 100;" xml:space="preserve">
<style type="text/css">
	.st0{fill:#7D7E90;}
</style>
<g>
	<path class="st0" d="M59.8,75.4c6.7-1.5,11-8.1,9.6-14.9c-1.5-6.7-8.1-11-14.9-9.6c-6.7,1.5-11,8.1-9.6,14.9
		C46.4,72.6,53.1,76.9,59.8,75.4z"/>
	<path class="st0" d="M94.4,1.5c-0.1-1.3-1.7-2-2.7-1l-17,15c-0.8,0.7-1.8,0.9-2.8,0.7l-20.8-5.2c-1.1-0.3-2.2,0-3,0.8l-22.9,23
		c-0.5,0.5-1.2,0.6-1.7,0.3L7.7,27.9c-1-0.4-2.1,0.2-2.2,1.3L0,93.2c-0.3,3.6,2.6,6.8,6.2,6.8H26l12.8-19.9
		c-4.5-4.8-7.3-11.3-6.6-19.2c0.8-9.2,6.9-17.5,15.5-20.9c15.9-6.3,32.9,4.4,34.3,21.3c0.9,10.4-5.3,20.6-14.9,24.8
		c-6.1,2.7-12.3,2.6-17.8,0.8L40.9,100h52.8c3.6,0,6.5-3,6.2-6.6L94.4,1.5z"/>
</g>
</svg>
