<?xml version="1.0" encoding="utf-8"?>
<!-- Generator: Adobe Illustrator 22.1.0, SVG Export Plug-In . SVG Version: 6.00 Build 0)  -->
<svg version="1.1" id="Layer_1" xmlns="http://www.w3.org/2000/svg" xmlns:xlink="http://www.w3.org/1999/xlink" x="0px" y="0px"
	 viewBox="0 0 100 100" style="enable-background:new 0 0 100 100;" xml:space="preserve">
<style type="text/css">
	.st0{fill:#4B23A0;}
</style>
<g>
	<path class="st0" d="M46.4,46.4H28.9c-0.2,1.2-0.4,2.3-0.4,3.6s0.2,2.4,0.4,3.6h17.5V46.4z"/>
	<path class="st0" d="M92.9,0H7.1C3.2,0,0,3.2,0,7.1v85.7c0,3.9,3.2,7.1,7.1,7.1h85.7c3.9,0,7.1-3.2,7.1-7.1V7.1
		C100,3.2,96.8,0,92.9,0z M50,85.7c-19.7,0-35.7-16-35.7-35.7s16-35.7,35.7-35.7s35.7,16,35.7,35.7S69.7,85.7,50,85.7z"/>
	<path class="st0" d="M53.6,39.3h14.9C65.3,33.9,60,30,53.6,28.9V39.3z"/>
	<path class="st0" d="M46.4,39.3V28.9c-6.4,1.1-11.7,5-14.9,10.4H46.4z"/>
	<path class="st0" d="M53.6,53.6h17.5c0.2-1.2,0.4-2.3,0.4-3.6s-0.2-2.4-0.4-3.6H53.6V53.6z"/>
	<path class="st0" d="M46.4,60.7H31.5c3.1,5.4,8.5,9.3,14.9,10.4V60.7z"/>
	<path class="st0" d="M53.6,60.7v10.4c6.4-1.1,11.7-5,14.9-10.4H53.6z"/>
</g>
</svg>
