<?xml version="1.0" encoding="utf-8"?>
<!-- Generator: Adobe Illustrator 22.1.0, SVG Export Plug-In . SVG Version: 6.00 Build 0)  -->
<svg version="1.1" id="Layer_1" xmlns="http://www.w3.org/2000/svg" xmlns:xlink="http://www.w3.org/1999/xlink" x="0px" y="0px"
	 viewBox="0 0 100 100" style="enable-background:new 0 0 100 100;" xml:space="preserve">
<style type="text/css">
	.st0{fill:#DBDBDB;}
</style>
<path class="st0" d="M92.9,0H7.1C3.2,0,0,3.2,0,7.1v85.7c0,3.9,3.2,7.1,7.1,7.1h85.7c3.9,0,7.1-3.2,7.1-7.1V7.1
	C100,3.2,96.8,0,92.9,0z M78.6,75H48.5c-2.8,6.3-9,10.7-16.3,10.7c-9.9,0-17.9-8-17.9-17.9S22.3,50,32.1,50
	c7.3,0,13.6,4.4,16.3,10.7h18.9l-5-10.8c-0.2,0-0.3,0.1-0.5,0.1C52,50,44,42,44,32.1s8-17.9,17.9-17.9s17.9,8,17.9,17.9
	c0,4.5-1.7,8.5-4.4,11.7L85,64.9C87.2,69.6,83.8,75,78.6,75z"/>
</svg>
