<svg xmlns="http://www.w3.org/2000/svg" viewBox="0 0 16 16">
  <path id="Path_524" data-name="Path 524" d="M563.543,199.8l-2.829-2.829a1,1,0,0,0-1.414,0l-2.828,2.829-.707-.708a1,1,0,0,0-1.415,0l-3.535,3.536,2.828,2.828-5.807,5.808.718.719.7.695,5.808-5.807,2.828,2.828,3.536-3.536a1,1,0,0,0,0-1.414l-.708-.707,2.829-2.828A1,1,0,0,0,563.543,199.8Zm-5.657,4.242,1.414,1.414-1.414,1.415-4.243-4.243,1.415-1.414,1.414,1.414,3.535-3.536,1.415,1.415Z" transform="translate(-547.836 -196.68)" fill="#535353"/>
</svg>
