<?xml version="1.0" encoding="utf-8"?>
<!-- Generator: Adobe Illustrator 22.0.1, SVG Export Plug-In . SVG Version: 6.00 Build 0)  -->
<svg version="1.1" id="Layer_1" xmlns="http://www.w3.org/2000/svg" xmlns:xlink="http://www.w3.org/1999/xlink" x="0px" y="0px"
	 viewBox="0 0 20 20" style="enable-background:new 0 0 20 20;" xml:space="preserve">
<style type="text/css">
	.st0{fill:#4B23A0;}
</style>
<path class="st0" d="M15.5,12.4c-0.9-0.2-1.8-0.4-2.7-0.6c-0.3-0.1-0.4-0.5-0.1-0.8c1-0.7,1.7-1.8,2.2-3c0.1-0.1,0.2-0.2,0.3-0.3
	c0.3-0.1,0.6-0.3,0.7-0.6c0.2-0.7,0.2-1.4-0.4-1.3c0,0-0.1,0-0.1,0c0-0.1,0-0.2,0-0.3C15.5,2.5,13,0,10,0S4.5,2.5,4.5,5.5
	c0,0.1,0,0.2,0,0.3c0,0-0.1,0-0.1,0C3.8,5.8,3.8,6.5,4,7.1c0.1,0.3,0.4,0.5,0.7,0.6C4.9,7.8,5,7.9,5,8c0.5,1.2,1.2,2.3,2.2,3
	c0.3,0.2,0.2,0.7-0.1,0.8c-0.8,0.2-1.7,0.5-2.7,0.6C1.2,13,0,14.7,0,16.6V19c0,0.6,0.4,1,1,1h9h9c0.6,0,1-0.4,1-1v-2.4
	C20,14.7,18.8,13,15.5,12.4z"/>
</svg>
