<?xml version="1.0" encoding="utf-8"?>
<!-- Generator: Adobe Illustrator 24.2.0, SVG Export Plug-In . SVG Version: 6.00 Build 0)  -->
<svg version="1.1" id="Layer_1" xmlns="http://www.w3.org/2000/svg" xmlns:xlink="http://www.w3.org/1999/xlink" x="0px" y="0px"
	 viewBox="0 0 18 18" style="enable-background:new 0 0 18 18;" xml:space="preserve">
<style type="text/css">
	.st0{fill:#333333;}
</style>
<path class="st0" d="M17,0H1C0.4,0,0,0.4,0,1v16c0,0.6,0.4,1,1,1h16c0.6,0,1-0.4,1-1V1C18,0.4,17.6,0,17,0z M14.5,13.4
	c-1-1.3-2.5-2.2-4.3-2.5c1.1-0.8,1.8-2.3,1.8-3.6c0-1.7-1.3-3-3-3c-1.7,0-3,1.3-3,3c0,1.2,0.7,2.8,1.8,3.6c-1.7,0.3-3.2,1.2-4.3,2.5
	C2.6,12.2,2,10.7,2,9c0-3.9,3.1-7,7-7c3.9,0,7,3.1,7,7C16,10.7,15.4,12.2,14.5,13.4z"/>
</svg>
