<?xml version="1.0" encoding="utf-8"?>
<!-- Generator: Adobe Illustrator 24.2.0, SVG Export Plug-In . SVG Version: 6.00 Build 0)  -->
<svg version="1.1" id="Layer_1" xmlns="http://www.w3.org/2000/svg" xmlns:xlink="http://www.w3.org/1999/xlink" x="0px" y="0px"
	 viewBox="0 0 26 26" style="enable-background:new 0 0 26 26;" xml:space="preserve">
<style type="text/css">
	.st0{fill:none;}
	.st1{fill:#333333;}
</style>
<path class="st0" d="M24,26H2c-1.1,0-2-0.9-2-2V2c0-1.1,0.9-2,2-2h22c1.1,0,2,0.9,2,2v22C26,25.1,25.1,26,24,26z"/>
<g>
	<path class="st1" d="M9,5H6C5.4,5,5,5.4,5,6v3h2V7h2V5z"/>
	<path class="st1" d="M21,9V6c0-0.6-0.4-1-1-1h-3v2h2v2H21z"/>
	<path class="st1" d="M17,21h3c0.6,0,1-0.4,1-1v-3h-2v2h-2V21z"/>
	<path class="st1" d="M5,17v3c0,0.6,0.4,1,1,1h3v-2H7v-2H5z"/>
	<path class="st1" d="M11,11v4h4v-4H11z M17,17H9V9h8V17z"/>
</g>
</svg>
