<?xml version="1.0" encoding="utf-8"?>
<!-- Generator: Adobe Illustrator 24.2.0, SVG Export Plug-In . SVG Version: 6.00 Build 0)  -->
<svg version="1.1" id="Layer_1" xmlns="http://www.w3.org/2000/svg" xmlns:xlink="http://www.w3.org/1999/xlink" x="0px" y="0px"
	 viewBox="0 0 16 16" style="enable-background:new 0 0 16 16;" xml:space="preserve">
<style type="text/css">
	.st0{fill:#4B23A0;}
</style>
<g>
	<path class="st0" d="M4,0H1C0.4,0,0,0.4,0,1v3h2V2h2V0z"/>
	<path class="st0" d="M16,4V1c0-0.6-0.4-1-1-1h-3v2h2v2H16z"/>
	<path class="st0" d="M12,16h3c0.6,0,1-0.4,1-1v-3h-2v2h-2V16z"/>
	<path class="st0" d="M0,12v3c0,0.6,0.4,1,1,1h3v-2H2v-2H0z"/>
	<path class="st0" d="M6,6v4h4V6H6z M12,12H4V4h8V12z"/>
</g>
</svg>
