<?xml version="1.0" encoding="utf-8"?>
<!-- Generator: Adobe Illustrator 24.2.0, SVG Export Plug-In . SVG Version: 6.00 Build 0)  -->
<svg version="1.1" id="Layer_1" xmlns="http://www.w3.org/2000/svg" xmlns:xlink="http://www.w3.org/1999/xlink" x="0px" y="0px"
	 viewBox="0 0 18 18" style="enable-background:new 0 0 18 18;" xml:space="preserve">
<style type="text/css">
	.st0{fill:#333333;}
</style>
<path class="st0" d="M9,0C4,0,0,4,0,9s4,9,9,9c5,0,9-4,9-9S14,0,9,0z M14.7,5H10V2.1C12,2.4,13.7,3.4,14.7,5z M16,9
	c0,0.7-0.1,1.4-0.3,2H10V7h5.7C15.9,7.6,16,8.3,16,9z M2,9c0-0.7,0.1-1.4,0.3-2H8v4H2.3C2.1,10.4,2,9.7,2,9z M8,2.1V5H3.3
	C4.3,3.4,6,2.4,8,2.1z M3.3,13H8v2.9C6,15.6,4.3,14.6,3.3,13z M10,15.9V13h4.7C13.7,14.6,12,15.6,10,15.9z"/>
</svg>
