<?xml version="1.0" encoding="utf-8"?>
<!-- Generator: Adobe Illustrator 22.0.1, SVG Export Plug-In . SVG Version: 6.00 Build 0)  -->
<svg version="1.1" id="Layer_1" xmlns="http://www.w3.org/2000/svg" xmlns:xlink="http://www.w3.org/1999/xlink" x="0px" y="0px"
	 viewBox="0 0 20 20" style="enable-background:new 0 0 20 20;" xml:space="preserve">
<style type="text/css">
	.st0{fill:#4B23A0;}
</style>
<g>
	<path class="st0" d="M5,12.1c-0.3,0-0.5,0.2-0.5,0.5c0,0.3,0.2,0.5,0.5,0.5h0c0.3,0,0.5-0.2,0.5-0.5C5.5,12.3,5.3,12.1,5,12.1z"/>
	<path class="st0" d="M15,9.5L15,9.5c-0.3,0-0.5,0.2-0.5,0.5c0,0.3,0.2,0.5,0.5,0.5s0.5-0.2,0.5-0.5C15.5,9.7,15.3,9.5,15,9.5z"/>
	<path class="st0" d="M10,6.9L10,6.9c-0.3,0-0.5,0.2-0.5,0.5c0,0.3,0.2,0.5,0.5,0.5s0.5-0.2,0.5-0.5C10.5,7.1,10.3,6.9,10,6.9z"/>
	<path class="st0" d="M19,0H1C0.4,0,0,0.4,0,1v18c0,0.6,0.4,1,1,1h18c0.6,0,1-0.4,1-1V1C20,0.4,19.6,0,19,0z M5.5,14v2h-1v-2
		c-0.6-0.2-1-0.8-1-1.4c0-0.7,0.4-1.2,1-1.4V4h1v7.2c0.6,0.2,1,0.8,1,1.4S6.1,13.8,5.5,14z M10.5,8.8V16h-1V8.8
		c-0.6-0.2-1-0.8-1-1.4s0.4-1.2,1-1.4V4h1v2c0.6,0.2,1,0.8,1,1.4C11.5,8.1,11.1,8.6,10.5,8.8z M15.5,11.4V16h-1v-4.6
		c-0.6-0.2-1-0.8-1-1.4s0.4-1.2,1-1.4V4h1v4.6c0.6,0.2,1,0.8,1,1.4C16.5,10.7,16.1,11.2,15.5,11.4z"/>
</g>
</svg>
