<?xml version="1.0" encoding="utf-8"?>
<!-- Generator: Adobe Illustrator 22.0.1, SVG Export Plug-In . SVG Version: 6.00 Build 0)  -->
<svg version="1.1" id="Layer_1" xmlns="http://www.w3.org/2000/svg" xmlns:xlink="http://www.w3.org/1999/xlink" x="0px" y="0px"
	 viewBox="0 0 20 20" style="enable-background:new 0 0 20 20;" xml:space="preserve">
<style type="text/css">
	.st0{fill-rule:evenodd;clip-rule:evenodd;fill:#684BC7;}
</style>
<path class="st0" d="M19,0H1C0.4,0,0,0.4,0,1v18c0,0.6,0.4,1,1,1h18c0.6,0,1-0.4,1-1V1C20,0.4,19.6,0,19,0z M7,15l-3-3l0.7-0.7
	l1.8,1.8V5h1v8.1l1.8-1.8L10,12L7,15z M15.3,8.7l-1.8-1.8V15h-1V6.9l-1.8,1.8L10,8l3-3l3,3L15.3,8.7z"/>
</svg>
