<?xml version="1.0" encoding="utf-8"?>
<!-- Generator: Adobe Illustrator 22.0.1, SVG Export Plug-In . SVG Version: 6.00 Build 0)  -->
<svg version="1.1" id="Layer_1" xmlns="http://www.w3.org/2000/svg" xmlns:xlink="http://www.w3.org/1999/xlink" x="0px" y="0px"
	 viewBox="0 0 20 20" style="enable-background:new 0 0 20 20;" xml:space="preserve">
<style type="text/css">
	.st0{fill:#333333;}
</style>
<path class="st0" d="M19,12h-2V3.5h-3V1c0-0.6-0.4-1-1-1H1C0.4,0,0,0.4,0,1v6c0,0.6,0.4,1,1,1h2v8.5h3V19c0,0.6,0.4,1,1,1h12
	c0.6,0,1-0.4,1-1v-6C20,12.4,19.6,12,19,12z M10.6,2.6L13,4l-2.4,1.4V2.6z M9.4,17.4L7,16l2.4-1.4V17.4z M7,12c-0.6,0-1,0.4-1,1v2.5
	H4V8h9c0.6,0,1-0.4,1-1V4.5h2V12H7z"/>
</svg>
