<?xml version="1.0" encoding="utf-8"?>
<!-- Generator: Adobe Illustrator 24.2.0, SVG Export Plug-In . SVG Version: 6.00 Build 0)  -->
<svg version="1.1" id="Layer_1" xmlns="http://www.w3.org/2000/svg" xmlns:xlink="http://www.w3.org/1999/xlink" x="0px" y="0px"
	 viewBox="0 0 18 18" style="enable-background:new 0 0 18 18;" xml:space="preserve">
<style type="text/css">
	.st0{fill:#333333;}
</style>
<path class="st0" d="M17,0H1C0.4,0,0,0.4,0,1v16c0,0.6,0.4,1,1,1h16c0.6,0,1-0.4,1-1V1C18,0.4,17.6,0,17,0z M5,13.8
	c-0.6,0-1-0.4-1-1c0-0.6,0.4-1,1-1s1,0.4,1,1C6,13.3,5.6,13.8,5,13.8z M11,10.8H7v-4h4V10.8z M13,5.8c-0.6,0-1-0.4-1-1s0.4-1,1-1
	c0.6,0,1,0.4,1,1S13.6,5.8,13,5.8z"/>
</svg>
