<?xml version="1.0" encoding="utf-8"?>
<!-- Generator: Adobe Illustrator 22.1.0, SVG Export Plug-In . SVG Version: 6.00 Build 0)  -->
<svg version="1.1" id="Layer_1" xmlns="http://www.w3.org/2000/svg" xmlns:xlink="http://www.w3.org/1999/xlink" x="0px" y="0px"
	 viewBox="0 0 20 20" style="enable-background:new 0 0 20 20;" xml:space="preserve">
<style type="text/css">
	.st0{fill:#4B23A0;}
</style>
<g>
	<path class="st0" d="M17,0H3C2.4,0,2,0.4,2,1v16c0,0.6,0.4,1,1,1h14c0.6,0,1-0.4,1-1V1C18,0.4,17.6,0,17,0z M8.1,10.4l-0.7,0.7
		L5.3,9l2.1-2.1l0.7,0.7L6.7,9L8.1,10.4z M10.1,11.2l-1-0.2l0.7-4.2l1,0.2L10.1,11.2z M12.6,11.1l-0.7-0.7L13.3,9l-1.4-1.4l0.7-0.7
		L14.7,9L12.6,11.1z"/>
	<path class="st0" d="M19,9v8c0,1.1-0.9,2-2,2H3c-1.1,0-2-0.9-2-2V9H0v8c0,1.7,1.3,3,3,3h14c1.7,0,3-1.3,3-3V9H19z"/>
</g>
</svg>
