<?xml version="1.0" encoding="utf-8"?>
<!-- Generator: Adobe Illustrator 22.0.1, SVG Export Plug-In . SVG Version: 6.00 Build 0)  -->
<svg version="1.1" id="Layer_1" xmlns="http://www.w3.org/2000/svg" xmlns:xlink="http://www.w3.org/1999/xlink" x="0px" y="0px"
	 viewBox="0 0 20 20" style="enable-background:new 0 0 20 20;" xml:space="preserve">
<style type="text/css">
	.st0{fill:#4B23A0;}
</style>
<g>
	<path class="st0" d="M19,0H1C0.4,0,0,0.4,0,1v16v2c0,0.6,0.4,1,1,1h18c0.6,0,1-0.4,1-1V1C20,0.4,19.6,0,19,0z M19,3.7l-4.5,5.8
		c-0.2,0.2-0.4,0.3-0.7,0.2l-4.9-2C8.6,7.6,8.3,7.7,8.1,8l-3.9,8.8c-0.1,0.3-0.4,0.4-0.7,0.3L1,16.4V1h18V3.7z"/>
</g>
</svg>
