<?xml version="1.0" encoding="utf-8"?>
<!-- Generator: Adobe Illustrator 26.0.1, SVG Export Plug-In . SVG Version: 6.00 Build 0)  -->
<svg version="1.1" id="Layer_1" xmlns="http://www.w3.org/2000/svg" xmlns:xlink="http://www.w3.org/1999/xlink" x="0px" y="0px"
	 viewBox="0 0 14 14" style="enable-background:new 0 0 14 14;" xml:space="preserve">
<style type="text/css">
	.st0{fill:#FFFFFF;}
	.st1{fill:#808080;}
</style>
<g>
	<g>
		<path class="st0" d="M7,0C3.1,0,0,3.1,0,7s3.1,7,7,7c3.9,0,7-3.1,7-7S10.9,0,7,0z M7,10c-1.7,0-3-1.3-3-3s1.3-3,3-3s3,1.3,3,3
			S8.7,10,7,10z"/>
	</g>
	<g>
		<path class="st1" d="M7,1C3.7,1,1,3.7,1,7s2.7,6,6,6c3.3,0,6-2.7,6-6S10.3,1,7,1z M7,11c-2.2,0-4-1.8-4-4s1.8-4,4-4s4,1.8,4,4
			S9.2,11,7,11z"/>
	</g>
</g>
</svg>
