<?xml version="1.0" encoding="utf-8"?>
<!-- Generator: Adobe Illustrator 22.0.1, SVG Export Plug-In . SVG Version: 6.00 Build 0)  -->
<svg version="1.1" id="Layer_1" xmlns="http://www.w3.org/2000/svg" xmlns:xlink="http://www.w3.org/1999/xlink" x="0px" y="0px"
	 viewBox="0 0 20 20" style="enable-background:new 0 0 20 20;" xml:space="preserve">
<style type="text/css">
	.st0{fill:#4B23A0;}
</style>
<path class="st0" d="M19,0H1C0.4,0,0,0.4,0,1v18c0,0.6,0.4,1,1,1h18c0.6,0,1-0.4,1-1V1C20,0.4,19.6,0,19,0z M15.4,15l-2-3.2
	c2-1.8,2.3-5,0.4-7.2c-1.4-1.5-3.6-2.1-5.5-1.4C5,4.4,3.9,8.1,5.6,10.8c1.4,2.1,4,2.9,6.3,2l1.4,2.3H1V1h18v14H15.4z M12.4,10.6
	c-1.8,1.7-4.8,1.1-5.7-1.3C6.1,8,6.5,6.4,7.5,5.5c1.8-1.7,4.8-1.1,5.7,1.3C13.7,8.1,13.4,9.6,12.4,10.6z"/>
</svg>
