<?xml version="1.0" encoding="utf-8"?>
<!-- Generator: Adobe Illustrator 24.2.0, SVG Export Plug-In . SVG Version: 6.00 Build 0)  -->
<svg version="1.1" id="Layer_1" xmlns="http://www.w3.org/2000/svg" xmlns:xlink="http://www.w3.org/1999/xlink" x="0px" y="0px"
	 viewBox="0 0 18 18" style="enable-background:new 0 0 18 18;" xml:space="preserve">
<style type="text/css">
	.st0{fill:#333333;}
</style>
<g>
	<path class="st0" d="M17,0H1C0.4,0,0,0.4,0,1v16c0,0.6,0.4,1,1,1h9.8l-0.8-2.1c-2.3,0.4-4.6-0.8-5.5-3c-1-2.6,0.2-5.5,2.8-6.5
		c2.6-1,5.5,0.2,6.5,2.8c0.9,2.2,0.1,4.8-1.9,6l1.1,2.8H17c0.6,0,1-0.4,1-1V1C18,0.4,17.6,0,17,0z M5,4C4.4,4,4,3.6,4,3s0.4-1,1-1
		s1,0.4,1,1S5.6,4,5,4z M9,4C8.4,4,8,3.6,8,3s0.4-1,1-1s1,0.4,1,1S9.6,4,9,4z M13,4c-0.6,0-1-0.4-1-1s0.4-1,1-1s1,0.4,1,1
		S13.6,4,13,4z"/>
	<path class="st0" d="M11.8,9.9c-0.6-1.5-2.4-2.3-3.9-1.7c-1.5,0.6-2.3,2.4-1.7,3.9c0.6,1.5,2.4,2.3,3.9,1.7
		C11.7,13.2,12.4,11.4,11.8,9.9z"/>
</g>
</svg>
