<?xml version="1.0" encoding="UTF-8"?><svg id="remove" xmlns="http://www.w3.org/2000/svg" viewBox="0 0 16 16"><defs><style>.cls-1{fill:#535353;fill-rule:evenodd;stroke-width:0px;}</style></defs><polygon class="cls-1" points="10 2 10 0 6 0 6 2 1 2 1 4 15 4 15 2 10 2"/><polygon class="cls-1" points="12 6 11.2 14 4.8 14 4 6 2 6 3 16 4 16 5 16 11 16 12 16 13 16 14 6 12 6"/><polygon class="cls-1" points="10 2 10 0 6 0 6 2 1 2 1 4 15 4 15 2 10 2"/><polygon class="cls-1" points="12 6 11.2 14 4.8 14 4 6 2 6 3 16 4 16 5 16 11 16 12 16 13 16 14 6 12 6"/></svg>