<?xml version="1.0" encoding="utf-8"?>
<!-- Generator: Adobe Illustrator 24.2.0, SVG Export Plug-In . SVG Version: 6.00 Build 0)  -->
<svg version="1.1" id="Layer_1" xmlns="http://www.w3.org/2000/svg" xmlns:xlink="http://www.w3.org/1999/xlink" x="0px" y="0px"
	 viewBox="0 0 26 26" style="enable-background:new 0 0 26 26;" xml:space="preserve">
<style type="text/css">
	.st0{fill:none;}
	.st1{fill:#333333;}
</style>
<path class="st0" d="M24.4,26H1.6C0.7,26,0,25.3,0,24.4V1.6C0,0.7,0.7,0,1.6,0H24c1.1,0,2,0.9,2,2v22.4C26,25.3,25.3,26,24.4,26z"/>
<path class="st1" d="M13,5c-0.9,0-1.8,0.2-2.6,0.4C7.3,6.5,5,9.5,5,13c0,4.4,3.6,8,8,8c3.5,0,6.5-2.3,7.6-5.4
	c0.2-0.8,0.4-1.7,0.4-2.6C21,8.6,17.4,5,13,5z M13,19c-3.3,0-6-2.7-6-6c0-2.2,1.2-4.2,3-5.2c0,0.1,0,0.1,0,0.2c0,4.4,3.6,8,8,8
	c0.1,0,0.1,0,0.2,0C17.2,17.8,15.2,19,13,19z"/>
</svg>
