<?xml version="1.0" encoding="utf-8"?>
<!-- Generator: Adobe Illustrator 24.2.0, SVG Export Plug-In . SVG Version: 6.00 Build 0)  -->
<svg version="1.1" id="Layer_1" xmlns="http://www.w3.org/2000/svg" xmlns:xlink="http://www.w3.org/1999/xlink" x="0px" y="0px"
	 viewBox="0 0 26 26" style="enable-background:new 0 0 26 26;" xml:space="preserve">
<style type="text/css">
	.st0{fill:none;}
	.st1{fill:#333333;}
</style>
<path class="st0" d="M24,26H2c-1.1,0-2-0.9-2-2V2c0-1.1,0.9-2,2-2h22c1.1,0,2,0.9,2,2v22C26,25.1,25.1,26,24,26z"/>
<g>
	<path class="st1" d="M16.6,5.3l-9.5,9.3l4.2,4.2l9.4-9.3c0.4-0.4,0.4-1,0-1.4l-2.8-2.8C17.6,4.9,17,4.9,16.6,5.3z M18.7,8.8
		L11.4,16l-1.5-1.4l7.2-7.2L18.7,8.8z"/>
	<polygon class="st1" points="7.3,18.7 7.8,16.7 6.4,15.3 5,21 10.7,19.6 9.3,18.2 	"/>
</g>
</svg>
