<?xml version="1.0" encoding="utf-8"?>
<!-- Generator: Adobe Illustrator 26.0.1, SVG Export Plug-In . SVG Version: 6.00 Build 0)  -->
<svg version="1.1" id="Layer_1" xmlns="http://www.w3.org/2000/svg" xmlns:xlink="http://www.w3.org/1999/xlink" x="0px" y="0px"
	 viewBox="0 0 16 16" style="enable-background:new 0 0 16 16;" xml:space="preserve">
<style type="text/css">
	.st0{fill:#535353;}
</style>
<g>
	<path class="st0" d="M10.5,9.8L9,8.4l-4.8,4.8c-0.3,0.3-0.6,0.4-0.9,0.5L2,14l0.3-1.4c0.1-0.4,0.3-0.7,0.5-0.9L7.6,7L6.2,5.5
		L1.8,9.9c-0.5,0.5-0.9,1.2-1.1,1.9l-0.7,3c-0.2,0.7,0.5,1.4,1.2,1.2l3-0.7c0.7-0.2,2.3-1.5,2.8-2L10.5,9.8z"/>
	<path class="st0" d="M12.6,7.7l2.8-2.8c0.8-0.8,0.8-2.1,0-2.8L14,0.6c-0.8-0.8-2.1-0.8-2.8,0L8.3,3.4L7.6,2.7L6.2,4.1l5.7,5.7
		l1.4-1.4L12.6,7.7z M12.6,2L14,3.4l-2.8,2.8L9.7,4.8L12.6,2z"/>
</g>
</svg>
