<?xml version="1.0" encoding="utf-8"?>
<!-- Generator: Adobe Illustrator 24.2.0, SVG Export Plug-In . SVG Version: 6.00 Build 0)  -->
<svg version="1.1" id="Layer_1" xmlns="http://www.w3.org/2000/svg" xmlns:xlink="http://www.w3.org/1999/xlink" x="0px" y="0px"
	 viewBox="0 0 18 18" style="enable-background:new 0 0 18 18;" xml:space="preserve">
<style type="text/css">
	.st0{fill:#333333;}
</style>
<path class="st0" d="M17.8,10.5l-5.8-6.9C12,3.4,12,3.2,12,3c0-1.7-1.3-3-3-3C7.3,0,6,1.3,6,3c0,0.2,0,0.4,0.1,0.6l-5.8,6.9
	c-0.3,0.3-0.3,0.7-0.1,1.1C0.9,13.3,3.9,18,9,18s8.1-4.7,8.9-6.4C18.1,11.2,18,10.8,17.8,10.5z M9,2c0.6,0,1,0.4,1,1
	c0,0.6-0.4,1-1,1S8,3.6,8,3C8,2.4,8.4,2,9,2z M2.4,11l4.7-5.6C7.7,5.8,8.3,6,9,6s1.3-0.2,1.8-0.6l4.7,5.6H2.4z"/>
</svg>
