<?xml version="1.0" encoding="utf-8"?>
<!-- Generator: Adobe Illustrator 22.0.1, SVG Export Plug-In . SVG Version: 6.00 Build 0)  -->
<svg version="1.1" id="Layer_1" xmlns="http://www.w3.org/2000/svg" xmlns:xlink="http://www.w3.org/1999/xlink" x="0px" y="0px"
	 viewBox="0 0 20 20" style="enable-background:new 0 0 20 20;" xml:space="preserve">
<style type="text/css">
	.st0{fill:#A0A0A0;}
</style>
<g>
	<g>
		<polygon class="st0" points="11.1,12.5 12.8,12.5 12,10 		"/>
		<path class="st0" d="M16,0H1C0.4,0,0,0.4,0,1v15c0,0.6,0.4,1,1,1h15c0.6,0,1-0.4,1-1V1C17,0.4,16.5,0,16,0z M14.8,15h-1.1
			c-0.1,0-0.2-0.1-0.2-0.1l-0.3-1.1c0-0.1-0.1-0.1-0.2-0.1h-2.1c-0.1,0-0.2,0.1-0.2,0.1l-0.4,1.1c0,0.1-0.1,0.1-0.2,0.1h-1
			C9,15,8.9,14.8,9,14.7l2.2-6.1c0-0.1,0.1-0.1,0.2-0.1h1.3c0.1,0,0.2,0.1,0.2,0.1l2.2,6.1C15,14.8,14.9,15,14.8,15z"/>
	</g>
	<g>
		<path class="st0" d="M19,0h-1v1h1v16c0,1.1-0.9,2-2,2H1v-1H0v1c0,0.6,0.4,1,1,1h16c1.7,0,3-1.3,3-3V1C20,0.4,19.6,0,19,0z"/>
	</g>
</g>
</svg>
