<?xml version="1.0" encoding="utf-8"?>
<!-- Generator: Adobe Illustrator 22.1.0, SVG Export Plug-In . SVG Version: 6.00 Build 0)  -->
<svg version="1.1" id="Layer_1" xmlns="http://www.w3.org/2000/svg" xmlns:xlink="http://www.w3.org/1999/xlink" x="0px" y="0px"
	 viewBox="0 0 16 16" style="enable-background:new 0 0 16 16;" xml:space="preserve">
<style type="text/css">
	.st0{fill:#684BC7;}
</style>
<g>
	<g>
		<path class="st0" d="M9,9H4V7h2v1h2V7c0-1.1-0.9-2-2-2H4C2.9,5,2,5.9,2,7v2H1c-0.6,0-1,0.4-1,1v5c0,0.6,0.4,1,1,1h8
			c0.6,0,1-0.4,1-1v-5C10,9.4,9.6,9,9,9z M8,14H2v-3h6V14z"/>
	</g>
	<path class="st0" d="M15,0H1C0.4,0,0,0.4,0,1v3h2V2h12v10h-2v2h3c0.6,0,1-0.4,1-1V1C16,0.4,15.6,0,15,0z"/>
</g>
</svg>
