<?xml version="1.0" encoding="utf-8"?>
<!-- Generator: Adobe Illustrator 24.2.0, SVG Export Plug-In . SVG Version: 6.00 Build 0)  -->
<svg version="1.1" id="Layer_1" xmlns="http://www.w3.org/2000/svg" xmlns:xlink="http://www.w3.org/1999/xlink" x="0px" y="0px"
	 viewBox="0 0 26 26" style="enable-background:new 0 0 26 26;" xml:space="preserve">
<style type="text/css">
	.st0{fill:none;}
	.st1{fill:#333333;}
</style>
<path class="st0" d="M24,26H2c-1.1,0-2-0.9-2-2V2c0-1.1,0.9-2,2-2h22c1.1,0,2,0.9,2,2v22C26,25.1,25.1,26,24,26z"/>
<g>
	<g>
		<path class="st1" d="M14,14H9v-2h2v1h2v-1c0-1.1-0.9-2-2-2H9c-1.1,0-2,0.9-2,2v2H6c-0.6,0-1,0.4-1,1v5c0,0.6,0.4,1,1,1h8
			c0.6,0,1-0.4,1-1v-5C15,14.4,14.6,14,14,14z M13,19H7v-3h6V19z"/>
	</g>
	<path class="st1" d="M20,5H6C5.4,5,5,5.4,5,6v3h2V7h12v10h-2v2h3c0.6,0,1-0.4,1-1V6C21,5.4,20.6,5,20,5z"/>
</g>
</svg>
