<svg xmlns="http://www.w3.org/2000/svg" width="10" height="10" viewBox="0 0 10 10">
  <g id="replay" transform="translate(-4.08 -3.99)">
    <path id="Path_1046" data-name="Path 1046" d="M11.346,9.037a.573.573,0,0,0-.886.467v3.278a.6.6,0,0,0,.886.528l2.894-1.694a.505.505,0,0,0,0-.933L11.346,9.042Z" transform="translate(-2.802 -2.202)" fill="#333"/>
    <path id="Path_1047" data-name="Path 1047" d="M12.767,11.057H11.191a.544.544,0,1,0,0,1.089h.252a3.983,3.983,0,0,1-2.316.75,3.906,3.906,0,1,1,0-7.811,4.031,4.031,0,0,1,1.974.522.553.553,0,0,0,.752-.2.542.542,0,0,0-.2-.744A5.089,5.089,0,0,0,9.127,3.99a5,5,0,1,0,0,10,5.113,5.113,0,0,0,3.09-1.044v.217a.55.55,0,0,0,1.1,0V11.6A.548.548,0,0,0,12.767,11.057Z" fill="#333"/>
    <path id="Path_1048" data-name="Path 1048" d="M19.934,10.935a.55.55,0,0,0,.538.428.486.486,0,0,0,.123-.011.549.549,0,1,0-.656-.417Z" transform="translate(-6.959 -2.789)" fill="#333"/>
    <path id="Path_1049" data-name="Path 1049" d="M19.076,8.325a.558.558,0,0,0,.331-.106.541.541,0,0,0,.112-.767.553.553,0,0,0-.774-.111.541.541,0,0,0-.112.767.552.552,0,0,0,.443.222Z" transform="translate(-6.342 -1.44)" fill="#333"/>
    <path id="Path_1050" data-name="Path 1050" d="M20.611,13.641a.548.548,0,1,0-.224,1.072.85.85,0,0,0,.112.011.547.547,0,0,0,.107-1.083Z" transform="translate(-6.969 -4.284)" fill="#333"/>
  </g>
</svg>
