<?xml version="1.0" encoding="UTF-8"?>
<svg id="Layer_1" data-name="Layer 1" xmlns="http://www.w3.org/2000/svg" version="1.1" viewBox="0 0 26 26">
  <defs>
    <style>
      .cls-1 {
        fill: #535453;
        stroke-width: 0px;
      }
    </style>
  </defs>
  <g id="Group_3842" data-name="Group 3842">
    <path id="Path_136" data-name="Path 136" class="cls-1" d="M19,18.3v2.4h2v-6h-6v2h2.7c-2,2.6-5.8,3.1-8.4,1.1-1.3-1-2.2-2.6-2.3-4.4h-2c.2,4.4,3.9,7.8,8.3,7.6,2.2,0,4.3-1,5.7-2.7"/>
    <path id="Path_137" data-name="Path 137" class="cls-1" d="M8.3,9.4c2-2.6,5.8-3.1,8.4-1.1,1.4,1.1,2.2,2.7,2.3,4.4h2c-.2-4.4-3.9-7.8-8.3-7.7-2.2.2-4.3,1.2-5.7,2.9v-2.5h-2v6h6v-2h-2.7Z"/>
  </g>
</svg>