<?xml version="1.0" encoding="utf-8"?>
<!-- Generator: Adobe Illustrator 22.0.1, SVG Export Plug-In . SVG Version: 6.00 Build 0)  -->
<svg version="1.1" id="Layer_1" xmlns="http://www.w3.org/2000/svg" xmlns:xlink="http://www.w3.org/1999/xlink" x="0px" y="0px"
	 viewBox="0 0 10 10" style="enable-background:new 0 0 10 10;" xml:space="preserve">
<style type="text/css">
	.st0{fill:#333333;}
</style>
<path class="st0" d="M10,9.3L7.1,6.4C7.7,5.8,8,4.9,8,4c0-2.2-1.8-4-4-4C1.8,0,0,1.8,0,4s1.8,4,4,4c0.9,0,1.8-0.3,2.4-0.9L9.3,10
	L10,9.3z M1,4c0-1.7,1.3-3,3-3c1.7,0,3,1.3,3,3S5.7,7,4,7C2.3,7,1,5.7,1,4z"/>
</svg>
