<?xml version="1.0" encoding="utf-8"?>
<!-- Generator: Adobe Illustrator 22.0.1, SVG Export Plug-In . SVG Version: 6.00 Build 0)  -->
<svg version="1.1" id="Layer_1" xmlns="http://www.w3.org/2000/svg" xmlns:xlink="http://www.w3.org/1999/xlink" x="0px" y="0px"
	 viewBox="0 0 10 10" style="enable-background:new 0 0 10 10;" xml:space="preserve">
<style type="text/css">
	.st0{fill:#A0A0A0;}
</style>
<g>
	<path class="st0" d="M3.9,2.9v1.3c0,0.3-0.3,0.4-0.5,0.3L2.3,3.8c-0.2-0.1-0.2-0.5,0-0.6l1.1-0.6C3.6,2.5,3.9,2.7,3.9,2.9"/>
	<path class="st0" d="M7.8,8.5L5.2,10C5,10.1,4.7,10,4.7,9.7v-3c0-0.3,0.3-0.4,0.5-0.3l2.6,1.5C8.1,8,8.1,8.3,7.8,8.5"/>
	<path class="st0" d="M2.9,5.7l-1.6,1c-0.2,0.1-0.5,0-0.5-0.3V4.5c0-0.3,0.3-0.4,0.5-0.3l1.6,0.9C3.2,5.3,3.2,5.6,2.9,5.7"/>
	<path class="st0" d="M1.2,7.7l2.2-1.2c0.2-0.1,0.5,0,0.5,0.3v2.5c0,0.3-0.3,0.4-0.5,0.3L1.2,8.2C1,8.1,1,7.8,1.2,7.7"/>
	<path class="st0" d="M8.6,2.5L5.3,4.4C5,4.6,4.8,4.4,4.8,4.2V0.3C4.8,0,5.1-0.1,5.3,0l3.3,2C8.9,2.1,8.9,2.4,8.6,2.5"/>
	<path class="st0" d="M9.2,3.7v3.4c0,0.3-0.3,0.4-0.5,0.3l-3-1.7c-0.2-0.1-0.2-0.5,0-0.6l3-1.7C8.9,3.3,9.2,3.5,9.2,3.7"/>
</g>
</svg>
