<?xml version="1.0" encoding="utf-8"?>
<!-- Generator: Adobe Illustrator 24.2.0, SVG Export Plug-In . SVG Version: 6.00 Build 0)  -->
<svg version="1.1" id="Layer_1" xmlns="http://www.w3.org/2000/svg" xmlns:xlink="http://www.w3.org/1999/xlink" x="0px" y="0px"
	 viewBox="0 0 18 18" style="enable-background:new 0 0 18 18;" xml:space="preserve">
<style type="text/css">
	.st0{fill:none;}
	.st1{fill:#333333;}
</style>
<rect x="0" class="st0" width="18" height="18"/>
<g>
	<path class="st1" d="M7,5.2v2.3C7,7.9,6.5,8.2,6.1,8l-2-1.1c-0.4-0.2-0.4-0.8,0-1.1l2-1.1C6.5,4.5,7,4.8,7,5.2z"/>
	<path class="st1" d="M14.1,15.3l-4.7,2.7c-0.4,0.2-0.9,0-0.9-0.5v-5.3c0-0.5,0.5-0.7,0.9-0.5l4.7,2.7C14.5,14.5,14.5,15,14.1,15.3z
		"/>
	<path class="st1" d="M5.3,10.3l-3,1.7c-0.4,0.2-0.9,0-0.9-0.5V8.1c0-0.5,0.5-0.7,0.9-0.5l3,1.7C5.8,9.5,5.8,10.1,5.3,10.3z"/>
	<path class="st1" d="M2.2,13.8l3.9-2.2c0.4-0.2,0.9,0,0.9,0.5v4.4C7,17,6.5,17.2,6.1,17l-3.9-2.2C1.8,14.6,1.8,14,2.2,13.8z"/>
	<path class="st1" d="M15.5,4.5L9.4,8C9,8.2,8.5,7.9,8.5,7.5V0.6c0-0.5,0.5-0.7,0.9-0.5l6.1,3.4C15.9,3.8,15.9,4.3,15.5,4.5z"/>
	<path class="st1" d="M16.5,6.7v6.1c0,0.5-0.5,0.7-0.9,0.5l-5.4-3.1c-0.4-0.2-0.4-0.8,0-1.1l5.4-3.1C16,6,16.5,6.3,16.5,6.7z"/>
</g>
</svg>
