<?xml version="1.0" encoding="UTF-8"?><svg id="Layer_1" xmlns="http://www.w3.org/2000/svg" viewBox="0 0 10 10"><defs><style>.cls-1{fill:#f2f2ff;}.cls-1,.cls-2,.cls-3,.cls-4,.cls-5,.cls-6{stroke-width:0px;}.cls-2{fill:#4b23a0;}.cls-3{fill:#e2e0ff;}.cls-4{fill:#b9b4ec;}.cls-5{fill:#8d78ec;}.cls-6{fill:#684bc7;}</style></defs><path id="Path_94" class="cls-1" d="M3.9,2.9v1.28c0,.18-.15.32-.33.32-.06,0-.12-.02-.17-.05l-1.11-.6c-.17-.09-.23-.3-.13-.47.03-.06.08-.1.13-.13l1.11-.64c.19-.08.4.01.48.2.01.03.02.07.03.1"/><path id="Path_95" class="cls-5" d="M7.84,8.47l-2.62,1.48c-.16.1-.36.05-.45-.11-.03-.05-.05-.1-.05-.16v-2.95c0-.18.15-.32.33-.32.06,0,.12.02.17.05l2.62,1.48c.15.06.22.23.15.38-.03.07-.08.12-.15.15"/><path id="Path_96" class="cls-3" d="M2.97,5.7l-1.64.97c-.16.09-.37.03-.46-.13-.03-.05-.04-.11-.04-.17v-1.88c0-.18.15-.32.33-.32.06,0,.12.02.17.05l1.64.94c.15.06.22.24.15.38-.03.07-.08.12-.15.15"/><path id="Path_97" class="cls-4" d="M1.22,7.67l2.18-1.24c.16-.1.36-.05.45.11.03.05.05.1.05.16v2.48c0,.18-.15.32-.33.32-.06,0-.12-.02-.17-.05l-2.18-1.24c-.15-.06-.22-.23-.15-.38.03-.07.08-.12.15-.15"/><path id="Path_98" class="cls-2" d="M8.64,2.54l-3.39,1.91c-.15.1-.36.05-.45-.11-.03-.05-.05-.1-.05-.16V.32C4.75.14,4.9,0,5.08,0c.06,0,.12.02.17.05l3.39,1.91c.16.08.22.27.14.43-.03.06-.08.11-.14.14"/><path id="Path_99" class="cls-6" d="M9.18,3.73v3.42c0,.18-.15.32-.33.32-.06,0-.12-.02-.17-.05l-3.02-1.71c-.17-.09-.23-.3-.13-.47.03-.06.08-.1.13-.13l3.02-1.71c.19-.07.41.03.48.22.01.04.02.08.02.11"/></svg>