<svg width="26" height="26" viewBox="0 0 26 26" fill="none" xmlns="http://www.w3.org/2000/svg">
<path d="M13 5C17.4183 5 21 8.58172 21 13C21 17.4183 17.4183 21 13 21C8.58172 21 5 17.4183 5 13C5 8.58172 8.58172 5 13 5ZM13.8887 9.88867H12.1113V6.8418C9.38621 7.23156 7.23156 9.38621 6.8418 12.1113H9.88867V13.8887H6.8418C7.23156 16.6137 9.38628 18.7674 12.1113 19.1572V16.1113H13.8887V19.1572C16.6137 18.7674 18.7684 16.6137 19.1582 13.8887H16.1113V12.1113H19.1582C18.7684 9.38621 16.6138 7.23156 13.8887 6.8418V9.88867Z" fill="black"/>
</svg>
