<?xml version="1.0" encoding="utf-8"?>
<!-- Generator: Adobe Illustrator 25.3.1, SVG Export Plug-In . SVG Version: 6.00 Build 0)  -->
<svg version="1.1" id="Layer_1" xmlns="http://www.w3.org/2000/svg" xmlns:xlink="http://www.w3.org/1999/xlink" x="0px" y="0px"
	 viewBox="0 0 10 10" style="enable-background:new 0 0 10 10;" xml:space="preserve">
<g>
	<path d="M5,0C2.24,0,0,2.24,0,5s2.24,5,5,5s5-2.24,5-5S7.76,0,5,0z M5,9C2.79,9,1,7.21,1,5s1.79-4,4-4c2.21,0,4,1.79,4,4
		S7.21,9,5,9z"/>
	<polygon points="5.93,3.35 5.82,4.35 5.86,4.35 4.86,5.3 4.1,4.56 2.18,6.21 2.84,6.97 4.06,5.91 4.86,6.7 8.11,3.59 	"/>
</g>
</svg>
