<?xml version="1.0" encoding="utf-8"?>
<!-- Generator: Adobe Illustrator 22.0.1, SVG Export Plug-In . SVG Version: 6.00 Build 0)  -->
<svg version="1.1" id="Layer_1" xmlns="http://www.w3.org/2000/svg" xmlns:xlink="http://www.w3.org/1999/xlink" x="0px" y="0px"
	 viewBox="0 0 20 20" style="enable-background:new 0 0 20 20;" xml:space="preserve">
<style type="text/css">
	.st0{fill:#4B23A0;}
</style>
<g>
	<path class="st0" d="M5.9,1C4.5-0.3,2.3-0.3,1,1c-1.3,1.3-1.3,3.5,0,4.9L5.9,1z"/>
	<path class="st0" d="M19,1c-1.3-1.3-3.5-1.3-4.9,0L19,5.9C20.3,4.5,20.3,2.3,19,1z"/>
	<path class="st0" d="M10,2c-5,0-9,4-9,9c0,2.4,0.9,4.5,2.4,6.1L2,19.5L2.9,20l1.3-2.2C5.7,19.2,7.8,20,10,20s4.3-0.8,5.9-2.2
		l1.3,2.2l0.9-0.5l-1.4-2.4c1.5-1.6,2.4-3.7,2.4-6.1C19,6,15,2,10,2z M12.1,14.5c-0.4,0.4-0.9,0.6-1.6,0.7v1.1H9.6v-1.1
		c-0.7-0.1-1.3-0.3-1.7-0.8c-0.4-0.4-0.6-1-0.6-1.8h1.4c0,0.5,0.1,0.8,0.4,1.1c0.2,0.3,0.6,0.4,1,0.4c0.4,0,0.7-0.1,1-0.3
		c0.2-0.2,0.3-0.5,0.3-0.8c0-0.3-0.1-0.6-0.3-0.8c-0.2-0.2-0.5-0.4-1-0.6s-0.8-0.3-1.1-0.5c-0.9-0.5-1.3-1.2-1.3-2.1
		c0-0.6,0.2-1.1,0.6-1.5C8.6,7.2,9.1,7,9.7,6.9V5.7h0.9v1.2c0.6,0.1,1.1,0.4,1.5,0.8s0.5,1,0.5,1.8h-1.4c0-0.5-0.1-0.8-0.3-1.1
		C10.8,8.1,10.5,8,10.1,8C9.8,8,9.5,8.1,9.3,8.3C9.1,8.5,9,8.8,9,9.1c0,0.3,0.1,0.6,0.3,0.8c0.2,0.2,0.5,0.4,1,0.6s0.9,0.3,1.1,0.5
		c0.3,0.1,0.5,0.3,0.7,0.5s0.3,0.4,0.4,0.7c0.1,0.2,0.2,0.5,0.2,0.9C12.7,13.6,12.5,14.1,12.1,14.5z"/>
</g>
</svg>
