<?xml version="1.0" encoding="utf-8"?>
<!-- Generator: Adobe Illustrator 19.2.0, SVG Export Plug-In . SVG Version: 6.00 Build 0)  -->
<svg version="1.1" id="Layer_1" xmlns="http://www.w3.org/2000/svg" xmlns:xlink="http://www.w3.org/1999/xlink" x="0px" y="0px"
	 viewBox="0 0 20 20" style="enable-background:new 0 0 20 20;" xml:space="preserve">
<style type="text/css">
	.st0{fill:none;stroke:#FFFFFF;stroke-width:0.5;stroke-miterlimit:10;}
</style>
<g>
	<g>
		<g>
			<path class="st0" d="M14.4,2.2"/>
			<path class="st0" d="M5.3,17.1"/>
			<path class="st0" d="M14.4,2.2V1c0-0.4-0.3-0.7-0.7-0.7H1C0.6,0.3,0.3,0.6,0.3,1v15.5c0,0.4,0.3,0.7,0.7,0.7h4.3"/>
			<path class="st0" d="M5.3,17.1V19c0,0.4,0.3,0.7,0.7,0.7H19c0.4,0,0.7-0.3,0.7-0.7V2.9c0-0.4-0.3-0.7-0.7-0.7h-4.7"/>
			<path class="st0" d="M5.3,17.1V2.9c0-0.4,0.3-0.7,0.7-0.7h8.4"/>
		</g>
	</g>
	<path class="st0" d="M17,7.9H8c-0.2,0-0.3-0.1-0.3-0.3V5.4c0-0.2,0.1-0.3,0.3-0.3H17c0.2,0,0.3,0.1,0.3,0.3v2.2
		C17.4,7.8,17.2,7.9,17,7.9z"/>
</g>
</svg>
