<?xml version="1.0" encoding="utf-8"?>
<!-- Generator: Adobe Illustrator 19.2.0, SVG Export Plug-In . SVG Version: 6.00 Build 0)  -->
<svg version="1.1" id="Layer_1" xmlns="http://www.w3.org/2000/svg" xmlns:xlink="http://www.w3.org/1999/xlink" x="0px" y="0px"
	 viewBox="0 0 20 20" style="enable-background:new 0 0 20 20;" xml:space="preserve">
<style type="text/css">
	.st0{fill:none;stroke:#FFFFFF;stroke-width:0.5;stroke-miterlimit:10;}
</style>
<path class="st0" d="M6.8,14.6c-3.2,0.7-5.4,2.4-6.5,4.5c-0.1,0.3,0.1,0.6,0.3,0.6h18.6c0.3,0,0.5-0.3,0.3-0.6
	c-1.1-2-3.3-3.8-6.5-4.5c-0.2,0-0.2-0.3,0-0.3c2.5-1.2,4.2-3.6,4.2-6.6c0-4.1-3.1-7.4-7.3-7.4c-4.2,0-7.3,3.3-7.3,7.4
	c0,3,1.7,5.4,4.2,6.6C7,14.4,7,14.6,6.8,14.6z"/>
</svg>
