<?xml version="1.0" encoding="utf-8"?>
<!-- Generator: Adobe Illustrator 19.2.0, SVG Export Plug-In . SVG Version: 6.00 Build 0)  -->
<svg version="1.1" id="Layer_1" xmlns="http://www.w3.org/2000/svg" xmlns:xlink="http://www.w3.org/1999/xlink" x="0px" y="0px"
	 viewBox="0 0 20 20" style="enable-background:new 0 0 20 20;" xml:space="preserve">
<style type="text/css">
	.st0{fill:none;stroke:#FFFFFF;stroke-width:0.5;stroke-miterlimit:10;}
</style>
<g>
	<g>
		<path class="st0" d="M13.9,1.8V1.3c0-0.5-0.4-1-1-1H1.3c-0.5,0-1,0.4-1,1v15.4c0,0.5,0.4,1,1,1h3.3"/>
		<path class="st0" d="M4.6,17.6V2.7c0-0.5,0.4-1,1-1h8.4"/>
		<path class="st0" d="M4.6,17.6v1.1c0,0.5,0.4,1,1,1h13.2c0.5,0,1-0.4,1-1v-16c0-0.5-0.4-1-1-1h-4.8"/>
	</g>
	<g>
		<g>
			<line class="st0" x1="8.1" y1="12.9" x2="16.6" y2="12.9"/>
			<g>
				<line class="st0" x1="8.1" y1="11.3" x2="16.6" y2="11.3"/>
				<line class="st0" x1="8.1" y1="14.4" x2="16.6" y2="14.4"/>
			</g>
		</g>
		<g>
			<line class="st0" x1="8.1" y1="8.3" x2="16.6" y2="8.3"/>
			<g>
				<line class="st0" x1="8.1" y1="6.8" x2="16.6" y2="6.8"/>
				<line class="st0" x1="8.1" y1="9.9" x2="16.6" y2="9.9"/>
			</g>
		</g>
	</g>
</g>
</svg>
