<?xml version="1.0" encoding="utf-8"?>
<!-- Generator: Adobe Illustrator 19.2.0, SVG Export Plug-In . SVG Version: 6.00 Build 0)  -->
<svg version="1.1" id="Layer_1" xmlns="http://www.w3.org/2000/svg" xmlns:xlink="http://www.w3.org/1999/xlink" x="0px" y="0px"
	 viewBox="0 0 20 20" style="enable-background:new 0 0 20 20;" xml:space="preserve">
<style type="text/css">
	.st0{fill:none;stroke:#FFFFFF;stroke-width:0.5;stroke-miterlimit:10;}
</style>
<g>
	<path class="st0" d="M19,0.3H1C0.6,0.3,0.3,0.6,0.3,1V19c0,0.4,0.3,0.7,0.7,0.7H19c0.4,0,0.7-0.3,0.7-0.7v-8c0-0.2-0.2-0.3-0.3-0.2
		l-7.1,5.7c-0.3,0.2-0.7,0-0.7-0.3v-2.8c0-0.1,0-0.1-0.1-0.1H6.3c-0.4,0-0.7-0.3-0.7-0.7V7c0-0.4,0.3-0.7,0.7-0.7h5.2
		c0.1,0,0.1,0,0.1-0.1V3.5c0-0.3,0.4-0.5,0.7-0.3l7.1,5.7c0.1,0.1,0.3,0,0.3-0.2V1C19.7,0.6,19.4,0.3,19,0.3z"/>
</g>
</svg>
