<?xml version="1.0" encoding="utf-8"?>
<!-- Generator: Adobe Illustrator 19.2.0, SVG Export Plug-In . SVG Version: 6.00 Build 0)  -->
<svg version="1.1" id="Layer_1" xmlns="http://www.w3.org/2000/svg" xmlns:xlink="http://www.w3.org/1999/xlink" x="0px" y="0px"
	 viewBox="0 0 321.5 132.3" style="enable-background:new 0 0 321.5 132.3;" xml:space="preserve">
<style type="text/css">
	.st0{opacity:0.4;fill:#FFFFFF;}
	.st1{fill:#FFFFFF;}
	.st2{opacity:0.25;fill:#FFFFFF;}
	.st3{opacity:0.7;fill:#FFFFFF;}
	.st4{opacity:0.55;fill:#FFFFFF;}
	.st5{opacity:0.85;fill:#FFFFFF;}
</style>
<g>
	<path class="st0" d="M40.6,72.8L24.6,82c-2.2,1.3-4.9-0.3-4.9-2.8V60.7c0-2.6,2.8-4.1,4.9-2.8l16,9.2
		C42.8,68.3,42.8,71.5,40.6,72.8z"/>
	<g>
		<g>
			<path class="st1" d="M148.4,65.8h-6.7c-4.1,0-5.9-0.6-6.7-1.1c-1.1-0.7-1.6-1.8-1.6-3.4v-6.3c0-2.2,0.7-3.6,2.2-4.5
				c1.1-0.7,3.7-1.4,10.1-1.4c3.6,0,8.5,0.5,14.8,1.5l1.1,0.2v-8.4l-0.9-0.1c-5.6-0.6-10.4-0.9-14.5-0.9c-8.6,0-14.5,1.1-17.8,3.4
				c-3.4,2.3-5.1,5.9-5.1,10.6v4.4c0,4.6,1.2,8.3,3.6,10.7c2.4,2.5,6.5,3.7,12.4,3.7h6.5c4,0,5.9,0.7,6.7,1.3
				c1.1,0.8,1.6,2.2,1.6,4.2v7.2c0,2.3-0.8,3.7-2.6,4.4c-2,0.8-4.8,1.3-8.7,1.3c-4.8,0-10.6-0.7-17.3-2.2l-1.2-0.3v9l0.9,0.1
				c6.8,0.9,12.5,1.4,17.1,1.4c7.3,0,12.8-1.2,16.3-3.6c3.6-2.4,5.5-6.9,5.5-13.1v-4c0-4.8-1.1-8.3-3.4-10.6
				C158.6,66.9,154.5,65.8,148.4,65.8z"/>
			<path class="st1" d="M209.3,59L209.3,59c-2.7-2.5-7.1-3.7-12.8-3.7c-6.5,0-11,0.9-13.2,3v-2.1h-9.6v61.3h9.7v-19
				c0.7,0.5,1.7,0.9,2.9,1.2c2.2,0.6,4.6,0.9,6.9,0.9c2.3,0,4.3-0.1,5.9-0.2c1.7-0.1,3.4-0.5,5.4-1.1c2-0.6,3.6-1.5,4.8-2.6
				c1.2-1.1,2.2-2.6,3-4.6c0.8-2,1.2-4.2,1.2-6.9V68.1C213.5,64.6,212.1,61.5,209.3,59z M203.6,70.8v15.3c0,3.1-0.7,5.1-2,5.9
				c-1.5,0.9-4.2,1.3-8.3,1.3c-4,0-6.7-0.5-8.1-1.3c-1.3-0.8-1.9-2.8-1.9-5.9V70.8c0-3.5,0.6-5.7,1.8-6.6c0.9-0.6,3.1-1.3,8.1-1.3
				c4,0,6.8,0.5,8.3,1.4C202.9,65.2,203.6,67.3,203.6,70.8z"/>
			<rect x="223.3" y="56.2" class="st1" width="9.7" height="43.5"/>
			<rect x="223.3" y="41.2" class="st1" width="9.7" height="10"/>
			<path class="st1" d="M255.9,57.8c-0.9,0.5-1.6,1.1-2.2,1.7v-3.4h-9.3v43.5h9.7V69.4c0-2.2,0.7-3.6,2-4.3c1.5-0.8,4-1.3,7.4-1.3
				h5.2v-8.5H264C261.3,55.3,258.6,56.2,255.9,57.8z"/>
			<path class="st1" d="M310.7,80.6V70.5c0-5.6-1.5-9.5-4.6-11.8c-3-2.2-7.6-3.4-13.8-3.4c-6.6,0-11.5,1.1-14.6,3.4
				c-3.2,2.4-4.8,6.3-4.8,11.7v16.4c0,9.1,6.7,13.7,20,13.7c4.9,0,10-0.6,15.2-1.7l0.7-0.2v-8l-1.2,0.3c-5.2,1.3-9.9,2-13.7,2
				c-3.8,0-6.8-0.6-8.7-1.7c-1.7-1.1-2.6-2.8-2.6-5.4v-5.2L310.7,80.6L310.7,80.6z M291.9,62.4c3.4,0,5.9,0.4,7.2,1.3
				c1.2,0.7,1.8,2.2,1.8,4.4v5.5h-18.2v-5.5c0-2.2,0.7-3.6,2-4.4C286.3,62.9,288.7,62.4,291.9,62.4z"/>
		</g>
	</g>
	<path class="st2" d="M49.6,44.8v12.4c0,2.6-2.8,4.1-4.9,2.8l-10.8-6.3c-2.2-1.3-2.2-4.4,0-5.7l10.8-6.3
		C46.8,40.7,49.6,42.2,49.6,44.8z"/>
	<path class="st3" d="M87.8,100.1l-25.2,14.6c-2.2,1.3-4.9-0.3-4.9-2.8V82.7c0-2.6,2.8-4.1,4.9-2.8l25.2,14.6
		C90,95.6,90,98.8,87.8,100.1z"/>
	<path class="st4" d="M23.5,91.9l21-12.2c2.2-1.3,4.9,0.3,4.9,2.8v24.3c0,2.6-2.8,4.1-4.9,2.8l-21-12.2
		C21.4,96.4,21.4,93.2,23.5,91.9z"/>
	<path class="st1" d="M95.5,41.1l-32.9,19c-2.2,1.3-4.9-0.3-4.9-2.8v-38c0-2.6,2.8-4.1,4.9-2.8l32.9,19
		C97.6,36.7,97.6,39.8,95.5,41.1z"/>
	<path class="st5" d="M100.8,53.1v33.8c0,2.6-2.8,4.1-4.9,2.8L66.6,72.8c-2.2-1.3-2.2-4.4,0-5.7l29.3-16.9
		C98,49,100.8,50.5,100.8,53.1z"/>
</g>
</svg>
