<?xml version="1.0" encoding="utf-8"?>
<!-- Generator: Adobe Illustrator 22.1.0, SVG Export Plug-In . SVG Version: 6.00 Build 0)  -->
<svg version="1.1" id="Layer_1" xmlns="http://www.w3.org/2000/svg" xmlns:xlink="http://www.w3.org/1999/xlink" x="0px" y="0px"
	 viewBox="0 0 100 100" style="enable-background:new 0 0 100 100;" xml:space="preserve">
<style type="text/css">
	.st0{fill:#FFFFFF;}
</style>
<g>
	<circle class="st0" cx="69.1" cy="59.1" r="12.5"/>
	<g>
		<path class="st0" d="M92.6,67.9c-0.1,0.3-0.3,0.7-0.4,1c-1.8,4.3-4.7,7.7-8.2,10.2l8.4,20.9h1.4c3.5,0,6.2-2.8,6.2-6.2V82.9
			C100,77.2,97.8,71.9,92.6,67.9z"/>
		<path class="st0" d="M72.4,83.8c-4.3,0.6-8.7,0.1-13-1.7C46.6,76.7,40.7,62,46.1,49.3c5.4-12.7,20.1-18.6,32.8-13.2
			c0.3,0.1,0.5,0.2,0.8,0.3c0.1-0.2,0.2-0.4,0.2-0.6c0.9-3.5,0.9-6.8-2-6.7c-0.2,0-0.4,0-0.5,0.1c0-0.6,0.1-1.2,0.1-1.7
			C77.4,12.3,65.2,0,50,0C34.8,0,22.6,12.3,22.6,27.4c0,0.5,0,1.1,0.1,1.7c-0.2,0-0.3-0.1-0.5-0.1c-2.9-0.1-2.9,3.2-2,6.7
			c0.4,1.7,2,2.6,3.6,3c0.7,0.2,1.2,0.7,1.5,1.3c2.4,5.9,6.3,11.3,11.1,15c1.4,1.1,1,3.3-0.7,3.8c-4,1.2-8.6,2.4-13.2,3.2
			C6,64.9,0,73.4,0,82.9v10.8c0,3.5,2.8,6.2,6.2,6.2H50h28.9L72.4,83.8z"/>
	</g>
</g>
</svg>
