<?xml version="1.0" encoding="utf-8"?>
<!-- Generator: Adobe Illustrator 22.1.0, SVG Export Plug-In . SVG Version: 6.00 Build 0)  -->
<svg version="1.1" id="Layer_1" xmlns="http://www.w3.org/2000/svg" xmlns:xlink="http://www.w3.org/1999/xlink" x="0px" y="0px"
	 viewBox="0 0 100 100" style="enable-background:new 0 0 100 100;" xml:space="preserve">
<style type="text/css">
	.st0{fill:#FFFFFF;}
</style>
<g>
	<path class="st0" d="M94,69.2c-1,10.5-8.6,19.7-19.5,22.1c-5,1.1-9.9,0.6-14.3-1.1l-6.3,9.8H95c2.8,0,5-2.2,5-5V82.9
		C100,77.8,98.2,73,94,69.2z"/>
	<path class="st0" d="M51.8,84.7c-3.4-3.3-5.9-7.6-7-12.6C41.9,58.7,50.5,45.4,64,42.4c3.3-0.7,6.6-0.7,9.8-0.2
		c0.3-0.7,0.7-1.4,1-2.1c0.3-0.6,0.8-1.1,1.5-1.3c1.6-0.4,3.2-1.3,3.6-3c0.9-3.5,0.9-6.8-2-6.7c-0.2,0-0.4,0.1-0.5,0.1
		c0-0.6,0.1-1.2,0.1-1.7C77.4,12.3,65.2,0,50,0C34.8,0,22.6,12.3,22.6,27.4c0,0.5,0.1,1.1,0.1,1.7c-0.2,0-0.3-0.1-0.5-0.1
		c-2.9-0.1-2.9,3.2-2,6.7c0.4,1.7,2,2.6,3.6,3c0.7,0.2,1.2,0.7,1.5,1.3c2.4,5.9,6.2,11.3,11,15c1.4,1.1,1.1,3.3-0.6,3.8
		c-4,1.2-8.6,2.4-13.3,3.2C6,64.9,0,73.4,0,82.9V95c0,2.8,2.2,5,5,5h37L51.8,84.7z"/>
	<circle class="st0" cx="69.3" cy="66.9" r="15"/>
</g>
</svg>
