<?xml version="1.0" encoding="utf-8"?>
<!-- Generator: Adobe Illustrator 22.0.1, SVG Export Plug-In . SVG Version: 6.00 Build 0)  -->
<svg version="1.1" id="Layer_1" xmlns="http://www.w3.org/2000/svg" xmlns:xlink="http://www.w3.org/1999/xlink" x="0px" y="0px"
	 viewBox="0 0 100 100" style="enable-background:new 0 0 100 100;" xml:space="preserve">
<style type="text/css">
	.st0{fill:#FFFFFF;}
</style>
<g>
	<polygon class="st0" points="53.1,46.9 53.1,28.1 46.9,28.1 46.9,46.9 46.9,53.1 53.1,53.1 65.6,53.1 65.6,46.9 	"/>
	<path class="st0" d="M50,0C40,0,30.7,3,22.9,8L17,0L8.4,27.2l28.5-0.3l-6.5-8.8c5.7-3.5,12.4-5.6,19.6-5.6
		c20.7,0,37.5,16.8,37.5,37.5S70.7,87.5,50,87.5S12.5,70.7,12.5,50H0c0,27.6,22.4,50,50,50s50-22.4,50-50S77.6,0,50,0z"/>
</g>
</svg>
