<?xml version="1.0" encoding="utf-8"?>
<!-- Generator: Adobe Illustrator 22.1.0, SVG Export Plug-In . SVG Version: 6.00 Build 0)  -->
<svg version="1.1" id="Layer_1" xmlns="http://www.w3.org/2000/svg" xmlns:xlink="http://www.w3.org/1999/xlink" x="0px" y="0px"
	 viewBox="0 0 100 100" style="enable-background:new 0 0 100 100;" xml:space="preserve">
<style type="text/css">
	.st0{fill:#FFFFFF;}
</style>
<g>
	<polygon class="st0" points="60,43.4 60,20 50,20 50,50 69,57.9 72.8,48.7 	"/>
	<path class="st0" d="M55,0C30.1,0,10,20.1,10,45v10H0l15,20l15-20H20V45c0-19.3,15.7-35,35-35s35,15.7,35,35c0,19.3-15.7,35-35,35
		c-7.7,0-14.8-2.5-20.6-6.7l-5.9,8.1C36,86.8,45.1,90,55,90c24.9,0,45-20.1,45-45C100,20.1,79.9,0,55,0z"/>
	<circle class="st0" cx="15.1" cy="95" r="5"/>
</g>
</svg>
