<?xml version="1.0" encoding="utf-8"?>
<!-- Generator: Adobe Illustrator 24.1.3, SVG Export Plug-In . SVG Version: 6.00 Build 0)  -->
<svg version="1.1" id="Layer_1" xmlns="http://www.w3.org/2000/svg" xmlns:xlink="http://www.w3.org/1999/xlink" x="0px" y="0px"
	 viewBox="0 0 38 46" style="enable-background:new 0 0 38 46;" xml:space="preserve">
<style type="text/css">
	.st0{fill:#684BC7;}
</style>
<g>
	<path class="st0" d="M30,9h8l-9-9v8C29,8.55,29.45,9,30,9z"/>
	<path class="st0" d="M27,9V0H2C0.9,0,0,0.9,0,2v42c0,1.1,0.9,2,2,2h34c1.1,0,2-0.9,2-2V11h-9C27.9,11,27,10.1,27,9z M10,19.08
		l1.41-1.41l1.83,1.83l1.83-1.83l1.41,1.41l-1.83,1.83l1.83,1.83l-1.41,1.41l-1.83-1.83l-1.83,1.83L10,22.74l1.83-1.83L10,19.08z
		 M25.71,35.45c-1.86-1.43-4.18-2.29-6.71-2.29s-4.85,0.86-6.71,2.29l-1.43-1.43c2.23-1.79,5.05-2.87,8.13-2.87s5.91,1.08,8.13,2.87
		L25.71,35.45z M28,22.74l-1.41,1.41l-1.83-1.83l-1.83,1.83l-1.41-1.41l1.83-1.83l-1.83-1.83l1.41-1.41l1.83,1.83l1.83-1.83
		L28,19.08l-1.83,1.83L28,22.74z"/>
</g>
</svg>
