<?xml version="1.0" standalone="no"?>
<!DOCTYPE svg PUBLIC "-//W3C//DTD SVG 20010904//EN"
        "http://www.w3.org/TR/2001/REC-SVG-20010904/DTD/svg10.dtd">
<svg version="1.0" xmlns="http://www.w3.org/2000/svg"
     width="260.000000pt" height="260.000000pt" viewBox="0 0 260.000000 260.000000"
     preserveAspectRatio="xMidYMid meet">
    <metadata>
        Created by potrace 1.11, written by Peter Selinger 2001-2013
    </metadata>
    <g transform="translate(0.000000,260.000000) scale(0.100000,-0.100000)"
       fill="#000000" stroke="none">
        <path d="M1283 2589 c-54 -20 -54 -11 -51 -589 l3 -532 24 -19 c49 -40 67 -32
473 202 525 302 515 296 523 316 25 60 7 95 -74 143 -100 58 -430 249 -481
278 -25 14 -113 65 -197 113 -157 92 -183 102 -220 88z"/>
        <path d="M752 1837 c-183 -104 -205 -127 -179 -189 12 -27 41 -49 172 -125
175 -103 207 -112 250 -68 16 15 25 36 26 57 1 46 1 319 0 340 -2 29 -45 70
-77 74 -24 2 -66 -17 -192 -89z"/>
        <path d="M2056 1599 c-103 -60 -207 -120 -230 -133 -22 -13 -97 -56 -166 -96
-69 -40 -141 -81 -160 -92 -73 -41 -90 -75 -66 -130 11 -28 48 -53 247 -167
129 -74 287 -165 352 -203 173 -102 223 -128 242 -128 31 0 75 30 81 57 5 20
9 818 5 931 -1 33 -48 72 -85 71 -21 0 -94 -37 -220 -110z"/>
        <path d="M278 1494 c-15 -8 -31 -27 -35 -42 -3 -15 -6 -143 -6 -284 0 -289 3
-301 68 -314 31 -6 50 2 168 70 322 185 341 198 351 239 14 56 -7 76 -194 184
-312 180 -301 175 -352 147z"/>
        <path d="M895 926 c-16 -7 -76 -41 -133 -75 -57 -33 -105 -61 -107 -61 -3 0
-37 -20 -77 -43 -40 -24 -117 -69 -170 -101 -109 -64 -125 -87 -105 -148 8
-26 71 -66 317 -205 19 -11 91 -53 158 -92 68 -40 136 -73 151 -73 37 -1 70
18 81 48 6 14 10 174 10 364 0 337 0 339 -22 364 -29 32 -65 39 -103 22z"/>
        <path d="M1255 904 l-25 -27 0 -414 0 -414 26 -24 c47 -43 74 -37 229 55 44
26 187 109 318 185 169 97 242 145 251 164 17 31 11 74 -13 94 -17 15 -239
147 -247 147 -3 0 -30 16 -60 35 -30 19 -56 35 -58 35 -2 0 -77 43 -166 95
-182 106 -213 115 -255 69z"/>
    </g>
</svg>
