<svg id="filters" xmlns="http://www.w3.org/2000/svg" xmlns:xlink="http://www.w3.org/1999/xlink" width="20" height="20" viewBox="0 0 20 20">
  <defs>
    <clipPath id="clip-path">
      <rect id="Rectangle_53" data-name="Rectangle 53" width="20" height="20" fill="#fff"/>
    </clipPath>
  </defs>
  <g id="filters-2" data-name="filters" clip-path="url(#clip-path)">
    <path id="Path_145" data-name="Path 145" d="M17.3,3.12a4.36,4.36,0,0,0-8.36,0H0v2.5H8.96a4.36,4.36,0,0,0,8.36,0H20V3.12Zm-4.18,2.5a1.24,1.24,0,0,1,0-2.48,1.246,1.246,0,0,1,1.24,1.24A1.221,1.221,0,0,1,13.12,5.62Z" fill="#684bc7"/>
    <path id="Path_146" data-name="Path 146" d="M2.7,16.88a4.36,4.36,0,0,0,8.36,0H20v-2.5H11.04a4.36,4.36,0,0,0-8.36,0H0v2.5Zm4.18-2.5a1.24,1.24,0,0,1,0,2.48,1.246,1.246,0,0,1-1.24-1.24A1.221,1.221,0,0,1,6.88,14.38Z" fill="#684bc7"/>
  </g>
</svg>
