<?xml version="1.0" encoding="utf-8"?>
<!-- Generator: Adobe Illustrator 22.1.0, SVG Export Plug-In . SVG Version: 6.00 Build 0)  -->
<svg version="1.1" id="Layer_1" xmlns="http://www.w3.org/2000/svg" xmlns:xlink="http://www.w3.org/1999/xlink" x="0px" y="0px"
	 viewBox="0 0 100 100" style="enable-background:new 0 0 100 100;" xml:space="preserve">
<style type="text/css">
	.st0{fill:#FFFFFF;}
</style>
<path class="st0" d="M77.7,62.1c-4.7-0.8-9.2-2-13.3-3.2c-1.7-0.5-2.1-2.7-0.6-3.8c4.8-3.7,8.6-9.1,11-14.9c0.3-0.6,0.8-1.1,1.5-1.3
	c1.6-0.4,3.2-1.3,3.6-3c0.9-3.5,0.9-6.8-2-6.7c-0.2,0-0.4,0-0.5,0.1c0-0.6,0.1-1.2,0.1-1.7C77.4,12.3,65.2,0,50,0
	S22.6,12.3,22.6,27.4c0,0.5,0,1.1,0.1,1.7c-0.2,0-0.3-0.1-0.5-0.1c-2.9-0.1-2.9,3.2-2,6.7c0.4,1.7,2,2.6,3.6,3
	c0.7,0.2,1.2,0.7,1.5,1.3c2.4,5.9,6.2,11.3,11,15c1.4,1.1,1.1,3.3-0.6,3.8c-4,1.2-8.6,2.4-13.3,3.2C6,64.9,0,73.4,0,82.9V95
	c0,2.8,2.2,5,5,5h45h45c2.8,0,5-2.2,5-5V82.9C100,73.4,94,64.9,77.7,62.1z"/>
</svg>
