<?xml version="1.0" encoding="utf-8"?>
<!-- Generator: Adobe Illustrator 24.2.0, SVG Export Plug-In . SVG Version: 6.00 Build 0)  -->
<svg version="1.1" id="Layer_1" xmlns="http://www.w3.org/2000/svg" xmlns:xlink="http://www.w3.org/1999/xlink" x="0px" y="0px"
	 viewBox="0 0 26 26" style="enable-background:new 0 0 26 26;" xml:space="preserve">
<style type="text/css">
	.st0{fill:#C8C8C8;}
</style>
<g>
	<rect class="st0" width="26" height="26"/>
	<g>
		<path d="M9,18V8h3.8c1.3,0,2.2,0.2,2.9,0.7c0.7,0.5,1,1.1,1,2c0,0.5-0.1,0.9-0.4,1.2s-0.7,0.7-1.2,0.9c0.6,0.1,1.1,0.4,1.4,0.8
			c0.3,0.4,0.5,0.9,0.5,1.5c0,0.9-0.3,1.7-1,2.2c-0.7,0.5-1.6,0.8-2.9,0.8H9z M10.9,12.2h1.9c0.6,0,1.1-0.1,1.4-0.4
			c0.3-0.2,0.5-0.6,0.5-1c0-0.5-0.2-0.9-0.5-1.1c-0.3-0.2-0.8-0.3-1.5-0.3h-1.9V12.2z M10.9,13.5v3.1h2.2c0.6,0,1.1-0.1,1.4-0.4
			c0.3-0.3,0.5-0.6,0.5-1.1c0-1-0.6-1.6-1.8-1.6H10.9z"/>
	</g>
</g>
</svg>
