<?xml version="1.0" encoding="utf-8"?>
<!-- Generator: Adobe Illustrator 24.2.0, SVG Export Plug-In . SVG Version: 6.00 Build 0)  -->
<svg version="1.1" id="Layer_1" xmlns="http://www.w3.org/2000/svg" xmlns:xlink="http://www.w3.org/1999/xlink" x="0px" y="0px"
	 viewBox="0 0 26 26" style="enable-background:new 0 0 26 26;" xml:space="preserve">
<style type="text/css">
	.st0{fill:#4B23A0;}
	.st1{fill:#FFFFFF;}
</style>
<g>
	<rect class="st0" width="26" height="26"/>
	<g>
		<rect x="9" y="17" class="st1" width="8" height="1"/>
		<g>
			<path class="st1" d="M16,8v5.2c0,0.8-0.2,1.5-0.7,2c-0.5,0.5-1.1,0.8-2,0.9L13,16c-0.9,0-1.6-0.3-2.2-0.8S10,14,10,13.2V8h1.1
				v5.1c0,0.6,0.2,1.1,0.5,1.4S12.4,15,13,15c0.6,0,1.1-0.1,1.4-0.4s0.5-0.8,0.5-1.4V8H16z"/>
		</g>
	</g>
</g>
</svg>
