<?xml version="1.0" standalone="no"?>
<!DOCTYPE svg PUBLIC "-//W3C//DTD SVG 1.1//EN" "http://www.w3.org/Graphics/SVG/1.1/DTD/svg11.dtd" >
<svg xmlns="http://www.w3.org/2000/svg">
<metadata>Generated by IcoMoon</metadata>
<defs>
<font id="spireicons" horiz-adv-x="1024">
<font-face units-per-em="1024" ascent="960" descent="-64" />
<missing-glyph horiz-adv-x="1024" />
<glyph unicode="&#x20;" horiz-adv-x="512" d="" />
<glyph unicode="&#x27;" glyph-name="arrow-icon-up" d="M919.552 13.824h-815.104c-81.92 0-133.12 90.112-88.064 161.792l407.552 653.312c40.96 65.536 137.216 65.536 178.176 0l407.552-653.312c40.96-71.68-8.192-161.792-90.112-161.792z" />
<glyph unicode="&#x2d;" glyph-name="column" d="M274.432 750.080h205.824c5.632 0 10.24-4.608 10.24-10.24v-793.6c0-5.632-4.608-10.24-10.24-10.24h-205.824c-5.632 0-10.24 4.608-10.24 10.24v793.6c0 5.632 4.608 10.24 10.24 10.24zM803.328 739.84v-793.6c0-5.632 4.608-10.24 10.24-10.24h108.032c56.32 0 102.4 46.080 102.4 102.4v701.44c0 5.632-4.608 10.24-10.24 10.24h-200.192c-5.632 0-10.24-4.608-10.24-10.24zM813.568 793.6h210.432v64c0 56.32-46.080 102.4-102.4 102.4h-108.032c-5.632 0-10.24-4.608-10.24-10.24v-145.92c0-5.632 4.608-10.24 10.24-10.24zM543.744 750.080h205.824c5.632 0 10.24-4.608 10.24-10.24v-793.6c0-5.632-4.608-10.24-10.24-10.24h-205.824c-5.632 0-10.24 4.608-10.24 10.24v793.6c0 5.632 4.608 10.24 10.24 10.24zM274.432 960h205.824c5.632 0 10.24-4.608 10.24-10.24v-145.92c0-5.632-4.608-10.24-10.24-10.24h-205.824c-5.632 0-10.24 4.608-10.24 10.24v145.92c0 5.632 4.608 10.24 10.24 10.24zM210.432 750.080h-200.192c-5.632 0-10.24-4.608-10.24-10.24v-701.44c0-56.32 46.080-102.4 102.4-102.4h108.032c5.632 0 10.24 4.608 10.24 10.24v793.6c0 5.632-4.608 10.24-10.24 10.24zM543.744 960h205.824c5.632 0 10.24-4.608 10.24-10.24v-145.92c0-5.632-4.608-10.24-10.24-10.24h-205.824c-5.632 0-10.24 4.608-10.24 10.24v145.92c0 5.632 4.608 10.24 10.24 10.24zM220.672 803.84v145.92c0 5.632-4.608 10.24-10.24 10.24h-108.032c-56.32 0-102.4-46.080-102.4-102.4v-53.76c0-5.632 4.608-10.24 10.24-10.24h200.192c5.632 0 10.24 4.608 10.24 10.24z" />
<glyph unicode="&#x2f;" glyph-name="arrow-icon-down" d="M104.448 880.128h813.056c81.92 0 133.12-90.112 88.064-161.792l-405.504-653.312c-40.96-65.536-137.216-65.536-178.176 0l-405.504 653.312c-43.008 71.68 6.144 161.792 88.064 161.792z" />
<glyph unicode="&#x30;" glyph-name="currency" d="M531.456 952.32c-241.664 41.984-475.648-144.896-522.752-417.28s110.592-526.848 351.744-568.832c241.664-41.984 475.648 144.896 522.752 417.28s-110.080 526.848-351.744 568.832zM527.36 258.56c-19.968-16.896-43.52-28.16-71.168-33.28-8.704-1.536-15.36-8.192-16.896-16.384l-9.728-57.344c-2.048-10.752-12.288-18.432-23.552-16.384l-44.032 7.68c-11.264 2.048-18.432 12.288-16.384 23.552l8.704 49.664c1.536 9.728-4.096 18.944-13.312 22.528-10.752 4.096-21.504 8.704-31.744 13.312-9.216 4.608-17.92 9.216-26.112 13.824-8.704 5.12-11.776 15.872-8.192 25.088 5.632 12.8 12.8 31.232 17.92 43.008 2.56 6.144 9.728 8.192 14.848 4.608 11.264-7.168 23.040-13.824 35.84-18.944 16.896-7.168 35.84-12.8 56.32-16.384 19.456-3.584 36.352-1.536 50.688 4.608 14.336 6.656 23.040 18.944 26.112 37.376 3.072 16.896-0.512 31.744-11.264 44.544-10.24 12.288-26.112 26.624-47.616 42.496-17.408 12.288-32.256 24.576-44.544 36.352-12.8 11.776-22.528 24.064-30.208 36.864-7.68 12.288-12.288 26.112-14.848 40.448s-2.048 30.208 1.024 47.616c6.144 34.304 19.456 59.392 40.448 75.776 17.408 13.824 37.888 22.528 60.928 25.6 8.704 1.024 15.36 8.192 16.896 16.896l9.728 56.832c2.048 10.752 12.288 18.432 23.552 16.384l44.032-7.68c11.264-2.048 18.432-12.288 16.384-23.552l-8.704-49.664c-1.536-9.728 4.096-19.456 13.312-22.528 8.704-3.072 17.408-6.656 25.6-10.752 8.704-4.608 16.896-9.216 24.576-14.336 8.192-5.12 11.264-15.36 7.68-24.576l-13.312-33.792c-4.608-11.776-18.432-15.872-29.184-9.728-8.704 5.12-17.408 9.728-26.112 13.312-14.848 6.656-30.208 11.264-46.080 14.336-38.912 6.656-61.44-5.12-66.56-35.84-1.536-7.68-1.024-14.336 1.024-20.48s5.12-12.288 9.728-17.92c4.608-6.144 10.752-12.288 17.92-18.432 7.168-6.656 15.872-13.312 26.112-20.992 9.728-8.192 20.992-17.408 33.792-27.136 12.288-10.24 23.552-22.016 33.792-35.328s17.92-28.16 23.552-44.544 6.656-34.816 3.072-54.784c-6.144-34.816-20.992-61.952-44.032-81.92zM853.504 845.824c-27.648 23.040-73.216 45.056-122.368 62.464-5.632 2.048-9.728-5.632-4.608-9.216 84.992-56.32 264.192-215.040 209.92-527.36-54.272-311.808-275.968-401.408-375.296-425.984-5.632-1.536-4.608-10.24 1.024-10.24 52.224 0 102.4 5.632 136.192 17.408 194.56 74.24 287.232 241.664 315.392 404.48s-2.048 353.792-160.256 488.448z" />
<glyph unicode="&#x31;" glyph-name="arrow-left" d="M870.4 17.92l-563.2 430.080 563.2 430.080-61.44 81.92-655.36-512 655.36-512z" />
<glyph unicode="&#x32;" glyph-name="arrow-down" d="M942.080 806.4l-430.080-563.2-430.080 563.2-81.92-61.44 512-655.36 512 655.36z" />
<glyph unicode="&#x33;" glyph-name="add" d="M873.984 809.984c-199.68 200.192-524.288 200.192-723.968 0s-200.192-524.288 0-723.968c200.192-200.192 524.288-200.192 723.968 0s200.192 524.288 0 723.968zM539.648 105.472h-54.784v314.88h-314.88v55.296h314.88v314.88h54.784v-314.88h314.88v-54.784h-314.88v-315.392z" />
<glyph unicode="&#x34;" glyph-name="remove" d="M512 960c-282.624 0-512-229.376-512-512s229.376-512 512-512c282.624 0 512 229.376 512 512s-229.376 512-512 512zM773.632 225.28l-38.912-38.912-222.72 222.72-222.72-222.72-38.912 38.912 222.72 222.72-222.72 222.72 38.912 38.912 222.72-222.72 222.72 222.72 38.912-38.912-222.72-222.72 222.72-222.72z" />
<glyph unicode="&#x35;" glyph-name="photo" d="M977.92 704h-189.44v51.2c0 20.48-20.48 46.080-46.080 46.080h-460.8c-20.48 0-40.96-25.6-40.96-46.080v-51.2h-194.56c-25.6 0-46.080-20.48-46.080-46.080v-532.48c0-20.48 20.48-46.080 46.080-46.080h936.96c20.48 0 46.080 20.48 46.080 46.080v532.48c-5.12 25.6-25.6 46.080-51.2 46.080zM512 238.080c-107.52 0-199.68 87.040-199.68 199.68 0 107.52 87.040 199.68 199.68 199.68s199.68-87.040 199.68-199.68c0-112.64-92.16-199.68-199.68-199.68z" />
<glyph unicode="&#x36;" glyph-name="edit" d="M120.32 226.304l169.984-169.984c13.824-13.824 7.68-36.864-10.24-42.496l-240.64-75.776c-23.040-7.168-44.544 14.336-37.376 37.376l75.776 240.128c5.632 18.432 28.672 24.064 42.496 10.752zM335.872 101.376l-170.496 170.496c-10.24 10.24-10.24 26.112 0 36.352l620.032 620.032c39.936 39.936 104.96 39.936 144.896 0l61.952-61.952c39.936-39.936 39.936-104.96 0-144.896l-620.032-620.032c-10.24-10.24-26.112-10.24-36.352 0z" />
<glyph unicode="&#x37;" glyph-name="dot" d="M1024 448c0-282.77-229.23-512-512-512s-512 229.23-512 512c0 282.77 229.23 512 512 512s512-229.23 512-512z" />
<glyph unicode="&#x38;" glyph-name="calender" d="M0 48.64c0-62.464 50.176-112.64 112.64-112.64h798.72c61.952 0 112.64 50.688 112.64 112.64 0 0 0.512 663.552 0 663.552l-1023.488-0.512c-0.512 0-0.512-663.040-0.512-663.040zM387.584 105.472h-80.896c-0.512 0-1.024 0.512-1.024 1.024v386.56c0 0.512-0.512 1.024-1.024 1.024h-80.384c-0.512 0-1.024 0.512-1.024 1.024v68.608c0 0.512 0.512 1.024 1.024 1.024h163.328c0.512 0 1.024-0.512 1.024-1.024v-457.216c0-0.512-0.512-1.024-1.024-1.024zM800.256 498.176l-191.488-392.192c0-0.512-0.512-0.512-0.512-0.512h-83.968c-0.512 0-1.024 0.512-0.512 1.024l189.952 386.048c0.512 0.512 0 1.024-0.512 1.024h-158.72c-0.512 0-1.024-0.512-1.024-1.024v-57.344c0-0.512-0.512-1.024-1.024-1.024h-69.12c-0.512 0-1.024 0.512-1.024 1.024v128c0 0.512 0.512 1.024 1.024 1.024h315.904c0.512 0 1.024-0.512 1.024-1.024v-65.024c0 0 0 0 0 0zM911.36 960h-798.72c-62.464 0-112.64-50.176-112.64-112.64v-99.84h1024v99.84c0 62.464-50.688 112.64-112.64 112.64zM373.76 822.272c-22.016-24.064-60.416-19.456-75.776 9.216-9.216 17.408-6.656 39.424 6.656 53.76 22.016 24.064 60.416 19.456 75.776-9.216 9.216-17.408 6.656-38.912-6.656-53.76zM719.36 822.272c-22.016-24.064-60.416-19.456-75.776 9.216-9.216 17.408-6.656 39.424 6.656 53.76 22.016 24.064 60.416 19.456 75.776-9.216 9.216-17.408 6.656-39.424-6.656-53.76z" />
<glyph unicode="&#x39;" glyph-name="market" d="M846.336 934.4c0 14.336-11.264 25.6-25.6 25.6h-618.496c-14.336 0-25.6-11.264-25.6-25.6v-38.912h669.696v38.912zM845.824 859.136h-668.672l-175.104-250.368c-1.536-1.536-2.048-3.584-2.048-6.144 1.536-44.032 37.888-78.848 82.432-78.848 25.6 0 48.64 11.776 63.488 30.208 4.096 5.12 11.776 5.12 15.872 0 15.36-18.432 37.888-29.696 63.488-29.696s48.64 11.776 63.488 30.208c4.096 5.12 11.776 5.12 15.872 0 15.36-18.432 37.888-29.696 63.488-29.696s48.64 11.776 63.488 30.208c4.096 5.12 11.776 5.12 15.872 0 15.36-18.432 37.888-29.696 63.488-29.696s48.64 11.776 63.488 30.208c4.096 5.12 11.776 5.12 15.872 0 15.36-18.432 37.888-29.696 63.488-29.696s48.64 11.776 63.488 30.208c4.096 5.12 11.776 5.12 15.872 0 15.36-18.432 37.888-29.696 63.488-29.696s48.64 11.776 63.488 30.208c4.096 5.12 11.776 5.12 15.872 0 15.36-18.432 37.888-29.696 63.488-29.696 44.544 0 80.384 34.816 82.432 78.848 0 2.048-0.512 4.608-2.048 6.144l-174.080 247.296zM772.096 465.408v-189.44c0-5.632-4.608-10.24-10.24-10.24h-500.736c-5.632 0-10.24 4.608-10.24 10.24v189.44c0 3.072-3.072 5.632-6.144 5.12-6.656-1.536-13.312-2.048-20.48-2.048-17.408 0-33.792 4.608-48.128 12.288-3.584 2.048-7.68-0.512-7.68-4.608v-488.96c0-28.16 23.040-51.2 51.2-51.2h583.68c28.16 0 51.2 23.040 51.2 51.2v488.448c0 4.096-4.096 6.144-7.68 4.608-14.848-8.192-31.232-12.288-48.128-12.288-7.168 0.512-13.824 1.024-20.48 2.56-3.072 0.512-6.144-2.048-6.144-5.12z" />
<glyph unicode="&#x3b;" glyph-name="request-rejected" d="M521.728 960c-290.304 5.12-526.848-231.424-521.728-521.728 5.12-273.92 228.352-497.152 502.272-502.272 290.304-5.12 526.848 231.424 521.728 521.728-5.12 273.92-228.352 497.152-502.272 502.272zM822.272 197.632l-59.904-59.904c-4.096-4.096-10.24-4.096-14.336 0l-228.864 228.864c-4.096 4.096-10.24 4.096-14.336 0l-228.864-228.864c-4.096-4.096-10.24-4.096-14.336 0l-59.904 59.904c-4.096 4.096-4.096 10.24 0 14.336l228.864 228.864c4.096 4.096 4.096 10.24 0 14.336l-228.864 228.864c-4.096 4.096-4.096 10.24 0 14.336l59.904 59.904c4.096 4.096 10.24 4.096 14.336 0l228.864-228.864c4.096-4.096 10.24-4.096 14.336 0l228.864 228.864c4.096 4.096 10.24 4.096 14.336 0l59.904-59.904c4.096-4.096 4.096-10.24 0-14.336l-228.864-228.864c-4.096-4.096-4.096-10.24 0-14.336l228.864-228.864c3.584-4.096 3.584-10.24 0-14.336z" />
<glyph unicode="&#x3d;" glyph-name="request-approved" d="M521.728 960c-290.304 5.12-526.848-231.424-521.728-521.728 5.12-273.92 228.352-497.152 502.272-502.272 290.304-5.12 526.848 231.424 521.728 521.728-5.12 273.92-228.352 497.152-502.272 502.272zM510.976 258.56l-58.88-58.88c-8.192-8.192-20.992-8.192-29.184 0l-59.392 58.88-222.208 223.232c-4.096 4.096-4.096 10.24 0 14.336l58.88 59.392c4.096 4.096 10.24 4.096 14.336 0l215.552-216.064c4.096-4.096 10.24-4.096 14.336 0l364.544 364.032c4.096 4.096 10.24 4.096 14.336 0l58.88-58.88c4.096-4.096 4.096-10.24 0-14.336l-371.2-371.712z" />
<glyph unicode="&#x49;" glyph-name="portfolio" d="M921.6 960h-819.2c-56.32 0-102.4-46.080-102.4-102.4v-819.2c0-56.32 46.080-102.4 102.4-102.4h819.2c56.32 0 102.4 46.080 102.4 102.4v819.2c0 56.32-46.080 102.4-102.4 102.4zM256 141.824c0-5.632-4.608-10.24-10.24-10.24h-92.16c-5.632 0-10.24 4.608-10.24 10.24v92.16c0 5.632 4.608 10.24 10.24 10.24h92.16c5.632 0 10.24-4.608 10.24-10.24v-92.16zM256 401.92c0-5.632-4.608-10.24-10.24-10.24h-92.16c-5.632 0-10.24 4.608-10.24 10.24v92.16c0 5.632 4.608 10.24 10.24 10.24h92.16c5.632 0 10.24-4.608 10.24-10.24v-92.16zM256 662.016c0-5.632-4.608-10.24-10.24-10.24h-92.16c-5.632 0-10.24 4.608-10.24 10.24v92.16c0 5.632 4.608 10.24 10.24 10.24h92.16c5.632 0 10.24-4.608 10.24-10.24v-92.16zM880.64 141.824c0-5.632-4.608-10.24-10.24-10.24h-512c-5.632 0-10.24 4.608-10.24 10.24v92.16c0 5.632 4.608 10.24 10.24 10.24h512c5.632 0 10.24-4.608 10.24-10.24v-92.16zM880.64 401.92c0-5.632-4.608-10.24-10.24-10.24h-512c-5.632 0-10.24 4.608-10.24 10.24v92.16c0 5.632 4.608 10.24 10.24 10.24h512c5.632 0 10.24-4.608 10.24-10.24v-92.16zM880.64 662.016c0-5.632-4.608-10.24-10.24-10.24h-512c-5.632 0-10.24 4.608-10.24 10.24v92.16c0 5.632 4.608 10.24 10.24 10.24h512c5.632 0 10.24-4.608 10.24-10.24v-92.16z" />
<glyph unicode="&#x5b;" glyph-name="double-arrow" d="M483.84 424.448l-229.376-174.080-26.112 27.648 224.256 169.984-224.256 169.984 26.112 27.648 229.376-174.080 31.232-24.064-31.232-23.040zM769.024 424.448l-229.376-174.080-26.112 27.648 224.256 169.984-224.256 169.984 26.112 27.648 229.376-174.080 31.232-24.064-31.232-23.040z" />
<glyph unicode="&#x5c;" glyph-name="request-sent" d="M742.4 326.144c-6.144 0.512-11.264-4.096-11.264-10.24v-260.608c0-12.288-9.216-22.016-20.992-22.016h-587.264c-11.776 0-20.992 9.728-20.992 22.016v785.408c0 12.288 9.216 22.016 20.992 22.016h331.776c7.168 0 13.312 3.584 16.896 9.216 17.408 26.112 37.888 49.152 60.928 69.632 7.168 6.144 2.56 17.92-6.656 17.92l-464.384 0.512c-33.792 0-61.44-27.648-61.44-61.44v-901.12c0-33.792 27.648-61.44 61.44-61.44h710.144c33.792 0 61.44 27.648 61.44 61.44v322.048c0 6.144-5.632 11.264-11.776 10.24-18.432-3.072-37.376-4.608-56.832-4.608-7.168 0-14.336 0.512-22.016 1.024zM405.504 734.208h-186.88c-5.632 0-10.24-4.608-10.24-10.24v-69.632c0-5.632 4.608-10.24 10.24-10.24h184.32c6.144 0 10.752 5.12 10.24 10.752-0.512 7.168-0.512 14.848-0.512 22.528 0 15.36 1.024 30.72 3.072 45.056 0.512 6.144-4.096 11.776-10.24 11.776zM208.384 570.368v-69.632c0-5.632 4.608-10.24 10.24-10.24h229.376c7.68 0 12.8 8.192 8.704 15.36-11.776 20.992-21.504 44.032-28.672 67.584-1.536 4.096-5.12 7.168-9.728 7.168h-199.68c-5.632 0-10.24-4.608-10.24-10.24zM208.384 417.28v-69.632c0-5.632 4.608-10.24 10.24-10.24h395.264c10.752 0 14.336 14.848 4.608 19.456-36.864 16.896-70.144 39.936-98.816 67.584-2.048 2.048-4.608 3.072-7.168 3.072h-293.888c-5.632 0-10.24-4.608-10.24-10.24zM495.104 274.432h-276.48c-5.632 0-10.24-4.608-10.24-10.24v-69.632c0-5.632 4.608-10.24 10.24-10.24h276.48c5.632 0 10.24 4.608 10.24 10.24v69.632c0 5.632-4.096 10.24-10.24 10.24zM764.416 582.144l-37.376-37.376-37.376 37.376-116.224 116.736 37.376 37.376 116.224-116.736 192 191.488 37.376-37.376-192-191.488zM764.928 936.96c-143.36 0-259.072-116.224-259.072-259.072s116.224-259.072 259.072-259.072 259.072 116.224 259.072 259.072-116.224 259.072-259.072 259.072z" />
<glyph unicode="&#x5d;" glyph-name="single-arrow" d="M655.36 424.448l-229.376-174.080-26.112 27.648 224.256 169.984-224.256 169.984 26.112 27.648 229.376-174.080 31.232-24.064-31.232-23.040z" />
<glyph unicode="&#x60;" glyph-name="notifications" d="M921.6 960h-819.2c-56.32 0-102.4-46.080-102.4-102.4v-819.2c0-56.32 46.080-102.4 102.4-102.4h819.2c56.32 0 102.4 46.080 102.4 102.4v819.2c0 56.32-46.080 102.4-102.4 102.4zM512 60.416c-49.664 0-89.6 39.936-89.6 89.6h179.712c-0.512-49.152-40.448-89.6-90.112-89.6zM806.4 207.36c0-5.632-4.608-10.24-10.24-10.24h-568.32c-5.632 0-10.24 4.608-10.24 10.24v16.896c0 33.792 16.896 65.536 44.544 84.992l3.584 2.56c4.608 3.072 7.168 8.192 7.168 13.824v215.552c0 113.152 78.848 207.872 184.32 232.448 4.608 1.024 8.192 5.12 8.192 10.24v5.12c0 26.624 22.528 48.128 49.664 46.592 25.088-1.536 43.52-23.552 43.52-48.128v-2.56c0-5.632 3.584-9.728 8.192-10.752 105.472-24.576 184.32-119.296 184.32-232.448v-215.552c0-5.632 2.56-10.752 7.168-13.824l3.584-2.56c28.16-18.944 44.544-50.688 44.544-84.992v-17.408z" />
<glyph unicode="&#x61;" glyph-name="trader" d="M921.6 960h-819.2c-56.32 0-102.4-46.080-102.4-102.4v-819.2c0-56.32 46.080-102.4 102.4-102.4h819.2c56.32 0 102.4 46.080 102.4 102.4v819.2c0 56.32-46.080 102.4-102.4 102.4zM835.584 269.312c-46.080-52.224-125.44-54.272-174.080-5.632-7.168 7.168-13.312 15.36-18.432 23.552-1.536 2.56-4.608 4.096-7.68 3.584l-145.408-28.672c-3.584-0.512-5.632-3.584-6.144-7.168-2.048-28.672-11.264-56.832-28.672-82.432-49.664-71.68-148.992-90.624-222.208-43.008-76.8 50.176-96.768 153.088-45.056 228.352 49.152 71.68 148.48 91.648 221.696 44.544 26.112-16.896 45.568-39.424 57.856-65.024 1.536-3.072 5.12-5.12 8.192-4.096l146.432 28.672c3.072 0.512 5.632 3.072 6.144 6.144 1.536 10.24 4.608 19.968 9.216 29.184 1.536 3.072 1.024 6.144-1.536 8.192l-198.144 198.656c-2.048 2.048-5.12 2.56-7.68 1.536-34.304-12.8-74.24-5.12-101.888 22.528-39.424 39.424-37.888 103.936 4.608 141.312 34.304 30.208 93.696 30.208 128 0 31.232-27.648 40.448-70.144 27.136-105.984-1.024-3.072-0.512-6.144 1.536-8.192l198.144-198.144c2.048-2.048 5.632-2.56 8.704-1.536 46.080 20.992 103.424 11.264 139.264-29.696 38.912-44.032 38.912-112.128 0-156.672z" />
<glyph unicode="&#x62;" glyph-name="service" d="M335.872 392.192c-1.536 17.92-2.56 36.864-2.56 55.808s1.024 37.376 2.56 55.808c0.512 6.144-4.096 11.264-10.24 11.264h-77.312c-4.608 0-9.216-3.072-10.24-8.192-4.096-18.944-6.144-38.912-6.144-58.88s2.048-39.936 6.144-58.88c1.024-4.608 5.12-8.192 10.24-8.192h77.312c6.144 0 10.752 5.632 10.24 11.264zM283.648 581.632h56.832c4.608 0 8.704 3.072 9.728 7.68 7.68 31.232 18.432 59.904 30.72 84.992 4.608 9.216-5.632 18.944-14.336 13.312-37.376-22.528-69.12-53.76-92.16-90.624-4.096-6.656 1.024-15.36 9.216-15.36zM350.208 306.688c-1.024 4.608-5.12 7.68-9.728 7.68h-56.832c-8.192 0-12.8-8.704-8.704-15.36 23.040-36.864 54.784-68.096 92.16-90.624 8.704-5.12 18.944 4.096 14.336 13.312-12.8 25.088-23.040 53.76-31.232 84.992zM673.792 589.312c1.024-4.608 5.12-7.68 9.728-7.68h56.832c8.192 0 12.8 8.704 8.704 15.36-23.040 36.864-54.784 68.096-92.16 90.624-8.704 5.12-18.944-4.096-14.336-13.312 12.8-25.088 23.040-53.76 31.232-84.992zM412.672 581.632h198.656c7.168 0 11.776 6.656 9.728 13.312-23.040 74.24-63.488 123.392-109.056 123.392s-86.016-49.152-109.056-123.392c-2.048-6.656 3.072-13.312 9.728-13.312zM611.328 314.368h-198.656c-7.168 0-11.776-6.656-9.728-13.312 23.040-74.24 63.488-123.392 109.056-123.392s86.016 49.152 109.056 123.392c2.048 6.656-3.072 13.312-9.728 13.312zM698.368 515.072c-6.144 0-10.752-5.12-10.24-11.264 1.536-17.92 2.56-36.864 2.56-55.808s-1.024-37.376-2.56-55.808c-0.512-6.144 4.096-11.264 10.24-11.264h77.312c4.608 0 9.216 3.072 10.24 8.192 4.096 18.944 6.144 38.912 6.144 58.88s-2.048 39.936-6.144 58.88c-1.024 4.608-5.12 8.192-10.24 8.192h-77.312zM638.976 505.856c-0.512 5.12-5.12 9.216-10.24 9.216h-233.472c-5.12 0-9.728-4.096-10.24-9.216-2.048-18.432-3.072-37.888-3.072-57.856s1.024-38.912 3.072-57.856c0.512-5.12 5.12-9.216 10.24-9.216h233.472c5.12 0 9.728 4.096 10.24 9.216 2.048 18.432 3.072 37.888 3.072 57.856s-1.024 38.912-3.072 57.856zM921.6 960h-819.2c-56.32 0-102.4-46.080-102.4-102.4v-819.2c0-56.32 46.080-102.4 102.4-102.4h819.2c56.32 0 102.4 46.080 102.4 102.4v819.2c0 56.32-46.080 102.4-102.4 102.4zM512 68.096c-209.92 0-379.904 169.984-379.904 379.904 0 209.408 170.496 379.904 379.904 379.904 209.92 0 379.904-169.984 379.904-379.904 0-209.408-170.496-379.904-379.904-379.904zM740.352 314.368h-56.832c-4.608 0-8.704-3.072-9.728-7.68-7.68-31.232-18.432-59.904-30.72-84.992-4.608-9.216 5.632-18.944 14.336-13.312 37.376 22.528 69.12 53.76 92.16 90.624 4.096 6.656-1.024 15.36-9.216 15.36z" />
<glyph unicode="&#x63;" glyph-name="manager" d="M503.296 271.36c-89.088 4.608-162.304 76.288-167.936 165.376-1.536 25.6 2.048 50.176 10.24 72.192 2.56 6.656 11.776 6.656 14.848 0 13.312-32.768 46.592-55.296 84.992-51.712 39.936 3.584 72.704 35.84 76.288 75.776 2.56 31.232-11.264 59.904-34.816 76.288-6.144 4.096-3.584 13.312 3.584 14.336 10.752 1.536 22.016 2.048 32.768 1.024 89.088-5.632 161.28-78.336 165.888-167.424 5.12-104.448-80.896-190.976-185.856-185.856zM921.6 960h-819.2c-56.32 0-102.4-46.080-102.4-102.4v-819.2c0-56.32 46.080-102.4 102.4-102.4h819.2c56.32 0 102.4 46.080 102.4 102.4v819.2c0 56.32-46.080 102.4-102.4 102.4zM868.352 425.984c-32.768-67.072-148.992-266.752-356.352-266.752-203.776 0-320 196.608-356.352 266.752-5.632 11.776-7.168 29.696 0 44.544 32.768 67.072 148.992 266.752 356.352 266.752s324.096-200.192 356.352-266.752c6.656-12.8 7.168-29.696 0-44.544z" />
<glyph unicode="&#x64;" glyph-name="admin" d="M359.918 330.105c34.791-34.791 34.791-91.198 0-125.988s-91.198-34.791-125.988 0c-34.791 34.791-34.791 91.198 0 125.988s91.198 34.791 125.988 0zM921.6 960h-819.2c-56.32 0-102.4-46.080-102.4-102.4v-819.2c0-56.32 46.080-102.4 102.4-102.4h819.2c56.32 0 102.4 46.080 102.4 102.4v819.2c0 56.32-46.080 102.4-102.4 102.4zM922.624 611.328l-51.2-51.2c-4.096-4.096-10.24-4.096-14.336 0l-80.384 80.384c-4.096 4.096-10.24 4.096-14.336 0l-25.088-25.088c-4.096-4.096-4.096-10.24 0-14.336l80.384-80.384c4.096-4.096 4.096-10.24 0-14.336l-51.712-51.712c-4.096-4.096-10.24-4.096-14.336 0l-80.384 80.384c-4.096 4.096-10.24 4.096-14.336 0l-175.616-175.616c-3.072-3.072-3.584-7.68-2.048-11.264 32.256-73.216 18.432-161.28-41.472-221.184-80.896-80.896-214.528-77.312-290.816 10.24-64.512 74.24-64.512 186.368 0 260.608 59.392 68.608 154.112 86.016 230.912 51.712 4.096-1.536 8.704-1.024 11.776 2.048l373.248 373.248c4.096 4.096 10.24 4.096 14.336 0l77.824-77.824c4.096-4.096 4.096-10.24 0-14.336l-11.776-11.776c-4.096-4.096-4.096-10.24 0-14.336l80.384-80.384c3.072-4.096 3.072-10.752-1.024-14.848z" />
<glyph unicode="&#x65;" glyph-name="signout" d="M654.336 128v185.856c0 5.632-4.608 10.24-10.24 10.24h-406.016c-11.264 0-20.48 9.216-20.48 20.48v206.848c0 11.264 9.216 20.48 20.48 20.48h406.016c5.632 0 10.24 4.608 10.24 10.24v185.856c0 8.192 9.728 13.312 16.384 8.192l336.896-250.88c6.656-5.12 16.384 0 16.384 8.192v324.096c0 56.32-46.080 102.4-102.4 102.4h-819.2c-56.32 0-102.4-46.080-102.4-102.4v-819.2c0-56.32 46.080-102.4 102.4-102.4h819.2c56.32 0 102.4 46.080 102.4 102.4v324.096c0 8.192-9.728 13.312-16.384 8.192l-336.896-250.88c-6.656-5.12-16.384-0.512-16.384 8.192z" />
<glyph unicode="&#x66;" glyph-name="search" d="M808.448 321.536c-3.584 15.36-9.728 30.208-17.92 44.544-22.016 36.352-56.832 60.416-94.72 69.632-38.4 9.216-79.872 4.096-116.736-17.92-72.704-44.032-95.744-138.752-51.712-211.456s138.752-95.744 211.456-51.712c58.368 35.328 84.48 103.424 69.632 166.912zM465.92 169.472c-64.512 106.496-30.72 245.248 75.776 309.76 61.952 37.376 135.168 41.472 197.632 17.408 10.24 16.896 18.944 34.304 26.112 52.736 2.56 6.656 8.192 11.264 15.36 13.312 15.872 4.608 32.768 13.312 37.376 30.72 8.704 35.328 9.216 69.632-20.48 68.608-2.048 0-3.584-0.512-5.632-1.024 0.512 6.144 1.024 11.776 1.024 17.92 0 155.136-125.952 281.088-281.088 281.088s-281.088-125.952-281.088-281.088c0-5.632 0.512-11.264 1.024-16.896-2.048 0.512-3.584 1.024-5.632 1.024-30.208 0.512-29.696-33.28-20.48-68.608 4.096-17.408 20.992-26.112 36.864-30.72 6.656-2.048 12.288-6.656 14.848-13.312 24.064-59.904 63.488-115.2 112.64-153.088 14.336-11.264 10.752-33.792-7.168-39.424-40.96-12.8-87.552-24.576-135.168-32.768-166.4-29.696-227.84-117.248-227.84-214.016v-72.704c0-56.32 46.080-102.4 102.4-102.4h721.92l-84.48 139.776c-100.352-38.4-216.576-1.024-273.92 93.696zM883.712 300.032c4.096-68.096-22.528-136.192-75.776-182.784l110.080-181.248h4.096c56.32 0 102.4 46.080 102.4 102.4v72.704c-0.512 77.312-39.936 148.992-140.8 188.928z" />
<glyph unicode="&#x67;" glyph-name="reports" d="M667.648 593.408h285.696c9.216 0 13.824 11.264 7.168 17.408l-285.696 285.696c-6.656 6.656-17.408 2.048-17.408-7.168v-285.696c0-5.632 4.608-10.24 10.24-10.24zM1003.52 480.768h-394.24c-35.328 0-64 28.672-64 64v394.752c0 11.264-9.216 20.48-20.48 20.48h-422.4c-56.32 0-102.4-46.080-102.4-102.4v-819.2c0-56.32 46.080-102.4 102.4-102.4h819.2c56.32 0 102.4 46.080 102.4 102.4v421.888c0 11.776-9.216 20.48-20.48 20.48zM133.12 583.168c0 5.632 4.608 10.24 10.24 10.24h280.576c5.632 0 10.24-4.608 10.24-10.24v-92.16c0-5.632-4.608-10.24-10.24-10.24h-280.576c-5.632 0-10.24 4.608-10.24 10.24v92.16zM890.88 132.608c0-5.632-4.608-10.24-10.24-10.24h-737.28c-5.632 0-10.24 4.608-10.24 10.24v92.16c0 5.632 4.608 10.24 10.24 10.24h737.28c5.632 0 10.24-4.608 10.24-10.24v-92.16zM890.88 311.808c0-5.632-4.608-10.24-10.24-10.24h-737.28c-5.632 0-10.24 4.608-10.24 10.24v92.16c0 5.632 4.608 10.24 10.24 10.24h737.28c5.632 0 10.24-4.608 10.24-10.24v-92.16z" />
<glyph unicode="&#x68;" glyph-name="profile" d="M795.648 325.12c-47.616 8.192-94.208 20.48-135.168 32.768-17.408 5.12-21.504 28.16-7.168 39.424 48.64 37.888 88.064 92.672 112.64 152.576 2.56 6.656 8.192 11.776 15.36 13.312 15.872 4.608 32.768 13.312 36.864 30.72 8.704 35.328 9.216 69.632-20.48 68.608-2.048 0-3.584-0.512-5.632-1.024 0.512 6.144 1.024 11.776 1.024 17.92 0 155.136-125.952 281.088-281.088 281.088s-281.088-125.44-281.088-280.576c0-5.632 0.512-11.264 1.024-16.896-2.048 0.512-3.584 1.024-5.632 1.024-30.208 0.512-29.696-33.28-20.48-68.608 4.096-17.408 20.992-26.112 36.352-30.72 6.656-2.048 12.8-6.656 15.36-13.312 24.064-59.904 64-115.2 112.64-153.6 14.336-11.264 10.24-33.792-7.168-39.424-40.96-12.8-87.552-24.576-135.168-32.768-166.4-29.696-227.84-116.736-227.84-214.016v-72.704c0-56.32 46.080-102.4 102.4-102.4h819.2c56.32 0 102.4 46.080 102.4 102.4v72.704c0 97.28-61.44 184.32-228.352 213.504z" />
<glyph unicode="&#x6a;" glyph-name="burger" d="M0 801.28h1024v-102.4h-1024v102.4zM0 186.88h1024v-102.4h-1024v102.4zM0 494.080h1024v-102.4h-1024v102.4z" />
<glyph unicode="&#x6b;" glyph-name="risk-controls" d="M489.472 471.552c-83.456-49.152-111.104-156.16-61.952-239.616s156.672-111.104 240.128-61.952c83.456 49.152 111.104 156.16 61.952 239.616-49.152 82.944-156.672 110.592-240.128 61.952zM1023.488 48.128l-82.432 874.496c-3.584 38.4-53.248 51.2-75.776 19.968l-118.784-166.912c-13.824-19.456-40.96-23.552-59.904-8.704l-137.728 107.52c-19.456 15.36-48.128 10.24-61.44-10.752l-162.304-261.12c-12.288-19.456-37.376-25.6-56.832-13.824l-149.504 89.6c-26.112 15.872-59.904-1.024-62.976-31.744l-55.296-599.040c-5.632-59.904 41.984-111.616 101.888-111.616h650.24l-84.992 144.384c-114.176-41.984-246.272 2.048-309.76 110.080-71.68 121.856-31.232 278.528 91.136 350.72 122.368 71.68 279.552 31.232 351.232-90.624 64-108.544 38.4-244.736-53.76-324.096l112.64-190.464h63.488c59.392 0 106.496 51.712 100.864 112.128z" />
<glyph unicode="&#x6c;" glyph-name="group" d="M827.904 413.184c-41.472 7.168-81.92 17.92-117.248 28.672-13.312 4.096-16.896 22.016-6.144 30.208 72.192 56.832 120.32 157.696 120.32 246.784 0 133.12-108.032 241.152-241.152 241.152s-241.152-108.032-241.152-241.152c0-32.768 6.656-66.56 18.432-99.84 2.048-6.144 7.68-10.752 13.824-12.8 93.696-27.136 162.816-113.664 162.816-216.064 0-52.224-17.92-108.032-47.616-156.16-4.096-6.144-0.512-14.336 7.168-15.36 119.296-20.992 164.352-69.632 178.176-123.904 2.56-9.216 10.24-15.36 19.968-15.36h240.64c48.64 0 88.064 39.424 88.064 88.064v62.464c0 83.456-52.736 158.72-196.096 183.296zM485.376 172.544c-29.184 5.12-57.856 12.8-83.456 20.48-9.728 3.072-12.288 15.36-4.096 21.504 51.2 40.448 85.504 111.616 85.504 175.104 0 94.208-76.8 171.008-171.008 171.008s-171.008-76.8-171.008-171.008c0-62.976 34.304-134.656 85.504-175.104 7.68-6.144 5.12-18.432-4.096-21.504-25.088-7.68-53.76-15.36-83.456-20.48-101.888-17.408-139.264-70.656-139.264-129.536v-44.544c0-34.304 28.16-62.464 62.464-62.464h499.712c34.304 0 62.464 28.16 62.464 62.464v44.544c0 58.88-37.376 112.128-139.264 129.536z" />
<glyph unicode="&#x6d;" glyph-name="entitlements" d="M921.6 539.648h-608.256c-5.632 0-10.24 4.608-10.24 10.24v81.92c0 114.688 90.112 213.504 204.8 215.552 113.664 2.048 206.848-86.528 212.48-198.656 0.512-5.632 4.608-10.24 10.24-10.24h92.16c5.632 0 10.24 4.608 10.24 10.24-5.632 178.176-155.648 319.488-336.384 310.784-173.056-8.192-306.176-157.184-306.176-329.728v-71.168c0-13.824-4.608-18.432-10.24-18.432h-77.824c-56.32 0-102.4-46.080-102.4-102.4v-399.36c0-56.32 46.080-102.4 102.4-102.4h819.2c56.32 0 102.4 46.080 102.4 102.4v398.848c0 56.832-46.080 102.4-102.4 102.4zM595.456 57.344h-166.912c-6.656 0-11.776 6.144-9.728 12.8l45.056 178.176c1.024 4.096-0.512 8.192-4.096 10.752-20.48 15.872-33.792 40.448-33.792 68.608 0 51.2 44.544 91.648 96.768 85.504 37.888-4.608 69.12-34.816 74.752-72.192 5.12-33.28-9.216-63.488-32.768-81.408-3.584-2.56-5.12-6.656-4.096-10.752l45.056-178.176c1.536-7.168-3.584-13.312-10.24-13.312z" />
<glyph unicode="&#x6e;" glyph-name="profit-loss" d="M501.76 960c-271.36-5.632-493.056-224.768-501.76-496.128-2.048-75.264 11.776-146.944 38.4-211.968 3.072-7.68 14.336-8.704 18.432-1.024l137.728 237.568c5.632 9.728 18.432 13.312 28.16 7.68l208.384-120.832c5.12-3.072 11.264-1.024 13.824 3.584l86.016 145.92c3.072 5.12 1.024 11.264-3.584 13.824l-86.528 50.176c-7.168 4.096-6.656 14.336 0.512 17.92l302.592 144.384c6.656 3.072 14.336-1.536 14.848-8.704l24.576-334.336c0.512-8.192-8.192-13.824-15.36-9.728l-86.528 50.176c-5.12 3.072-11.264 1.024-13.824-3.584l-90.624-155.648-69.12-117.76c-5.632-9.728-18.432-13.312-28.16-7.68l-208.384 121.856c-5.12 3.072-11.264 1.024-13.824-3.584l-103.424-178.176c-4.608-8.192-3.072-18.432 3.584-25.088 92.16-88.576 217.6-142.848 355.84-142.848 282.112 1.024 512 232.96 510.464 515.072-1.536 284.672-236.032 514.56-522.24 508.928z" />
<glyph unicode="&#x6f;" glyph-name="compliance" d="M634.368 266.24l-108.032-108.032c-8.192-8.192-20.992-8.192-29.184 0l-108.032 108.032-223.744 224.256c-4.096 4.096-4.096 10.24 0 14.336l108.032 108.032c4.096 4.096 10.24 4.096 14.336 0l217.088-217.6c4.096-4.096 10.24-4.096 14.336 0l369.664 370.176c7.68 7.68 8.192 20.48 0.512 28.16-95.744 104.448-233.984 168.96-387.072 166.4-273.92-5.12-496.64-228.352-502.272-501.76-5.632-286.208 223.744-520.192 507.904-522.24 281.088-2.048 513.536 226.304 516.096 506.88 0.512 57.856-8.704 113.664-25.6 165.888-2.56 7.168-11.776 9.728-16.896 4.096l-347.136-346.624z" />
<glyph unicode="&#x70;" glyph-name="account" d="M795.648 324.096c-47.616 8.192-94.208 20.48-135.168 32.768-17.408 5.632-21.504 28.16-7.168 39.424 48.64 37.888 88.064 92.672 112.128 152.576 2.56 6.656 8.192 11.264 15.36 13.312 15.872 4.608 32.768 13.312 37.376 30.72 8.704 35.328 9.216 69.632-20.48 68.608-2.048 0-3.584-0.512-5.632-1.024 0.512 6.144 1.024 11.776 1.024 17.92 0 155.648-125.952 281.6-281.088 281.6s-281.088-125.952-281.088-281.088c0-5.632 0.512-11.264 1.024-16.896-2.048 0.512-3.584 1.024-5.632 1.024-30.208 0.512-29.696-33.28-20.48-68.608 4.096-17.408 20.992-26.112 36.352-30.72 6.656-2.048 12.8-6.656 15.36-13.312 24.064-59.904 64-115.2 112.64-153.6 14.336-11.264 10.24-33.792-7.168-39.424-40.96-12.8-87.552-24.576-135.168-32.768-166.4-29.184-227.84-116.736-227.84-213.504v-72.704c0-56.32 46.080-102.4 102.4-102.4h819.2c56.32 0 102.4 46.080 102.4 102.4v72.704c0 96.768-61.44 184.32-228.352 212.992zM565.76 482.816c0-28.16-23.040-51.2-51.2-51.2h-4.608c-28.16 0-51.2 23.040-51.2 51.2v165.376c0 28.16 23.040 51.2 51.2 51.2h4.608c28.16 0 51.2-23.040 51.2-51.2v-165.376zM565.76 804.864c0-28.16-23.040-51.2-51.2-51.2h-4.608c-28.16 0-51.2 23.040-51.2 51.2v4.608c0 28.16 23.040 51.2 51.2 51.2h4.608c28.16 0 51.2-23.040 51.2-51.2v-4.608z" />
<glyph unicode="&#x71;" glyph-name="notification" d="M841.728 264.704l-3.072 2.048c-7.168 4.608-11.264 12.8-11.264 20.992v283.136c0 150.528-105.472 276.48-246.272 308.224-4.608 1.024-8.192 5.12-8.192 9.728v7.168c0 33.792-26.624 63.488-60.416 64s-61.952-27.136-61.952-61.44v-9.216c0-4.608-3.584-8.704-8.192-9.728-140.8-32.256-246.272-158.208-246.272-308.736v-283.136c0-8.704-4.096-16.384-11.264-20.992l-3.072-2.048c-36.864-25.6-58.88-67.584-58.88-112.128v-25.6c0-5.632 4.608-10.24 10.24-10.24h757.76c5.632 0 10.24 4.608 10.24 10.24v25.6c0 44.544-22.016 86.528-59.392 112.128zM512-64c65.536 0 118.784 53.248 118.784 118.784h-237.568c0-65.536 53.248-118.784 118.784-118.784z" />
<glyph unicode="&#x72;" glyph-name="magnifying-glass" d="M712.192 839.68c-160.256 160.256-423.424 160.256-588.8 0-160.256-160.256-160.256-423.424 0-588.8 150.016-150.016 392.704-160.256 552.448-31.232l283.136-283.136 61.952 61.952-283.136 283.136c134.144 165.888 123.904 408.576-25.6 558.080zM655.36 307.712c-129.024-129.024-340.992-129.024-470.016 0s-134.144 346.112-5.12 475.136 340.992 129.024 470.016 0 134.144-340.48 5.12-475.136z" />
<glyph unicode="&#x73;" glyph-name="hide" d="M514.56 64c210.944 0 384 173.056 384 384s-173.056 384-384 384-384-173.056-384-384 172.544-384 384-384zM310.784 586.24l207.36-265.216 203.776 265.216 38.4-26.624-238.080-311.296-249.856 311.296 38.4 26.624z" />
<glyph unicode="&#x74;" glyph-name="expand" d="M896 448c0 210.944-173.056 384-384 384s-384-173.056-384-384 173.056-384 384-384 384 173.056 384 384zM373.76 244.224l265.216 207.36-265.216 203.776 26.624 38.4 311.296-238.080-311.296-249.856-26.624 38.4z" />
<glyph unicode="&#x75;" glyph-name="close" d="M1016.32 18.432l-74.752-74.752-429.568 429.056-429.568-429.056-74.752 74.752 429.568 429.056-429.568 429.568 74.752 74.752 429.568-429.056 429.568 429.056 74.752-74.752-429.568-429.568z" />
<glyph unicode="&#x76;" glyph-name="check" d="M0 857.6v-819.2c0-56.32 46.080-102.4 102.4-102.4h819.2c56.32 0 102.4 46.080 102.4 102.4v819.2c0 56.32-46.080 102.4-102.4 102.4h-819.2c-56.32 0-102.4-46.080-102.4-102.4zM895.488 611.84l-423.424-423.424c-10.752-10.752-27.648-10.752-37.888 0l-305.664 306.176c-10.752 10.752-10.752 27.648 0 37.888l57.344 57.344c10.752 10.752 27.648 10.752 37.888 0l210.432-210.432c10.752-10.752 27.648-10.752 37.888 0l327.68 327.68c10.752 10.752 27.648 10.752 37.888 0l57.344-57.344c11.264-9.728 11.264-26.624 0.512-37.888z" />
<glyph unicode="&#x77;" glyph-name="change-image" d="M650.24 442.88c0-76.348-61.892-138.24-138.24-138.24s-138.24 61.892-138.24 138.24c0 76.348 61.892 138.24 138.24 138.24s138.24-61.892 138.24-138.24zM512 960c-281.6 0-512-230.4-512-512s230.4-512 512-512 512 230.4 512 512-230.4 512-512 512zM870.4 227.84c0-15.36-15.36-30.72-30.72-30.72h-655.36c-15.36 0-30.72 15.36-30.72 30.72v373.76c0 15.36 15.36 30.72 30.72 30.72h138.24v35.84c0 15.36 15.36 30.72 30.72 30.72h322.56c15.36 0 30.72-15.36 30.72-30.72v-35.84h133.12c15.36 0 30.72-15.36 30.72-30.72v-373.76z" />
<glyph unicode="&#x78;" glyph-name="comment" d="M921.6 960h-819.2c-56.32 0-102.4-46.080-102.4-102.4v-605.184c0-56.32 46.080-102.4 102.4-102.4h12.8c5.632 0 10.24-4.608 10.24-10.24v-189.952c0-12.288 14.848-18.432 23.552-9.728l207.872 204.288c3.584 3.584 9.216 5.632 14.336 5.632h550.4c56.32 0 102.4 46.080 102.4 102.4v605.184c0 56.32-46.080 102.4-102.4 102.4zM679.424 393.216c0-5.632-4.608-10.24-10.24-10.24h-525.824c-5.632 0-10.24 4.608-10.24 10.24v92.16c0 5.632 4.608 10.24 10.24 10.24h525.824c5.632 0 10.24-4.608 10.24-10.24v-92.16zM890.88 596.48c0-5.632-4.608-10.24-10.24-10.24h-737.28c-5.632 0-10.24 4.608-10.24 10.24v92.16c0 5.632 4.608 10.24 10.24 10.24h737.28c5.632 0 10.24-4.608 10.24-10.24v-92.16z" />
<glyph unicode="&#x79;" glyph-name="request" d="M751.616 353.792v-294.912c0-14.336-11.264-25.6-25.6-25.6h-603.136c-14.336 0-25.6 11.264-25.6 25.6v603.136c0 14.336 11.264 25.6 25.6 25.6h291.84c5.632 0 10.752 2.048 14.336 6.144l74.752 74.24c6.656 6.656 2.048 17.408-7.168 17.408h-394.24c-56.32 0-102.4-46.080-102.4-102.4v-644.608c0-56.32 46.080-102.4 102.4-102.4h644.096c56.32 0 102.4 46.080 102.4 102.4v395.776c0 9.216-10.752 13.824-17.408 7.168l-73.728-72.704c-4.096-4.096-6.144-9.216-6.144-14.848zM311.296 381.44l134.144-134.144c10.752-10.752 6.144-29.184-8.192-33.792l-189.952-59.904c-17.92-5.632-35.328 11.264-29.696 29.696l59.904 189.952c4.608 14.336 23.040 18.944 33.792 8.192zM477.696 286.208l-127.488 127.488c-10.24 10.24-10.24 26.112 0 36.352l485.888 485.888c31.744 31.744 83.968 31.744 115.712 0l47.616-47.616c31.744-31.744 31.744-83.968 0-115.712l-485.888-485.888c-9.728-10.24-25.6-10.24-35.84-0.512z" />
<glyph unicode="&#x7a;" glyph-name="arrow-up" d="M81.92 89.6l430.080 563.2 430.080-563.2 81.92 61.44-512 655.36-512-655.36z" />
</font>
</defs>
</svg>
