<?xml version="1.0" encoding="UTF-8"?><svg id="Account_Directory" xmlns="http://www.w3.org/2000/svg" viewBox="0 0 26 26"><defs><style>.cls-1{fill:#4392d6;stroke-width:0px;}</style></defs><path class="cls-1" d="M21,6h-7.59c-.27,0-.52-.11-.71-.29l-1.41-1.41c-.19-.19-.44-.29-.71-.29h-5.59c-.55,0-1,.45-1,1v16c0,.55.45,1,1,1h16c.55,0,1-.45,1-1V7c0-.55-.45-1-1-1ZM7,19c0-1.48,2.14-3.5,4.96-3.92-.86-.68-1.46-2.08-1.46-3.08,0-1.38,1.12-2.5,2.5-2.5s2.5,1.12,2.5,2.5c0,1.01-.6,2.4-1.46,3.08,2.82.42,4.96,2.44,4.96,3.92H7Z"/></svg>