<?xml version="1.0" encoding="UTF-8"?><svg id="Blotter" xmlns="http://www.w3.org/2000/svg" viewBox="0 0 26 26"><defs><style>.cls-1{fill:#00bfa0;stroke-width:0px;}</style></defs><g id="blotter"><path id="Path_77" class="cls-1" d="M13,4c-4.97,0-9,4.03-9,9s4.03,9,9,9,9-4.03,9-9c.02-4.95-3.98-8.98-8.93-9-.02,0-.05,0-.07,0ZM18.7,9h-4.7v-2.9c1.92.22,3.64,1.29,4.7,2.9ZM20,13c0,.68-.1,1.35-.3,2h-5.7v-4h5.7c.2.65.31,1.32.3,2ZM6,13c0-.68.1-1.35.3-2h5.7v4h-5.7c-.2-.65-.31-1.32-.3-2ZM12,6.1v2.9h-4.7c1.06-1.61,2.78-2.68,4.7-2.9ZM7.3,17h4.7v2.9c-1.92-.22-3.64-1.29-4.7-2.9ZM14,19.9v-2.9h4.7c-1.06,1.61-2.78,2.68-4.7,2.9Z"/></g></svg>