<?xml version="1.0" encoding="utf-8"?>
<!-- Generator: Adobe Illustrator 24.2.0, SVG Export Plug-In . SVG Version: 6.00 Build 0)  -->
<svg version="1.1" id="Layer_1" xmlns="http://www.w3.org/2000/svg" xmlns:xlink="http://www.w3.org/1999/xlink" x="0px" y="0px"
	 viewBox="0 0 26 26" style="enable-background:new 0 0 26 26;" xml:space="preserve">
<style type="text/css">
	.st0{fill:none;}
	.st1{fill:#333333;}
</style>
<rect y="0" class="st0" width="26" height="26"/>
<g>
	<path class="st1" d="M21,4H5C4.4,4,4,4.4,4,5v16c0,0.6,0.4,1,1,1h9.8l-0.8-2.1c-2.3,0.4-4.6-0.8-5.5-3c-1-2.6,0.2-5.5,2.8-6.5
		c2.6-1,5.5,0.2,6.5,2.8c0.9,2.2,0.1,4.8-1.9,6l1.1,2.8H21c0.6,0,1-0.4,1-1V5C22,4.4,21.6,4,21,4z M9,8C8.4,8,8,7.6,8,7s0.4-1,1-1
		s1,0.4,1,1S9.6,8,9,8z M13,8c-0.6,0-1-0.4-1-1s0.4-1,1-1s1,0.4,1,1S13.6,8,13,8z M17,8c-0.6,0-1-0.4-1-1s0.4-1,1-1s1,0.4,1,1
		S17.6,8,17,8z"/>
	<path class="st1" d="M15.8,13.9c-0.6-1.5-2.4-2.3-3.9-1.7c-1.5,0.6-2.3,2.4-1.7,3.9c0.6,1.5,2.4,2.3,3.9,1.7
		C15.7,17.2,16.4,15.4,15.8,13.9z"/>
</g>
</svg>
