<?xml version="1.0" encoding="UTF-8"?><svg id="Account" xmlns="http://www.w3.org/2000/svg" viewBox="0 0 26 26"><defs><style>.cls-1{fill:#70c1eb;stroke-width:0px;}</style></defs><g id="account"><path id="Path_76" class="cls-1" d="M21,4H5c-.52-.03-.97.37-1,.89,0,.04,0,.08,0,.11v16c-.03.52.37.97.89,1,.04,0,.08,0,.11,0h16c.52.03.97-.37,1-.89,0-.04,0-.08,0-.11V5c.03-.52-.37-.97-.89-1-.04,0-.08,0-.11,0ZM18.5,17.4c-1.06-1.35-2.6-2.24-4.3-2.5,1.11-.87,1.77-2.19,1.8-3.6,0-1.66-1.34-3-3-3s-3,1.34-3,3c.05,1.4.71,2.72,1.8,3.6-1.68.3-3.2,1.19-4.3,2.5-.97-1.26-1.49-2.81-1.5-4.4,0-3.87,3.13-7,7-7s7,3.13,7,7c0,1.59-.53,3.14-1.5,4.4Z"/></g></svg>