<?xml version="1.0" encoding="UTF-8"?><svg id="Replay" xmlns="http://www.w3.org/2000/svg" viewBox="0 0 26 26"><defs><style>.cls-1{fill:#ae60fc;}</style></defs><g id="replay"><path class="cls-1" d="M12.04,9.11c-.63-.42-1.58,0-1.58.84v5.9c0,.84.95,1.37,1.58.95l5.16-3.05c.74-.32.74-1.37,0-1.68l-5.16-2.95Z"/><path class="cls-1" d="M19.57,16.71h-2.81c-.54,0-.98.44-.98.98s.44.98.98.98h.45c-1.2.87-2.65,1.35-4.13,1.35-3.88,0-7.03-3.15-7.03-7.03s3.15-7.03,7.03-7.03c1.23,0,2.45.33,3.52.94.47.27,1.07.11,1.34-.36.27-.47.11-1.07-.36-1.34-1.37-.79-2.92-1.21-4.5-1.21-4.96,0-9,4.04-9,9s4.04,9,9,9c1.99,0,3.94-.67,5.51-1.88v.39c0,.54.44.98.98.98s.98-.44.98-.98v-2.81c0-.54-.44-.98-.98-.98Z"/><path class="cls-1" d="M19.94,11.47c.1.46.51.77.96.77.07,0,.14,0,.22-.02.53-.12.86-.64.75-1.18-.12-.53-.64-.87-1.17-.75-.53.12-.87.64-.75,1.18Z"/><path class="cls-1" d="M19.51,9.2c.21,0,.41-.06.59-.19.44-.33.53-.94.2-1.38-.33-.44-.94-.53-1.38-.2-.44.33-.53.94-.2,1.38.19.26.49.4.79.4Z"/><path class="cls-1" d="M21.13,13.65c-.53-.11-1.05.23-1.16.77-.11.53.23,1.05.76,1.16.07.01.14.02.2.02.46,0,.87-.32.96-.79.11-.53-.23-1.05-.77-1.16Z"/></g></svg>