<?xml version="1.0" encoding="UTF-8"?><svg id="Watchlist" xmlns="http://www.w3.org/2000/svg" viewBox="0 0 26 26"><defs><style>.cls-1{fill:#e67a44;stroke-width:0px;}</style></defs><g id="dashboard"><g id="Group_7"><path id="Path_82" class="cls-1" d="M15.8,13.9c-.61-1.55-2.35-2.31-3.9-1.7s-2.31,2.35-1.7,3.9c.63,1.52,2.35,2.27,3.9,1.7,1.54-.59,2.31-2.32,1.72-3.85,0-.02-.01-.03-.02-.05Z"/><circle class="cls-1" cx="13" cy="15" r="3"/><path class="cls-1" d="M21.11,4s-.08,0-.11,0H5c-.52-.03-.97.37-1,.89,0,.04,0,.08,0,.11v16c-.03.52.37.97.89,1,.04,0,.08,0,.11,0h9.8l-.8-2.1c-.32.07-.66.1-1,.1-2.76,0-5-2.24-5-5s2.24-5,5-5,5,2.24,5,5c0,1.75-.91,3.29-2.27,4.18l1.07,2.82h4.2c.52.03.97-.37,1-.89,0-.04,0-.08,0-.11V5c.03-.52-.37-.97-.89-1ZM10,7c.03.52-.37.97-.89,1-.04,0-.08,0-.11,0-.52.03-.97-.37-1-.89,0-.04,0-.08,0-.11-.03-.52.37-.97.89-1,.04,0,.08,0,.11,0,.52-.03.97.37,1,.89,0,.04,0,.08,0,.11ZM13.11,8s-.08,0-.11,0c-.52.03-.97-.37-1-.89,0-.04,0-.08,0-.11,0-.55.45-1,1-1s1,.45,1,1c.03.52-.37.97-.89,1ZM17.11,8s-.08,0-.11,0c-.52.03-.97-.37-1-.89,0-.04,0-.08,0-.11,0-.55.45-1,1-1s1,.45,1,1c.03.52-.37.97-.89,1Z"/></g></g></svg>