<?xml version="1.0" encoding="UTF-8"?><svg id="Bookview" xmlns="http://www.w3.org/2000/svg" viewBox="0 0 26 26"><defs><style>.cls-1{fill:#333;stroke-width:0px;}</style></defs><g id="bookview"><g id="Group_6"><rect id="Rectangle_20" class="cls-1" x="8.5" y="8" width="2" height="2"/><rect id="Rectangle_21" class="cls-1" x="8.5" y="12" width="2" height="2"/><rect id="Rectangle_22" class="cls-1" x="8.5" y="16" width="2" height="2"/><g id="Group_5"><path id="Path_78" class="cls-1" d="M21,4H5c-.52-.03-.97.37-1,.89,0,.04,0,.08,0,.11v16c-.03.52.37.97.89,1,.04,0,.08,0,.11,0h16c.52.03.97-.37,1-.89,0-.04,0-.08,0-.11V5c.03-.52-.37-.97-.89-1-.04,0-.08,0-.11,0ZM6,20V6h7v14h-7Z"/></g></g></g></svg>