<?xml version="1.0" encoding="UTF-8"?><svg id="Canvas" xmlns="http://www.w3.org/2000/svg" viewBox="0 0 26 26"><defs><style>.cls-1{fill:#333;stroke-width:0px;}</style></defs><g id="canvas"><path id="Path_79" class="cls-1" d="M21,4H5c-.52-.03-.97.37-1,.89,0,.04,0,.08,0,.11v16c-.03.52.37.97.89,1,.04,0,.08,0,.11,0h16c.52.03.97-.37,1-.89,0-.04,0-.08,0-.11V5c.03-.52-.37-.97-.89-1-.04,0-.08,0-.11,0ZM9,17.8c-.55,0-1-.45-1-1s.45-1,1-1c.52-.03.97.37,1,.89,0,.04,0,.08,0,.11,0,.55-.45,1-1,1ZM15,14.8h-4v-4h4v4ZM17,9.8c-.52.03-.97-.37-1-.89,0-.04,0-.08,0-.11,0-.55.45-1,1-1s1,.45,1,1c.03.52-.37.97-.89,1-.04,0-.08,0-.11,0Z"/></g></svg>