<?xml version="1.0" encoding="UTF-8"?><svg id="Key_Bindings" xmlns="http://www.w3.org/2000/svg" viewBox="0 0 26 26"><defs><style>.cls-1{fill:#333;stroke-width:0px;}</style></defs><g id="key-bindings"><g id="Group_8"><path id="Path_84" class="cls-1" d="M15.5,17.4h1.8l-.9-2.6-.9,2.6Z"/><path id="Path_85" class="cls-1" d="M21,4H5c-.52-.03-.97.37-1,.89,0,.04,0,.08,0,.11v16c-.03.52.37.97.89,1,.04,0,.08,0,.11,0h16c.52.03.97-.37,1-.89,0-.04,0-.08,0-.11V5c.03-.52-.37-.97-.89-1-.04,0-.08,0-.11,0ZM8,8h-2v-2h2v2ZM18.3,20l-.5-1.4h-2.8l-.5,1.4h-1.6l2.8-7h1.4l2.8,7h-1.6Z"/></g></g></svg>