<?xml version="1.0" encoding="UTF-8"?><svg id="Imbalance_Indicator" xmlns="http://www.w3.org/2000/svg" viewBox="0 0 26 26"><defs><style>.cls-1{fill:#333;stroke-width:0px;}</style></defs><g id="imbalance-indicator"><path id="Path_83" class="cls-1" d="M21.8,14.5l-5.8-6.9v-.6c0-1.66-1.34-3-3-3s-3,1.34-3,3c-.02.21.02.41.1.6l-5.8,6.9c-.28.3-.32.75-.1,1.1.7,1.7,3.7,6.4,8.8,6.4s8.1-4.7,8.9-6.4c.17-.36.13-.78-.1-1.1ZM13,6c.52-.03.97.37,1,.89,0,.04,0,.08,0,.11,0,.55-.45,1-1,1s-1-.45-1-1c-.03-.52.37-.97.89-1,.04,0,.08,0,.11,0ZM6.4,15l4.7-5.6c.56.39,1.22.6,1.9.6.65.02,1.29-.2,1.8-.6l4.7,5.6H6.4Z"/></g></svg>