<?xml version="1.0" encoding="UTF-8"?><svg id="Time_and_Sales" xmlns="http://www.w3.org/2000/svg" viewBox="0 0 26 26"><defs><style>.cls-1{fill:#333;stroke-width:0px;}</style></defs><path class="cls-1" d="M13.07,4s-.05,0-.07,0c-4.97,0-9,4.03-9,9s4.03,9,9,9,9-4.03,9-9c.02-4.95-3.98-8.98-8.93-9ZM14,19c0,.55-.45,1-1,1s-1-.45-1-1v-5.29l-3.11-1.09c-.52-.18-.8-.75-.61-1.27.18-.52.75-.8,1.27-.61l3.78,1.32s.02.01.03.02c.07.03.13.07.19.11.05.03.1.06.14.1.05.04.08.1.11.15.04.05.08.1.11.16.02.05.03.11.04.17.02.07.04.14.04.21,0,.01,0,.02,0,.03v6ZM16.5,16c-.55,0-1-.45-1-1s.45-1,1-1,1,.45,1,1-.45,1-1,1Z"/></svg>