<?xml version="1.0" encoding="utf-8"?>
<!-- Generator: Adobe Illustrator 22.1.0, SVG Export Plug-In . SVG Version: 6.00 Build 0)  -->
<svg version="1.1" id="Layer_1" xmlns="http://www.w3.org/2000/svg" xmlns:xlink="http://www.w3.org/1999/xlink" x="0px" y="0px"
	 viewBox="0 0 100 100" style="enable-background:new 0 0 100 100;" xml:space="preserve">
<style type="text/css">
	.st0{fill:#DBDBDB;}
</style>
<path class="st0" d="M100,91.2l-32-32c4.4-6.1,7-13.6,7-21.7C75,16.8,58.2,0,37.5,0S0,16.8,0,37.5S16.8,75,37.5,75
	c8.1,0,15.6-2.6,21.7-7l32,32L100,91.2z M37.5,62.5c-13.8,0-25-11.2-25-25c0-13.8,11.2-25,25-25s25,11.2,25,25
	C62.5,51.3,51.3,62.5,37.5,62.5z"/>
</svg>
