<?xml version="1.0" encoding="utf-8"?>
<!-- Generator: Adobe Illustrator 20.0.0, SVG Export Plug-In . SVG Version: 6.00 Build 0)  -->
<svg version="1.1" id="Layer_1" xmlns="http://www.w3.org/2000/svg" xmlns:xlink="http://www.w3.org/1999/xlink" x="0px" y="0px"
	 viewBox="0 0 49 60" style="enable-background:new 0 0 49 60;" xml:space="preserve">
<style type="text/css">
.st1 {
		fill: #4B23A0;
		animation: opacity-st1 1.5s infinite;
		}

		@keyframes opacity-st1 {
			<!-- fade in  -->
			0% {
				opacity: 0;
				}
			20% {
				opacity: 1;
				}	

			<!-- fade out  -->
			48% {
				opacity: 1;
				}
			58% {
				opacity: 0;
				}
		100% {
			opacity: 0;
			}
		}

	.st2 {
		fill: #684BC7;
		animation: opacity-st2 1.5s infinite;
		}

		@keyframes opacity-st2 {
		0% {
			opacity: 0;
			}
			<!-- fade in  -->
			8% {
				opacity: 0;
				}
			28% {
				opacity: 1;
				}
			<!-- fade out  -->		
			56% {
				opacity: 1;
				}
			66% {
				opacity: 0;
				}

		100% {
			opacity: 0;
			}
		}

	.st3 {
		fill: #8D78EC;
		animation: opacity-st3 1.5s infinite;
		}

		@keyframes opacity-st3 {
		0% {
			opacity: 0;
			}
			<!-- fade in  -->
			16% {
				opacity: 0;
				}
			36% {
				opacity: 1;
				}
			<!-- fade out  -->
			64% {
				opacity: 1;
				}
			74% {
				opacity: 0;
				}

		100% {
			opacity: 0;
			}

		}

	.st4 {
		fill: #B9B4EC;
		animation: opacity-st4 1.5s infinite;
		}

		@keyframes opacity-st4 {
		0% {
			opacity: 0;
			}
			<!-- fade in  -->
			24% {
				opacity: 0;
				}
			44% {
				opacity: 1;
				}
			<!-- fade out  -->
			72% {
				opacity: 1;
				}
			82% {
				opacity: 0;
				}

		100% {
			opacity: 0;
			}
		}

	.st5 {
		fill: #E2E0FF;
		animation: opacity-st5 1.5s infinite;
		}

		@keyframes opacity-st5 {
		0% {
			opacity: 0;
			}
			<!-- fade in  -->
			32% {
				opacity: 0;
				}
			52% {
				opacity: 1;
				}
			<!-- fade in  -->
			80% {
				opacity: 1;
				}
			90% {
				opacity: 0;
				}

		100% {
			opacity: 0;
			}

		}

	.st6 {
		fill: #F2F5FF;
		animation: opacity-st6 1.5s infinite;
		}

		@keyframes opacity-st6 {
		0% {
			opacity: 0;
			}
			<!-- fade in  -->
			40% {
				opacity: 0;
				}
			60% {
				opacity: 1;
				}
			<!-- fade out  -->
			88% {
				opacity: 1;
				}
			98% {
				opacity: 0;
				}

		100% {
			opacity: 0;
			}

		}
</style>
<g>
	<path class="st1" d="M45.8,15.1L25.9,26.6c-1.4,0.8-2.9-0.2-2.9-1.7V2c0-1.5,1.7-2.5,2.9-1.7l19.9,11.5
		C47.2,12.5,47.2,14.4,45.8,15.1z"/>
	<path class="st2" d="M49,22.5v20.4c0,1.5-1.7,2.5-2.9,1.7L28.3,34.3c-1.4-0.8-1.4-2.8,0-3.5l17.8-10.3C47.5,19.9,49,21,49,22.5z"/>
	<path class="st3" d="M41.2,50.8l-15.3,8.9C24.5,60.5,23,59.6,23,58V40.4c0-1.5,1.7-2.5,2.9-1.7l15.3,8.9
		C42.6,48.2,42.6,50.1,41.2,50.8z"/>
	<path class="st4" d="M2.3,45.9L15,38.6c1.4-0.8,2.9,0.2,2.9,1.7V55c0,1.5-1.7,2.4-2.9,1.7L2.3,49.3C1.1,48.7,1.1,46.7,2.3,45.9z"/>
	<path class="st5" d="M12.6,34.3L2.9,40C1.7,40.7,0,39.8,0,38.3V27.1c0-1.5,1.7-2.4,2.9-1.7l9.6,5.5C13.9,31.7,13.9,33.5,12.6,34.3z
		"/>
	<path class="st6" d="M18.1,17.4v7.5c0,1.5-1.7,2.5-2.9,1.7L8.6,23c-1.4-0.8-1.4-2.8,0-3.5l6.6-3.8C16.4,15,18.1,15.9,18.1,17.4z"/>
</g>
</svg>
