<?xml version="1.0" encoding="utf-8"?>
<!-- Generator: Adobe Illustrator 21.1.0, SVG Export Plug-In . SVG Version: 6.00 Build 0)  -->
<svg version="1.1" id="Layer_1" xmlns="http://www.w3.org/2000/svg" xmlns:xlink="http://www.w3.org/1999/xlink" x="0px" y="0px"
	 viewBox="0 0 134 52" style="enable-background:new 0 0 134 52;" xml:space="preserve">
<style type="text/css">
	.st0{fill:#FFFFFF;}
	.st1{fill:#E2E0FF;}
	.st2{fill:#B9B4EC;}
	.st3{fill:#8D78EC;}
	.st4{fill:#684BC7;}
	.st5{fill:#5A3AAC;}
</style>
<g>
	<path class="st0" d="M59.4,39c-2.8,0-4.9-0.3-6.6-0.7c-0.3,0-0.7-0.3-0.7-0.7v-2.8c0-0.3,0.3-0.7,0.7-0.7l0,0
		c1.6,0.2,5.2,0.3,6.6,0.3c3.3,0,4.3-1.2,4.3-3.3c0-1.4-0.7-2.3-3.1-3.7l-4.9-3c-3.5-2.1-4.3-4.2-4.3-6.8c0-4.2,2.4-7.1,9.4-7.1
		c2.4,0,5.9,0.3,7.1,0.7c0.4,0.1,0.7,0.3,0.7,0.7v2.8c0,0.3-0.3,0.5-0.7,0.5l0,0c-2.4-0.2-4.9-0.3-7.3-0.3c-2.8,0-4,1-4,2.6
		c0,1.2,0.7,1.9,3.1,3.3l4.5,2.4c4.2,2.3,5.2,4.7,5.2,7.7C69.3,35,66.9,39,59.4,39z"/>
	<path class="st0" d="M81.7,39c-0.9,0-2.3,0-3.7-0.3v6.6c0,0.3-0.3,0.7-0.7,0.7h-3.5c-0.3,0-0.7-0.3-0.7-0.7V19.2c0-0.5,0.2-0.9,1-1
		c2.3-0.5,5.2-1,7.5-1c6.1,0,8.9,3.5,8.9,9.4v3C90.7,35.3,87.7,39,81.7,39z M85.7,26.7c0-3.1-0.9-5.4-4-5.4c-1.4,0-3,0.2-3.7,0.3v13
		c1,0.2,2.8,0.3,3.7,0.3c3.3,0,4-2.3,4-5.4V26.7z"/>
	<path class="st0" d="M98.9,14.8h-3.7c-0.5,0-0.9-0.4-0.9-0.9v-3.3c0-0.3,0.3-0.7,0.9-0.7h3.7c0.3,0,0.7,0.3,0.7,0.7V14
		C99.6,14.5,99.2,14.8,98.9,14.8z M98.7,38.7h-3.5c-0.3,0-0.7-0.3-0.7-0.9V18.3c0-0.3,0.3-0.7,0.7-0.7h3.5c0.3,0,0.7,0.3,0.7,0.7V38
		C99.4,38.3,99.2,38.7,98.7,38.7z"/>
	<path class="st0" d="M114.2,21.4c-2.1,0-3.7,0.5-5.2,1.4V38c0,0.5-0.2,0.9-0.7,0.9h-3.5c-0.3,0-0.7-0.3-0.7-0.9V18.3
		c0-0.3,0.3-0.7,0.7-0.7h3.3c0.3,0,0.7,0.3,0.7,0.7v0.9c1.9-1.4,3.8-1.7,5.4-1.7c0.3,0,0.7,0.3,0.7,0.7V21
		C114.9,21.1,114.7,21.4,114.2,21.4z"/>
	<path class="st0" d="M133.1,29.8H121V30c0,2.1,0.9,4.7,4.5,4.7c2.8,0,5.4-0.2,7-0.3c0,0,0,0,0.2,0c0.3,0,0.7,0.2,0.7,0.5v2.4
		c0,0.5-0.2,0.9-0.9,1c-2.4,0.5-3.8,0.7-7.3,0.7c-3.8,0-9-2.1-9-9.4v-2.8c0-5.9,3.3-9.6,9-9.6s8.9,4,8.9,9.6v2.1
		C133.8,29.4,133.7,29.8,133.1,29.8z M128.8,26.1c0-3-1.6-4.5-4-4.5c-2.3,0-4,1.6-4,4.5v0.2L128.8,26.1L128.8,26.1z"/>
</g>
<g>
	<path class="st0" d="M39.7,13.1l-17.3,10c-1.2,0.7-2.5-0.1-2.5-1.5V1.7c0-1.3,1.5-2.1,2.5-1.5l17.3,10
		C40.9,10.9,40.9,12.5,39.7,13.1z"/>
	<path class="st1" d="M42.5,19.5v17.7c0,1.3-1.5,2.1-2.5,1.5l-15.4-8.9c-1.2-0.7-1.2-2.4,0-3.1L40,17.8
		C41.2,17.2,42.5,18.2,42.5,19.5z"/>
	<path class="st2" d="M35.7,44.1l-13.3,7.7c-1.2,0.7-2.5-0.1-2.5-1.5V35c0-1.3,1.5-2.1,2.5-1.5l13.3,7.7
		C36.9,41.8,36.9,43.4,35.7,44.1z"/>
	<path class="st3" d="M2,39.8l11-6.4c1.2-0.7,2.5,0.1,2.5,1.5v12.7c0,1.3-1.5,2.1-2.5,1.5L2,42.7C0.9,42.2,0.9,40.5,2,39.8z"/>
	<path class="st4" d="M10.9,29.7l-8.4,4.9C1.5,35.3,0,34.5,0,33.2v-9.7c0-1.3,1.5-2.1,2.5-1.5l8.4,4.8
		C12.1,27.5,12.1,29.1,10.9,29.7z"/>
	<path class="st5" d="M15.7,15.1v6.5c0,1.3-1.5,2.1-2.5,1.5l-5.7-3.2c-1.2-0.7-1.2-2.4,0-3.1l5.7-3.3C14.2,13,15.7,13.8,15.7,15.1z"
		/>
</g>
</svg>
