<?xml version="1.0" encoding="utf-8"?>
<!-- Generator: Adobe Illustrator 20.0.0, SVG Export Plug-In . SVG Version: 6.00 Build 0)  -->
<svg version="1.1" id="Layer_1" xmlns="http://www.w3.org/2000/svg" xmlns:xlink="http://www.w3.org/1999/xlink" x="0px" y="0px"
	 viewBox="0 0 300 106" style="enable-background:new 0 0 300 106;" xml:space="preserve">
<style type="text/css">
	.st0{fill:#FFFFFF;}
	.st1{fill:#D3E4ED;}
	.st2{fill:#B6D8EA;}
	.st3{fill:#98CCE7;}
	.st4{fill:#7AC1E3;}
	.st5{fill:#47ACDE;}
</style>
<g>
	<path class="st0" d="M132.6,52.7h-6.9c-4.2,0-6.1-0.6-6.9-1.2c-1.1-0.7-1.7-1.9-1.7-3.5v-6.5c0-2.2,0.7-3.7,2.2-4.6
		c1.1-0.7,3.8-1.5,10.4-1.5c3.7,0,8.7,0.5,15.3,1.5l1.2,0.2v-8.7l-0.9-0.1c-5.8-0.6-10.7-1-14.9-1c-8.9,0-14.9,1.1-18.3,3.5
		c-3.5,2.4-5.3,6-5.3,11v4.6c0,4.8,1.2,8.5,3.7,11c2.5,2.6,6.7,3.8,12.8,3.8h6.7c4.2,0,6,0.8,6.9,1.3c1.1,0.8,1.7,2.3,1.7,4.4v7.4
		c0,2.4-0.8,3.8-2.6,4.6c-2,0.8-5,1.3-8.9,1.3c-5,0-11-0.8-17.8-2.2l-1.2-0.3V87l0.9,0.1c7,1,12.9,1.5,17.7,1.5
		c7.6,0,13.2-1.2,16.8-3.7c3.7-2.5,5.7-7.1,5.7-13.5v-4.2c0-4.9-1.2-8.6-3.5-11C143.1,53.9,138.9,52.7,132.6,52.7z"/>
	<path class="st0" d="M195.4,45.8L195.4,45.8c-2.8-2.6-7.3-3.8-13.2-3.8c-6.7,0-11.3,1-13.7,3.1V43h-9.9v63h10V86.4
		c0.8,0.5,1.8,0.9,3,1.2c2.3,0.6,4.7,0.9,7.1,0.9c2.4,0,4.4-0.1,6.1-0.2c1.7-0.1,3.5-0.6,5.5-1.2s3.7-1.5,4.9-2.6s2.3-2.7,3.1-4.8
		c0.8-2,1.2-4.4,1.2-7.1V55C199.7,51.4,198.3,48.3,195.4,45.8z M189.5,57.9v15.7c0,3.2-0.7,5.3-2,6.1c-1.5,0.9-4.4,1.4-8.5,1.4
		s-6.9-0.5-8.3-1.4c-1.3-0.8-1.9-2.8-1.9-6.1V57.9c0-3.6,0.6-5.9,1.9-6.8c1-0.6,3.2-1.4,8.3-1.4c4.2,0,7,0.5,8.5,1.5
		C188.8,52.1,189.5,54.3,189.5,57.9z"/>
	<rect x="209.8" y="42.8" class="st0" width="10" height="44.9"/>
	<rect x="209.8" y="27.3" class="st0" width="10" height="10.3"/>
	<path class="st0" d="M243.5,44.4c-0.9,0.6-1.7,1.2-2.3,1.8v-3.5h-9.6v44.9h10V56.4c0-2.2,0.7-3.7,2.1-4.4c1.6-0.8,4.2-1.3,7.6-1.3
		h5.4V42h-4.9C249,41.9,246.2,42.8,243.5,44.4z"/>
	<path class="st0" d="M299.9,68V57.5c0-5.8-1.6-9.8-4.7-12.2c-3.1-2.3-7.8-3.5-14.2-3.5c-6.8,0-11.9,1.2-15,3.5
		c-3.3,2.4-4.9,6.5-4.9,12.1v16.9c0,9.4,6.9,14.1,20.7,14.1c5.1,0,10.3-0.6,15.7-1.8l0.8-0.2v-8.3l-1.2,0.3
		c-5.4,1.4-10.2,2.1-14.1,2.1s-7-0.6-8.9-1.7c-1.8-1.1-2.7-2.9-2.7-5.5v-5.4L299.9,68L299.9,68z M280.6,49.2c3.5,0,6,0.4,7.4,1.3
		c1.2,0.8,1.9,2.2,1.9,4.5v5.7h-18.7V55c0-2.3,0.7-3.7,2-4.5C274.7,49.7,277.2,49.2,280.6,49.2z"/>
</g>
<g>
	<path class="st0" d="M78,25.9L44,45.5c-2.3,1.3-5.1-0.3-5.1-2.9V3.4c0-2.6,2.8-4.2,5.1-2.9l34,19.6C80.3,21.3,80.3,24.6,78,25.9z"/>
	<path class="st1" d="M83.5,38.3v34.8c0,2.6-2.8,4.2-5.1,2.9L48.3,58.6c-2.3-1.3-2.3-4.6,0-5.9l30.2-17.4C80.7,34,83.5,35.6,83.5,38.3z"/>
	<path class="st2" d="M70.1,86.7l-26,15c-2.3,1.3-5.1-0.3-5.1-2.9v-30c0-2.6,2.8-4.2,5.1-2.9l26,15C72.4,82.1,72.4,85.4,70.1,86.7z"/>

	<path class="st3" d="M3.9,78.3l21.7-12.5c2.3-1.3,5.1,0.3,5.1,2.9v25.1c0,2.6-2.8,4.2-5.1,2.9L3.9,84.2C1.6,82.9,1.6,79.6,3.9,78.3z"/>
	<path class="st4" d="M21.4,58.6L5,68.1c-2.3,1.3-5.1-0.3-5.1-2.9v-19c0-2.6,2.8-4.2,5.1-2.9l16.5,9.5C23.7,54,23.7,57.3,21.4,58.6z"/>
<path class="st5" d="M30.7,29.7v12.8c0,2.6-2.8,4.2-5.1,2.9L14.5,39c-2.3-1.3-2.3-4.6,0-5.9l11.1-6.4C27.8,25.5,30.7,27.1,30.7,29.7z"/>
</g>
</svg>
