<?xml version="1.0" encoding="utf-8"?>
<!-- Generator: Adobe Illustrator 20.0.0, SVG Export Plug-In . SVG Version: 6.00 Build 0)  -->
<svg version="1.1" id="Layer_1" xmlns="http://www.w3.org/2000/svg" xmlns:xlink="http://www.w3.org/1999/xlink" x="0px" y="0px"
	 viewBox="0 0 115 40" style="enable-background:new 0 0 115 40;" xml:space="preserve">
<style type="text/css">
	.st0 {fill:#FFFFFF;}

	.st1 {
		fill: #FFFFFF;
		animation: opacity-st1 1.5s infinite;
		}

		@keyframes opacity-st1 {
			<!-- fade in  -->
			0% {
				opacity: 0;
				}
			20% {
				opacity: 1;
				}	

			<!-- fade out  -->
			48% {
				opacity: 1;
				}
			58% {
				opacity: 0;
				}
		100% {
			opacity: 0;
			}
		}

	.st2 {
		fill: #E2E0FF;
		animation: opacity-st2 1.5s infinite;
		}

		@keyframes opacity-st2 {
		0% {
			opacity: 0;
			}
			<!-- fade in  -->
			8% {
				opacity: 0;
				}
			28% {
				opacity: 1;
				}
			<!-- fade out  -->		
			56% {
				opacity: 1;
				}
			66% {
				opacity: 0;
				}

		100% {
			opacity: 0;
			}
		}

	.st3 {
		fill: #B9B4EC;
		animation: opacity-st3 1.5s infinite;
		}

		@keyframes opacity-st3 {
		0% {
			opacity: 0;
			}
			<!-- fade in  -->
			16% {
				opacity: 0;
				}
			36% {
				opacity: 1;
				}
			<!-- fade out  -->
			64% {
				opacity: 1;
				}
			74% {
				opacity: 0;
				}

		100% {
			opacity: 0;
			}

		}

	.st4 {
		fill: #8D78EC;
		animation: opacity-st4 1.5s infinite;
		}

		@keyframes opacity-st4 {
		0% {
			opacity: 0;
			}
			<!-- fade in  -->
			24% {
				opacity: 0;
				}
			44% {
				opacity: 1;
				}
			<!-- fade out  -->
			72% {
				opacity: 1;
				}
			82% {
				opacity: 0;
				}

		100% {
			opacity: 0;
			}
		}

	.st5 {
		fill: #684BC7;
		animation: opacity-st5 1.5s infinite;
		}

		@keyframes opacity-st5 {
		0% {
			opacity: 0;
			}
			<!-- fade in  -->
			32% {
				opacity: 0;
				}
			52% {
				opacity: 1;
				}
			<!-- fade in  -->
			80% {
				opacity: 1;
				}
			90% {
				opacity: 0;
				}

		100% {
			opacity: 0;
			}

		}

	.st6 {
		fill: #5A3AAC;
		animation: opacity-st6 1.5s infinite;
		}

		@keyframes opacity-st6 {
		0% {
			opacity: 0;
			}
			<!-- fade in  -->
			40% {
				opacity: 0;
				}
			60% {
				opacity: 1;
				}
			<!-- fade out  -->
			88% {
				opacity: 1;
				}
			98% {
				opacity: 0;
				}

		100% {
			opacity: 0;
			}

		}

</style>

<g>
	<path class="st0" d="M50.9,19.6h-2.6c-1.6,0-2.3-0.2-2.7-0.5S45,18.4,45,17.7v-2.5c0-0.9,0.3-1.4,0.9-1.8c0.4-0.3,1.5-0.6,4-0.6
		c1.4,0,3.3,0.2,5.8,0.6l0.5,0.1v-3.3h-0.3C53.5,10,51.6,9.9,50,9.9c-3.4,0-5.7,0.4-7,1.3c-1.3,0.9-2,2.3-2,4.2v1.8
		c0,1.8,0.5,3.3,1.4,4.2c1,1,2.6,1.5,4.9,1.5h2.6c1.6,0,2.3,0.3,2.6,0.5c0.4,0.3,0.6,0.9,0.6,1.7v2.8c0,0.9-0.3,1.5-1,1.8
		c-0.8,0.3-1.9,0.5-3.4,0.5c-1.9,0-4.2-0.3-6.8-0.9l-0.5-0.1v3.6l0.3,0.1c2.7,0.4,4.9,0.6,6.8,0.6c2.9,0,5-0.5,6.5-1.4
		c1.4-1,2.2-2.7,2.2-5.2v-1.6c0-1.9-0.5-3.3-1.3-4.2C54.9,20,53.3,19.6,50.9,19.6z"/>

	<path class="st0" d="M75,16.9L75,16.9c-1.1-1-2.8-1.5-5-1.5c-2.6,0-4.3,0.4-5.2,1.2v-0.8H61V40h3.8v-7.5c0.3,0.2,0.7,0.3,1.1,0.5
		c0.9,0.2,1.8,0.3,2.7,0.3c0.9,0,1.7,0,2.3-0.1c0.7-0.1,1.4-0.2,2.1-0.5s1.4-0.6,1.9-1c0.5-0.4,0.9-1,1.2-1.8
		c0.3-0.8,0.5-1.7,0.5-2.7v-6.7C76.6,19.1,76.1,17.9,75,16.9z M72.7,21.6v6c0,1.2-0.3,2-0.8,2.3c-0.6,0.3-1.7,0.5-3.3,0.5
		c-1.6,0-2.6-0.2-3.2-0.5c-0.5-0.3-0.7-1.1-0.7-2.3v-6c0-1.4,0.2-2.3,0.7-2.6c0.4-0.2,1.2-0.5,3.2-0.5c1.6,0,2.7,0.2,3.3,0.6
		C72.4,19.3,72.7,20.2,72.7,21.6z"/>

	<rect x="80.5" y="15.8" class="st0" width="3.8" height="17.2"/>

	<rect x="80.5" y="9.8" class="st0" width="3.8" height="4"/>

	<path class="st0" d="M93.4,16.4c-0.3,0.2-0.6,0.5-0.9,0.7v-1.3h-3.7V33h3.8V21c0-0.9,0.3-1.4,0.8-1.7c0.6-0.3,1.6-0.5,2.9-0.5h2.1
		v-3.3h-1.9C95.5,15.5,94.4,15.8,93.4,16.4z"/>

	<path class="st0" d="M115,25.4v-4c0-2.2-0.6-3.8-1.8-4.7c-1.2-0.9-3-1.3-5.4-1.3c-2.6,0-4.5,0.5-5.8,1.4c-1.2,0.9-1.9,2.5-1.9,4.6
		v6.5c0,3.6,2.7,5.4,7.9,5.4c1.9,0,4-0.2,6-0.7l0.3-0.1v-3.2l-0.5,0.1c-2.1,0.5-3.9,0.8-5.4,0.8s-2.7-0.2-3.4-0.7
		c-0.7-0.4-1-1.1-1-2.1v-2.1L115,25.4L115,25.4z M107.6,18.2c1.4,0,2.3,0.2,2.8,0.5s0.7,0.9,0.7,1.7v2.2H104v-2.2
		c0-0.9,0.3-1.4,0.8-1.7C105.4,18.4,106.3,18.2,107.6,18.2z"/>
</g>

<g>
	<path class="st1" d="M29.9,9.9l-13,7.5C16,17.9,15,17.3,15,16.3v-15c0-1,1.1-1.6,1.9-1.1l13,7.5C30.8,8.2,30.8,9.4,29.9,9.9z">
	</path>

	<path class="st2" d="M32,14.7V28c0,1-1.1,1.6-1.9,1.1l-11.6-6.7c-0.9-0.5-0.9-1.8,0-2.3l11.6-6.7C31,13,32,13.7,32,14.7z">
	</path>

	<path class="st3" d="M26.9,33.2l-10,5.8C16,39.5,15,38.9,15,37.9V26.4c0-1,1.1-1.6,1.9-1.1l10,5.8C27.8,31.5,27.8,32.7,26.9,33.2z">
	</path>

	<path class="st4" d="M1.5,30l8.3-4.8c0.9-0.5,1.9,0.1,1.9,1.1v9.6c0,1-1.1,1.6-1.9,1.1l-8.3-4.8C0.7,31.8,0.7,30.5,1.5,30z">
	</path>

	<path class="st5" d="M8.2,22.4l-6.3,3.7C1.1,26.6,0,26,0,25v-7.3c0-1,1.1-1.6,1.9-1.1l6.3,3.6C9.1,20.7,9.1,21.9,8.2,22.4z">
	</path>

	<path class="st6" d="M11.8,11.4v4.9c0,1-1.1,1.6-1.9,1.1L5.6,15c-0.9-0.5-0.9-1.8,0-2.3l4.3-2.5C10.7,9.8,11.8,10.4,11.8,11.4z">
	</path>

</g>
</svg>
