<?xml version="1.0" encoding="utf-8"?>
<!-- Generator: Adobe Illustrator 22.1.0, SVG Export Plug-In . SVG Version: 6.00 Build 0)  -->
<svg version="1.1" id="Layer_1" xmlns="http://www.w3.org/2000/svg" xmlns:xlink="http://www.w3.org/1999/xlink" x="0px" y="0px"
	 viewBox="0 0 100 100" style="enable-background:new 0 0 100 100;" xml:space="preserve">
<style type="text/css">
	.st0{fill:#684BC7;}
</style>
<g>
	<path class="st0" d="M86.5,15.6C83.8,6.6,75.5,0,65.6,0c-9.9,0-18.2,6.6-20.9,15.6H0c0,0,0,0,0,0v12.5h44.8
		c2.7,9,11,15.6,20.9,15.6c9.9,0,18.2-6.6,20.9-15.6H100l0,0V15.6H86.5z M65.6,28.1c-3.5,0-6.2-2.8-6.2-6.2c0-3.5,2.8-6.2,6.2-6.2
		s6.2,2.8,6.2,6.2C71.9,25.3,69.1,28.1,65.6,28.1z"/>
	<path class="st0" d="M13.5,84.4c2.7,9,11,15.6,20.9,15.6c9.9,0,18.2-6.6,20.9-15.6H100c0,0,0,0,0,0V71.9H55.2
		c-2.7-9-11-15.6-20.9-15.6c-9.9,0-18.2,6.6-20.9,15.6H0l0,0v12.5H13.5z M34.4,71.9c3.5,0,6.2,2.8,6.2,6.2c0,3.5-2.8,6.2-6.2,6.2
		s-6.2-2.8-6.2-6.2C28.1,74.7,30.9,71.9,34.4,71.9z"/>
</g>
</svg>
