<?xml version="1.0" encoding="utf-8"?>
<!-- Generator: Adobe Illustrator 23.0.1, SVG Export Plug-In . SVG Version: 6.00 Build 0)  -->
<svg version="1.1" id="Layer_1" xmlns="http://www.w3.org/2000/svg" xmlns:xlink="http://www.w3.org/1999/xlink" x="0px" y="0px"
	 viewBox="0 0 100 100" style="enable-background:new 0 0 100 100;" xml:space="preserve">
<style type="text/css">
	.st0{fill:#4B23A0;}
</style>
<g>
	<path class="st0" d="M91.2,0L75.8,15.4L67,6.5l-8.8,8.8l15.5,15.5c1.2,1.2,3.2,1.2,4.4,0l22-22L91.2,0z"/>
	<path class="st0" d="M34.6,30.1c-1.1-0.3-2.1-0.6-2.4-0.7c-0.8-0.3-1-1.4-0.3-1.9c2.4-1.9,4.3-4.5,5.5-7.5c0.1-0.3,0.4-0.6,0.7-0.7
		c0.8-0.2,1.6-0.7,1.8-1.5c0.4-1.7,0.5-3.4-1-3.4c-0.1,0-0.2,0-0.3,0c0-0.3,0-0.6,0-0.9C38.7,6.1,32.6,0,25,0
		c-7.6,0-13.7,6.1-13.7,13.7c0,0.3,0,0.6,0,0.8c-0.1,0-0.2,0-0.3,0c-1.5,0-1.4,1.6-1,3.4c0.2,0.8,1,1.3,1.8,1.5
		c0.3,0.1,0.6,0.3,0.7,0.7c1.2,2.9,3.1,5.6,5.5,7.5c0.7,0.5,0.5,1.6-0.3,1.9c-2,0.6-4.3,1.2-6.6,1.6C3,32.5,0,36.7,0,41.5v11.7
		c0,1.7,1.4,3.1,3.1,3.1h19.3C22.4,45.8,27.2,36.4,34.6,30.1z"/>
	<path class="st0" d="M69.1,73.9c-3.2-0.6-6.3-1.4-9.1-2.2c-1.2-0.4-1.4-1.9-0.5-2.6c3.3-2.5,5.9-6.2,7.6-10.3
		c0.2-0.4,0.6-0.8,1-0.9c1.1-0.3,2.2-0.9,2.5-2.1c0.6-2.4,0.6-4.7-1.4-4.6c-0.1,0-0.3,0-0.4,0.1c0-0.4,0.1-0.8,0.1-1.2
		c0-10.4-8.4-18.9-18.9-18.9s-18.9,8.4-18.9,18.9c0,0.4,0,0.8,0.1,1.1c-0.1,0-0.2-0.1-0.4-0.1c-2-0.1-2,2.2-1.4,4.6
		c0.3,1.2,1.4,1.8,2.5,2.1c0.5,0.1,0.8,0.5,1,0.9c1.6,4,4.3,7.8,7.6,10.3c1,0.7,0.7,2.3-0.5,2.6c-2.8,0.9-5.9,1.7-9.1,2.2
		c-11.2,1.9-15.3,7.8-15.3,14.3v8.6c0,1.7,1.4,3.1,3.1,3.1h62.5c1.7,0,3.1-1.4,3.1-3.1v-8.6C84.4,81.7,80.3,75.9,69.1,73.9z"/>
</g>
</svg>
