<svg width="16" height="16" viewBox="0 0 16 16" fill="none" xmlns="http://www.w3.org/2000/svg">
<path fill-rule="evenodd" clip-rule="evenodd" d="M8 0C12.4183 0 16 3.58172 16 8C16 12.4183 12.4183 16 8 16C3.58172 16 0 12.4183 0 8C0 3.58172 3.58172 0 8 0ZM4.77148 13.0557C5.70384 13.6523 6.81095 14 8 14C11.3137 14 14 11.3137 14 8C14 6.81095 13.6523 5.70384 13.0557 4.77148L4.77148 13.0557ZM8 2C4.68629 2 2 4.68629 2 8C2 9.4017 2.48261 10.6896 3.28809 11.7109L11.7109 3.28809C10.6896 2.48261 9.4017 2 8 2Z" fill="#E63F44"/>
</svg>
