<?xml version="1.0" encoding="utf-8"?>
<!-- Generator: Adobe Illustrator 23.0.1, SVG Export Plug-In . SVG Version: 6.00 Build 0)  -->
<svg version="1.1" id="Layer_1" xmlns="http://www.w3.org/2000/svg" xmlns:xlink="http://www.w3.org/1999/xlink" x="0px" y="0px"
	 viewBox="0 0 100 100" style="enable-background:new 0 0 100 100;" xml:space="preserve">
<style type="text/css">
	.st0{fill:#4B23A0;}
</style>
<g>
	<path class="st0" d="M63.1,69.2c-3.8-0.7-7.5-1.6-10.8-2.6c-1.4-0.4-1.7-2.2-0.6-3.1c3.9-3,7-7.4,9-12.2c0.2-0.5,0.7-0.9,1.2-1.1
		c1.3-0.4,2.6-1.1,2.9-2.5c0.7-2.8,0.7-5.5-1.6-5.5c-0.2,0-0.3,0-0.4,0.1c0-0.5,0.1-0.9,0.1-1.4c0-12.3-10-22.3-22.3-22.3
		S18.3,28.7,18.3,41c0,0.4,0,0.9,0.1,1.3c-0.1,0-0.3-0.1-0.4-0.1c-2.4-0.1-2.3,2.6-1.6,5.5c0.3,1.4,1.7,2.1,2.9,2.4
		c0.5,0.2,1,0.5,1.2,1.1c1.9,4.8,5.1,9.2,9,12.2c1.1,0.9,0.8,2.6-0.6,3.1c-3.3,1-7,2-10.8,2.6C4.9,71.5,0,78.4,0,86.1v10.8
		c0,1.7,1.4,3.1,3.1,3.1h37.5h37.5c1.7,0,3.1-1.4,3.1-3.1V86.1C81.2,78.4,76.4,71.5,63.1,69.2z"/>
	<path class="st0" d="M91.2,0L75.8,15.4L67,6.5l-8.8,8.8l15.5,15.5c1.2,1.2,3.2,1.2,4.4,0l22-22L91.2,0z"/>
</g>
</svg>
