<?xml version="1.0" encoding="utf-8"?>
<!-- Generator: Adobe Illustrator 22.0.1, SVG Export Plug-In . SVG Version: 6.00 Build 0)  -->
<svg version="1.1" id="Layer_1" xmlns="http://www.w3.org/2000/svg" xmlns:xlink="http://www.w3.org/1999/xlink" x="0px" y="0px"
	 viewBox="0 0 100 100" style="enable-background:new 0 0 100 100;" xml:space="preserve">
<style type="text/css">
	.st0{fill:#FFFFFF;}
</style>
<g>
	<ellipse class="st0" cx="62.7" cy="64.3" rx="17.3" ry="17.3"/>
	<g>
		<path class="st0" d="M86,64.4c0,2.3-0.2,4.7-1,7c-1.6,5.1-4.9,9.2-9,12l8.6,16.6h9.1c3.5,0,6.2-2.8,6.2-6.2V82.9
			C100,75.3,96,68.3,86,64.4z"/>
		<path class="st0" d="M70.6,86.2c-4.7,1.7-9.9,2-15,0.4c-12.3-3.9-19.1-17.1-15.2-29.4S57.5,38.1,69.8,42c1.2,0.4,2.3,0.9,3.4,1.5
			c0.6-1.1,1.1-2.2,1.6-3.4c0.3-0.6,0.8-1.1,1.5-1.3c1.6-0.4,3.2-1.3,3.6-3c0.9-3.5,0.9-6.8-2-6.7c-0.2,0-0.4,0-0.5,0.1
			c0-0.6,0.1-1.2,0.1-1.7C77.4,12.3,65.2,0,50,0S22.6,12.3,22.6,27.4c0,0.5,0,1.1,0.1,1.7c-0.2,0-0.3-0.1-0.5-0.1
			c-2.9-0.1-2.9,3.2-2,6.7c0.4,1.7,2,2.6,3.6,3c0.7,0.2,1.2,0.7,1.5,1.3c2.4,5.9,6.2,11.3,11.1,15c1.4,1.1,1,3.3-0.7,3.8
			c-4,1.2-8.6,2.4-13.2,3.2C6,64.9,0,73.4,0,82.9v10.8c0,3.5,2.8,6.2,6.2,6.2H50h27.8L70.6,86.2z"/>
	</g>
</g>
</svg>
