<?xml version="1.0" encoding="utf-8"?>
<!-- Generator: Adobe Illustrator 22.0.1, SVG Export Plug-In . SVG Version: 6.00 Build 0)  -->
<svg version="1.1" id="Layer_1" xmlns="http://www.w3.org/2000/svg" xmlns:xlink="http://www.w3.org/1999/xlink" x="0px" y="0px"
	 viewBox="0 0 100 100" style="enable-background:new 0 0 100 100;" xml:space="preserve">
<style type="text/css">
	.st0{fill:#FFFFFF;}
</style>
<path class="st0" d="M66.3,77.9V62.5H32.8c-0.9,0-1.6-0.7-1.6-1.6V39.1c0-0.9,0.7-1.6,1.6-1.6h33.4V22.1c0-1.3,1.5-2,2.6-1.2
	l31.2,26V6.2c0-3.5-2.8-6.2-6.2-6.2H6.2C2.8,0,0,2.8,0,6.2v87.5c0,3.5,2.8,6.2,6.2,6.2h87.5c3.5,0,6.2-2.8,6.2-6.2V53.1l-31.2,26
	C67.8,80,66.3,79.2,66.3,77.9z"/>
</svg>
