<?xml version="1.0" encoding="utf-8"?>
<!-- Generator: Adobe Illustrator 25.4.1, SVG Export Plug-In . SVG Version: 6.00 Build 0)  -->
<svg version="1.1" id="Layer_1" xmlns="http://www.w3.org/2000/svg" xmlns:xlink="http://www.w3.org/1999/xlink" x="0px" y="0px"
	 viewBox="0 0 64 40" style="enable-background:new 0 0 64 40;" xml:space="preserve">
<style type="text/css">
	.st0{fill:#FFFFFF;}
	.st1{fill:#012682;}
	.st2{fill:#D3142E;}
</style>
<g id="White_Diagonal_Flipped" transform="matrix(-1,0,0,1,11259.559,0)">
	<path id="White_Diagonal_00000047767236957242340930000007414986325023230874_" class="st0" d="M26.2,0h-2.9L0,15.6v2h2.9L26.2,1.9
		V0z"/>
</g>
<g>
	<path id="path19965" class="st1" d="M0,0h64v40H0V0z"/>
	<polygon id="Commonwealth_Star" class="st0" points="11.6,27.3 14.9,28.6 16,25.2 17,28.6 20.5,27.3 18.4,30.3 21.5,32.2 18,32.5 
		18.4,36 16,33.4 13.5,36 14.1,32.5 10.5,32.2 13.5,30.3 	"/>
	<polygon id="Star_Alpha_Crucis" class="st0" points="46.1,32.5 47.9,33.1 48.4,31.3 49,33.1 50.8,32.5 49.7,34.1 51.4,35.1 
		49.5,35.2 49.7,37.1 48.4,35.8 47.2,37.1 47.4,35.2 45.5,35.1 47.2,34.1 	"/>
	<polygon id="Star_Beta_Crucis" class="st0" points="35.4,15.4 37.2,16.2 37.7,14.3 38.3,16.2 40.1,15.4 39,17 40.7,18 38.8,18.2 
		39,20.2 37.7,18.7 36.3,20.2 36.7,18.2 34.7,18 36.3,17 	"/>
	<polygon id="Star_Gamma_Crucis" class="st0" points="46.1,3.8 47.9,4.5 48.4,2.6 49,4.5 50.8,3.8 49.7,5.4 51.4,6.4 49.5,6.5 
		49.7,8.5 48.4,7.1 47.2,8.5 47.4,6.5 45.5,6.4 47.2,5.4 	"/>
	<polygon id="Star_Delta_Crucis" class="st0" points="55.6,12.6 57.4,13.2 58,11.4 58.6,13.2 60.5,12.6 59.4,14.2 61,15.2 
		59.1,15.3 59.4,17.3 58,15.9 56.7,17.3 56.9,15.3 55,15.2 56.7,14.2 	"/>
	<polygon id="Star_Epsilon_Crucis" class="st0" points="54.5,21.3 53.5,22.1 53.8,23.4 52.8,22.6 51.7,23.4 52.1,22.1 51.1,21.3 
		52.3,21.2 52.8,20.1 53.3,21.2 	"/>
	<polygon class="st0" points="31.9,0 28.6,0 18.7,6.7 18.7,0 13.3,0 13.3,6.6 3.5,0 0,0 0,2.3 7.1,7.1 0,7.1 0,14.4 7.3,14.4 
		0,19.4 0,21.7 3.5,21.7 13.3,15.1 13.3,21.6 18.7,21.6 18.7,15 28.4,21.6 31.9,21.6 31.9,19.1 24.9,14.4 31.9,14.4 31.9,7.2 
		25.1,7.2 31.9,2.6 	"/>
	<path id="Red_Cross" class="st2" d="M14.4,0h3.2v8.5h14.4v4.3H17.6v8.7h-3.2v-8.7H0V8.5h14.4V0z"/>
	<path id="Red_Diagonals" class="st2" d="M0,0l10.7,7.2H8.3L0,1.6V0z M31.9,0h-2.4L18.8,7.2h2.4L31.9,0z"/>
	<path id="Red_Diagonals_00000155853035101778030070000001608261224263154840_" class="st2" d="M31.9,21.7l-10.7-7.2h2.4l8.3,5.6
		V21.7z M0,21.7h2.4l10.7-7.2h-2.4L0,21.7z"/>
</g>
<g id="Red_Diagonals_Rotated" transform="rotate(180,5629.7793,3780)">
	<path id="Red_Diagonals_00000174594892376390667930000010313476403386861472_" class="st2" d="M26.2,17.6l-8.8-5.9h2l6.8,4.6V17.6z
		 M0,17.6h2l8.8-5.9h-2L0,17.6z"/>
</g>
</svg>
