<?xml version="1.0" encoding="UTF-8"?><svg id="AU" xmlns="http://www.w3.org/2000/svg" xmlns:xlink="http://www.w3.org/1999/xlink" viewBox="0 0 64 40"><defs><style>.cls-1{clip-path:url(#clippath);}.cls-2{fill:none;}.cls-2,.cls-3,.cls-4{stroke-width:0px;}.cls-5{clip-path:url(#clippath-1);}.cls-6{stroke-width:2.39px;}.cls-6,.cls-7{stroke:red;}.cls-6,.cls-7,.cls-8,.cls-9{stroke-miterlimit:426.67;}.cls-7,.cls-8{stroke-width:3.59px;}.cls-8,.cls-9{stroke:#fff;}.cls-9{stroke-width:5.98px;}.cls-3{fill:#fff;}.cls-4{fill:#00008b;}</style><clipPath id="clippath"><rect class="cls-2" x="0" width="64" height="40"/></clipPath><clipPath id="clippath-1"><path class="cls-2" d="M.02.02v9.99h37.64v9.99h-5.38L.02.02ZM32.27.02h-16.12v23.3H.02v-3.33L32.27.02Z"/></clipPath></defs><g class="cls-1"><rect class="cls-4" x=".02" y=".02" width="79.95" height="39.98"/><path class="cls-8" d="M.04,0l32.24,19.99M32.28,0L.04,19.99"/><g class="cls-5"><path class="cls-6" d="M.04,0l32.24,19.99M32.28,0L.04,19.99"/></g><path class="cls-9" d="M16.17.02v23.3M.02,9.99h37.64"/><path class="cls-7" d="M16.15.02v23.3M.02,10.02h37.64"/><path class="cls-4" d="M.02,19.95h32.24V.02h10.73v26.61H.02v-6.68Z"/><g id="Comwlth"><g id="Cstar"><path id="Star7" class="cls-3" d="M16.03,24.99l1.16,3.6,3.53-1.34-2.09,3.15,3.25,1.93-3.76.33.52,3.74-2.6-2.74-2.6,2.74.52-3.74-3.76-.33,3.25-1.93-2.09-3.15,3.53,1.34,1.16-3.6Z"/></g></g><g id="_αCrucis"><path id="Star7-2" class="cls-3" d="M48.01,31.46l.55,1.71,1.68-.64-1,1.5,1.55.92-1.79.16.25,1.78-1.24-1.3-1.24,1.3.25-1.78-1.79-.16,1.55-.92-1-1.5,1.68.64.55-1.71Z"/></g><g id="_βCrucis"><path id="Star7-3" class="cls-3" d="M38.01,14.63l.55,1.71,1.68-.64-1,1.5,1.55.92-1.79.16.25,1.78-1.24-1.3-1.24,1.3.25-1.78-1.79-.16,1.55-.92-1-1.5,1.68.64.55-1.71Z"/></g><g id="_γCrucis"><path id="Star7-4" class="cls-3" d="M48.01,2.81l.55,1.71,1.68-.64-1,1.5,1.55.92-1.79.16.25,1.78-1.24-1.3-1.24,1.3.25-1.78-1.79-.16,1.55-.92-1-1.5,1.68.64.55-1.71Z"/></g><g id="_δCrucis"><path id="Star7-5" class="cls-3" d="M58.89,11.97l.55,1.71,1.68-.64-1,1.5,1.55.92-1.79.16.25,1.78-1.24-1.3-1.24,1.3.25-1.78-1.79-.16,1.55-.92-1-1.5,1.68.64.55-1.71Z"/></g><g id="_εCrucis"><path id="Star5" class="cls-3" d="M53.01,19.99l.44,1.07,1.15.08-.88.74.27,1.12-.98-.61-.98.61.27-1.12-.88-.74,1.15-.08.44-1.07Z"/></g></g></svg>