<?xml version="1.0" encoding="UTF-8"?><svg id="BRA" xmlns="http://www.w3.org/2000/svg" xmlns:xlink="http://www.w3.org/1999/xlink" viewBox="0 0 64 40"><defs><style>.cls-1{clip-path:url(#clippath);}.cls-2{fill:none;}.cls-2,.cls-3,.cls-4,.cls-5,.cls-6,.cls-7{stroke-width:0px;}.cls-8{clip-path:url(#clippath-1);}.cls-9{clip-path:url(#clippath-2);}.cls-3{fill-rule:evenodd;}.cls-3,.cls-4{fill:#009b3a;}.cls-5{fill:#fedf00;}.cls-6{fill:#fff;}.cls-7{fill:#002776;}</style><clipPath id="clippath"><rect class="cls-2" width="64" height="40"/></clipPath><clipPath id="clippath-1"><circle class="cls-2" cx="32" cy="20" r="11.2"/></clipPath><clipPath id="clippath-2"><path class="cls-2" d="M35.47,18.49l.43-.98.88.38-.43.98-.88-.38ZM36.2,18.02l-.07.17.44.19.07-.17-.44-.19Z"/></clipPath></defs><g class="cls-1"><path class="cls-4" d="M0-2.4h64v44.8H0V-2.4Z"/><path class="cls-5" d="M5.44,20l26.56,16.96,26.56-16.96L32,3.04,5.44,20Z"/><circle class="cls-7" cx="32" cy="20" r="11.2"/><g class="cls-8"><path class="cls-6" d="M-1.6,42.4c0-15.02,12.18-27.2,27.2-27.2s27.2,12.18,27.2,27.2h-1.6c0-14.14-11.46-25.6-25.6-25.6S0,28.26,0,42.4h-1.6Z"/></g><path id="O" class="cls-3" d="M22.45,16.73c.26-.03.45-.3.41-.59s-.28-.5-.54-.47-.45.3-.41.59.28.5.54.47M22.42,16.53c.15-.02.26-.18.24-.37s-.17-.32-.32-.3-.26.18-.24.37.17.32.32.3"/><g id="R"><path id="P" class="cls-3" d="M23.32,16.63h.2s-.03-.41-.03-.41l.43-.03c.18-.01.32-.17.31-.36s-.17-.32-.36-.31l-.61.04.06,1.07ZM23.47,16.02l.41-.03c.08,0,.13-.07.13-.15s-.07-.13-.15-.13l-.41.03.02.27Z"/><path class="cls-4" d="M24.22,16.57c-.01-.15-.03-.49-.26-.47l-.29.02c.33-.02.36.31.37.46"/></g><path id="D" class="cls-3" d="M24.67,16.55h.5c.25-.01.45-.22.45-.47v-.15c0-.25-.22-.45-.47-.45h-.5s.02,1.08.02,1.08ZM24.86,16.34h.29c.16,0,.29-.14.28-.3v-.09c0-.16-.14-.29-.3-.28h-.29s.01.68.01.68Z"/><path id="E" class="cls-4" d="M26.02,16.53l.96.03v-.2s-.77-.03-.77-.03v-.27s.62.02.62.02v-.18s-.6-.02-.6-.02v-.21s.74.03.74.03v-.2s-.91-.03-.91-.03l-.04,1.07Z"/><path id="M" class="cls-4" d="M27.38,16.59l.18.02.06-.73.15.75h.17s.28-.7.28-.7l-.06.73.18.02.09-1.06-.27-.02-.28.71-.15-.75-.27-.02-.09,1.06Z"/><path id="e" class="cls-4" d="M29.59,16.84l.79.14.03-.18-.61-.1.04-.24.5.09.03-.18-.5-.09.03-.17.59.1.03-.18-.77-.13-.16.95Z"/><path id="P-2" class="cls-3" d="M31.61,17.24l.19.05.1-.38.41.11c.18.05.36-.06.41-.24s-.06-.36-.24-.41l-.59-.15-.28,1.03ZM31.95,16.71l.4.1c.07.02.15-.03.17-.1s-.03-.15-.1-.17l-.4-.1-.07.27Z"/><g id="R-2"><path id="P-3" class="cls-3" d="M32.92,17.59l.19.06.12-.38.41.13c.18.06.36-.04.42-.22s-.04-.36-.22-.42l-.58-.18-.34,1.01ZM33.29,17.08l.39.12c.07.02.15-.02.17-.09s-.02-.15-.09-.17l-.39-.12-.08.26Z"/><path class="cls-4" d="M33.79,17.86c.05-.15.15-.47-.07-.53l-.28-.09c.32.1.22.42.17.57"/></g><path id="O-2" class="cls-3" d="M34.66,18.17c.25.09.53-.06.64-.33s-.01-.57-.26-.67-.53.06-.64.33.01.57.26.67M34.73,17.99c.15.05.32-.04.38-.22s0-.36-.15-.41-.32.04-.38.22,0,.36.15.41"/><g id="G"><g class="cls-9"><path id="O-3" class="cls-3" d="M35.91,18.68c.24.11.54-.03.65-.3s.02-.57-.23-.68-.54.03-.65.3-.02.57.23.68M35.99,18.5c.14.06.32-.03.39-.2s.02-.36-.12-.42-.32.03-.39.2-.02.36.12.42"/></g><path class="cls-4" d="M36.2,18.22l.37.16-.06.14-.37-.16.06-.14Z"/><path class="cls-4" d="M36.43,18.32l.14.06-.21.49-.14-.06.21-.49Z"/></g><g id="R-3"><path id="P-4" class="cls-3" d="M36.71,19.04l.18.09.18-.35.38.19c.17.08.37.02.45-.15s.02-.37-.15-.45l-.55-.27-.49.95ZM37.15,18.59l.37.18c.07.03.15,0,.18-.06s0-.15-.06-.18l-.37-.18-.12.25Z"/><path class="cls-4" d="M37.52,19.44c.07-.14.22-.44.01-.54l-.26-.13c.3.15.15.45.08.59"/></g><path id="E-2" class="cls-4" d="M37.92,19.65l.84.47.1-.17-.68-.38.14-.24.53.3.09-.16-.53-.3.11-.19.64.36.1-.17-.8-.45-.53.93Z"/><path id="S" class="cls-4" d="M39.48,20.17c-.06.09,0,.19.13.27s.22.08.25.02c.12-.18-.56-.45-.35-.77.18-.27.49-.06.6.01s.3.26.16.48l-.2-.12c.06-.1,0-.19-.11-.25s-.18-.09-.24,0c-.1.15.56.43.36.75-.15.23-.41.13-.58.02-.15-.09-.37-.32-.22-.54l.2.13Z"/><path id="S-2" class="cls-4" d="M40.62,20.93c-.06.09,0,.19.11.28s.21.09.25.03c.13-.18-.53-.48-.31-.79.19-.26.49-.04.6.04s.29.28.13.49l-.19-.13c.07-.09,0-.19-.1-.26s-.18-.1-.24-.01c-.11.14.54.46.32.77-.16.23-.42.11-.58,0-.14-.1-.35-.34-.2-.55l.2.14Z"/><path id="O-4" class="cls-3" d="M41.7,22.16c.21.17.52.11.71-.12s.16-.55-.04-.72-.52-.11-.71.12-.16.55.04.72M41.83,22c.12.1.31.06.43-.09s.11-.34-.01-.44-.31-.06-.43.09-.11.34.01.44"/><g id="_αCMi"><g id="star1"><g id="star"><g id="c"><path id="t" class="cls-6" d="M22.86,17.51l-.15.46.23.07"/><path id="t-2" class="cls-6" d="M22.86,17.51l.15.46-.23.07"/></g><g id="c-2"><path id="t-3" class="cls-6" d="M23.31,17.84h-.48v.24"/><path id="t-4" class="cls-6" d="M23.31,17.84l-.39.28-.14-.19"/></g><g id="c-3"><path id="t-5" class="cls-6" d="M22.4,17.84l.39.28.14-.19"/><path id="t-6" class="cls-6" d="M22.4,17.84h.48v.24"/></g><g id="c-4"><path id="t-7" class="cls-6" d="M23.14,18.38l-.15-.46-.23.07"/><path id="t-8" class="cls-6" d="M23.14,18.38l-.39-.28.14-.19"/></g><g id="c-5"><path id="t-9" class="cls-6" d="M22.58,18.38l.39-.28-.14-.19"/><path id="t-10" class="cls-6" d="M22.58,18.38l.15-.46.23.07"/></g></g></g></g><g id="_αCMa"><g id="star1-2"><g id="star-2"><g id="c-6"><path id="t-11" class="cls-6" d="M23.85,22.22l-.15.46.23.07"/><path id="t-12" class="cls-6" d="M23.85,22.22l.15.46-.23.07"/></g><g id="c-7"><path id="t-13" class="cls-6" d="M24.3,22.55h-.48v.24"/><path id="t-14" class="cls-6" d="M24.3,22.55l-.39.28-.14-.19"/></g><g id="c-8"><path id="t-15" class="cls-6" d="M23.39,22.55l.39.28.14-.19"/><path id="t-16" class="cls-6" d="M23.39,22.55h.48v.24"/></g><g id="c-9"><path id="t-17" class="cls-6" d="M24.13,23.09l-.15-.46-.23.07"/><path id="t-18" class="cls-6" d="M24.13,23.09l-.39-.28.14-.19"/></g><g id="c-10"><path id="t-19" class="cls-6" d="M23.57,23.09l.39-.28-.14-.19"/><path id="t-20" class="cls-6" d="M23.57,23.09l.15-.46.23.07"/></g></g></g></g><g id="_βCMa"><g id="star2"><g id="star-3"><g id="c-11"><path id="t-21" class="cls-6" d="M22.48,23.3l-.12.38.19.06"/><path id="t-22" class="cls-6" d="M22.48,23.3l.12.38-.19.06"/></g><g id="c-12"><path id="t-23" class="cls-6" d="M22.86,23.58h-.4v.2"/><path id="t-24" class="cls-6" d="M22.86,23.58l-.32.24-.12-.16"/></g><g id="c-13"><path id="t-25" class="cls-6" d="M22.1,23.58l.32.24.12-.16"/><path id="t-26" class="cls-6" d="M22.1,23.58h.4v.2"/></g><g id="c-14"><path id="t-27" class="cls-6" d="M22.71,24.03l-.12-.38-.19.06"/><path id="t-28" class="cls-6" d="M22.71,24.03l-.32-.24.12-.16"/></g><g id="c-15"><path id="t-29" class="cls-6" d="M22.24,24.03l.32-.24-.12-.16"/><path id="t-30" class="cls-6" d="M22.24,24.03l.12-.38.19.06"/></g></g></g></g><g id="_γCMa"><g id="star4"><g id="star-4"><g id="c-16"><path id="t-31" class="cls-6" d="M24.94,21.78l-.07.22.11.04"/><path id="t-32" class="cls-6" d="M24.94,21.78l.07.22-.11.04"/></g><g id="c-17"><path id="t-33" class="cls-6" d="M25.16,21.94h-.23v.11"/><path id="t-34" class="cls-6" d="M25.16,21.94l-.18.13-.07-.09"/></g><g id="c-18"><path id="t-35" class="cls-6" d="M24.73,21.94l.18.13.07-.09"/><path id="t-36" class="cls-6" d="M24.73,21.94h.23v.11"/></g><g id="c-19"><path id="t-37" class="cls-6" d="M25.08,22.2l-.07-.22-.11.04"/><path id="t-38" class="cls-6" d="M25.08,22.2l-.18-.13.07-.09"/></g><g id="c-20"><path id="t-39" class="cls-6" d="M24.81,22.2l.18-.13-.07-.09"/><path id="t-40" class="cls-6" d="M24.81,22.2l.07-.22.11.04"/></g></g></g></g><g id="_δCMa"><g id="star2-2"><g id="star-5"><g id="c-21"><path id="t-41" class="cls-6" d="M26.18,23.41l-.12.38.19.06"/><path id="t-42" class="cls-6" d="M26.18,23.41l.12.38-.19.06"/></g><g id="c-22"><path id="t-43" class="cls-6" d="M26.56,23.69h-.4v.2"/><path id="t-44" class="cls-6" d="M26.56,23.69l-.32.24-.12-.16"/></g><g id="c-23"><path id="t-45" class="cls-6" d="M25.8,23.69l.32.24.12-.16"/><path id="t-46" class="cls-6" d="M25.8,23.69h.4v.2"/></g><g id="c-24"><path id="t-47" class="cls-6" d="M26.41,24.13l-.12-.38-.19.06"/><path id="t-48" class="cls-6" d="M26.41,24.13l-.32-.24.12-.16"/></g><g id="c-25"><path id="t-49" class="cls-6" d="M25.94,24.13l.32-.24-.12-.16"/><path id="t-50" class="cls-6" d="M25.94,24.13l.12-.38.19.06"/></g></g></g></g><g id="_εCMa"><g id="star3"><g id="star-6"><g id="c-26"><path id="t-51" class="cls-6" d="M25.84,24.6l-.1.3.15.05"/><path id="t-52" class="cls-6" d="M25.84,24.6l.1.3-.15.05"/></g><g id="c-27"><path id="t-53" class="cls-6" d="M26.15,24.82h-.32v.16"/><path id="t-54" class="cls-6" d="M26.15,24.82l-.26.19-.09-.13"/></g><g id="c-28"><path id="t-55" class="cls-6" d="M25.54,24.82l.26.19.09-.13"/><path id="t-56" class="cls-6" d="M25.54,24.82h.32v.16"/></g><g id="c-29"><path id="t-57" class="cls-6" d="M26.03,25.18l-.1-.3-.15.05"/><path id="t-58" class="cls-6" d="M26.03,25.18l-.26-.19.09-.13"/></g><g id="c-30"><path id="t-59" class="cls-6" d="M25.66,25.18l.26-.19-.09-.13"/><path id="t-60" class="cls-6" d="M25.66,25.18l.1-.3.15.05"/></g></g></g></g><g id="_αVir"><g id="star1-3"><g id="star-7"><g id="c-31"><path id="t-61" class="cls-6" d="M35.47,16.05l-.15.46.23.07"/><path id="t-62" class="cls-6" d="M35.47,16.05l.15.46-.23.07"/></g><g id="c-32"><path id="t-63" class="cls-6" d="M35.93,16.38h-.48v.24"/><path id="t-64" class="cls-6" d="M35.93,16.38l-.39.28-.14-.19"/></g><g id="c-33"><path id="t-65" class="cls-6" d="M35.02,16.38l.39.28.14-.19"/><path id="t-66" class="cls-6" d="M35.02,16.38h.48v.24"/></g><g id="c-34"><path id="t-67" class="cls-6" d="M35.76,16.91l-.15-.46-.23.07"/><path id="t-68" class="cls-6" d="M35.76,16.91l-.39-.28.14-.19"/></g><g id="c-35"><path id="t-69" class="cls-6" d="M35.19,16.91l.39-.28-.14-.19"/><path id="t-70" class="cls-6" d="M35.19,16.91l.15-.46.23.07"/></g></g></g></g><g id="_αSco"><g id="star1-4"><g id="star-8"><g id="c-36"><path id="t-71" class="cls-6" d="M39.85,23.45l-.15.46.23.07"/><path id="t-72" class="cls-6" d="M39.85,23.45l.15.46-.23.07"/></g><g id="c-37"><path id="t-73" class="cls-6" d="M40.3,23.78h-.48v.24"/><path id="t-74" class="cls-6" d="M40.3,23.78l-.39.28-.14-.19"/></g><g id="c-38"><path id="t-75" class="cls-6" d="M39.39,23.78l.39.28.14-.19"/><path id="t-76" class="cls-6" d="M39.39,23.78h.48v.24"/></g><g id="c-39"><path id="t-77" class="cls-6" d="M40.13,24.32l-.15-.46-.23.07"/><path id="t-78" class="cls-6" d="M40.13,24.32l-.39-.28.14-.19"/></g><g id="c-40"><path id="t-79" class="cls-6" d="M39.57,24.32l.39-.28-.14-.19"/><path id="t-80" class="cls-6" d="M39.57,24.32l.15-.46.23.07"/></g></g></g></g><g id="_βSco"><g id="star3-2"><g id="star-9"><g id="c-41"><path id="t-81" class="cls-6" d="M41.4,23.72l-.1.3.15.05"/><path id="t-82" class="cls-6" d="M41.4,23.72l.1.3-.15.05"/></g><g id="c-42"><path id="t-83" class="cls-6" d="M41.71,23.94h-.32v.16"/><path id="t-84" class="cls-6" d="M41.71,23.94l-.26.19-.09-.13"/></g><g id="c-43"><path id="t-85" class="cls-6" d="M41.1,23.94l.26.19.09-.13"/><path id="t-86" class="cls-6" d="M41.1,23.94h.32v.16"/></g><g id="c-44"><path id="t-87" class="cls-6" d="M41.59,24.3l-.1-.3-.15.05"/><path id="t-88" class="cls-6" d="M41.59,24.3l-.26-.19.09-.13"/></g><g id="c-45"><path id="t-89" class="cls-6" d="M41.21,24.3l.26-.19-.09-.13"/><path id="t-90" class="cls-6" d="M41.21,24.3l.1-.3.15.05"/></g></g></g></g><g id="_εSco"><g id="star2-3"><g id="star-10"><g id="c-46"><path id="t-91" class="cls-6" d="M40.3,24.52l-.12.38.19.06"/><path id="t-92" class="cls-6" d="M40.3,24.52l.12.38-.19.06"/></g><g id="c-47"><path id="t-93" class="cls-6" d="M40.69,24.8h-.4v.2"/><path id="t-94" class="cls-6" d="M40.69,24.8l-.32.24-.12-.16"/></g><g id="c-48"><path id="t-95" class="cls-6" d="M39.92,24.8l.32.24.12-.16"/><path id="t-96" class="cls-6" d="M39.92,24.8h.4v.2"/></g><g id="c-49"><path id="t-97" class="cls-6" d="M40.54,25.25l-.12-.38-.19.06"/><path id="t-98" class="cls-6" d="M40.54,25.25l-.32-.24.12-.16"/></g><g id="c-50"><path id="t-99" class="cls-6" d="M40.07,25.25l.32-.24-.12-.16"/><path id="t-100" class="cls-6" d="M40.07,25.25l.12-.38.19.06"/></g></g></g></g><g id="_θSco"><g id="star2-4"><g id="star-11"><g id="c-51"><path id="t-101" class="cls-6" d="M37.61,26.87l-.12.38.19.06"/><path id="t-102" class="cls-6" d="M37.61,26.87l.12.38-.19.06"/></g><g id="c-52"><path id="t-103" class="cls-6" d="M37.99,27.14h-.4v.2"/><path id="t-104" class="cls-6" d="M37.99,27.14l-.32.24-.12-.16"/></g><g id="c-53"><path id="t-105" class="cls-6" d="M37.23,27.14l.32.24.12-.16"/><path id="t-106" class="cls-6" d="M37.23,27.14h.4v.2"/></g><g id="c-54"><path id="t-107" class="cls-6" d="M37.84,27.59l-.12-.38-.19.06"/><path id="t-108" class="cls-6" d="M37.84,27.59l-.32-.24.12-.16"/></g><g id="c-55"><path id="t-109" class="cls-6" d="M37.37,27.59l.32-.24-.12-.16"/><path id="t-110" class="cls-6" d="M37.37,27.59l.12-.38.19.06"/></g></g></g></g><g id="_ιSco"><g id="star3-3"><g id="star-12"><g id="c-56"><path id="t-111" class="cls-6" d="M37.59,28.08l-.1.3.15.05"/><path id="t-112" class="cls-6" d="M37.59,28.08l.1.3-.15.05"/></g><g id="c-57"><path id="t-113" class="cls-6" d="M37.9,28.3h-.32v.16"/><path id="t-114" class="cls-6" d="M37.9,28.3l-.26.19-.09-.13"/></g><g id="c-58"><path id="t-115" class="cls-6" d="M37.29,28.3l.26.19.09-.13"/><path id="t-116" class="cls-6" d="M37.29,28.3h.32v.16"/></g><g id="c-59"><path id="t-117" class="cls-6" d="M37.78,28.66l-.1-.3-.15.05"/><path id="t-118" class="cls-6" d="M37.78,28.66l-.26-.19.09-.13"/></g><g id="c-60"><path id="t-119" class="cls-6" d="M37.4,28.66l.26-.19-.09-.13"/><path id="t-120" class="cls-6" d="M37.4,28.66l.1-.3.15.05"/></g></g></g></g><g id="_κSco"><g id="star3-4"><g id="star-13"><g id="c-61"><path id="t-121" class="cls-6" d="M38.72,26.06l-.1.3.15.05"/><path id="t-122" class="cls-6" d="M38.72,26.06l.1.3-.15.05"/></g><g id="c-62"><path id="t-123" class="cls-6" d="M39.02,26.29h-.32v.16"/><path id="t-124" class="cls-6" d="M39.02,26.29l-.26.19-.09-.13"/></g><g id="c-63"><path id="t-125" class="cls-6" d="M38.42,26.29l.26.19.09-.13"/><path id="t-126" class="cls-6" d="M38.42,26.29h.32v.16"/></g><g id="c-64"><path id="t-127" class="cls-6" d="M38.91,26.64l-.1-.3-.15.05"/><path id="t-128" class="cls-6" d="M38.91,26.64l-.26-.19.09-.13"/></g><g id="c-65"><path id="t-129" class="cls-6" d="M38.53,26.64l.26-.19-.09-.13"/><path id="t-130" class="cls-6" d="M38.53,26.64l.1-.3.15.05"/></g></g></g></g><g id="_λSco"><g id="star2-5"><g id="star-14"><g id="c-66"><path id="t-131" class="cls-6" d="M39.62,25.42l-.12.38.19.06"/><path id="t-132" class="cls-6" d="M39.62,25.42l.12.38-.19.06"/></g><g id="c-67"><path id="t-133" class="cls-6" d="M40,25.7h-.4v.2"/><path id="t-134" class="cls-6" d="M40,25.7l-.32.24-.12-.16"/></g><g id="c-68"><path id="t-135" class="cls-6" d="M39.24,25.7l.32.24.12-.16"/><path id="t-136" class="cls-6" d="M39.24,25.7h.4v.2"/></g><g id="c-69"><path id="t-137" class="cls-6" d="M39.85,26.14l-.12-.38-.19.06"/><path id="t-138" class="cls-6" d="M39.85,26.14l-.32-.24.12-.16"/></g><g id="c-70"><path id="t-139" class="cls-6" d="M39.38,26.14l.32-.24-.12-.16"/><path id="t-140" class="cls-6" d="M39.38,26.14l.12-.38.19.06"/></g></g></g></g><g id="_μSco"><g id="star3-5"><g id="star-15"><g id="c-71"><path id="t-141" class="cls-6" d="M37.56,25.85l-.1.3.15.05"/><path id="t-142" class="cls-6" d="M37.56,25.85l.1.3-.15.05"/></g><g id="c-72"><path id="t-143" class="cls-6" d="M37.87,26.07h-.32v.16"/><path id="t-144" class="cls-6" d="M37.87,26.07l-.26.19-.09-.13"/></g><g id="c-73"><path id="t-145" class="cls-6" d="M37.26,26.07l.26.19.09-.13"/><path id="t-146" class="cls-6" d="M37.26,26.07h.32v.16"/></g><g id="c-74"><path id="t-147" class="cls-6" d="M37.75,26.43l-.1-.3-.15.05"/><path id="t-148" class="cls-6" d="M37.75,26.43l-.26-.19.09-.13"/></g><g id="c-75"><path id="t-149" class="cls-6" d="M37.37,26.43l.26-.19-.09-.13"/><path id="t-150" class="cls-6" d="M37.37,26.43l.1-.3.15.05"/></g></g></g></g><g id="_αHya"><g id="star2-6"><g id="star-16"><g id="c-76"><path id="t-151" class="cls-6" d="M27.73,20.06l-.12.38.19.06"/><path id="t-152" class="cls-6" d="M27.73,20.06l.12.38-.19.06"/></g><g id="c-77"><path id="t-153" class="cls-6" d="M28.11,20.33h-.4v.2"/><path id="t-154" class="cls-6" d="M28.11,20.33l-.32.24-.12-.16"/></g><g id="c-78"><path id="t-155" class="cls-6" d="M27.35,20.33l.32.24.12-.16"/><path id="t-156" class="cls-6" d="M27.35,20.33h.4v.2"/></g><g id="c-79"><path id="t-157" class="cls-6" d="M27.97,20.78l-.12-.38-.19.06"/><path id="t-158" class="cls-6" d="M27.97,20.78l-.32-.24.12-.16"/></g><g id="c-80"><path id="t-159" class="cls-6" d="M27.5,20.78l.32-.24-.12-.16"/><path id="t-160" class="cls-6" d="M27.5,20.78l.12-.38.19.06"/></g></g></g></g><g id="_γHya"><g id="star3-6"><g id="star-17"><g id="c-81"><path id="t-161" class="cls-6" d="M35.05,19.12l-.1.3.15.05"/><path id="t-162" class="cls-6" d="M35.05,19.12l.1.3-.15.05"/></g><g id="c-82"><path id="t-163" class="cls-6" d="M35.35,19.34h-.32v.16"/><path id="t-164" class="cls-6" d="M35.35,19.34l-.26.19-.09-.13"/></g><g id="c-83"><path id="t-165" class="cls-6" d="M34.74,19.34l.26.19.09-.13"/><path id="t-166" class="cls-6" d="M34.74,19.34h.32v.16"/></g><g id="c-84"><path id="t-167" class="cls-6" d="M35.24,19.7l-.1-.3-.15.05"/><path id="t-168" class="cls-6" d="M35.24,19.7l-.26-.19.09-.13"/></g><g id="c-85"><path id="t-169" class="cls-6" d="M34.86,19.7l.26-.19-.09-.13"/><path id="t-170" class="cls-6" d="M34.86,19.7l.1-.3.15.05"/></g></g></g></g><g id="_αCru"><g id="star1-5"><g id="star-18"><g id="c-86"><path id="t-171" class="cls-6" d="M32,24.55l-.15.46.23.07"/><path id="t-172" class="cls-6" d="M32,24.55l.15.46-.23.07"/></g><g id="c-87"><path id="t-173" class="cls-6" d="M32.46,24.88h-.48v.24"/><path id="t-174" class="cls-6" d="M32.46,24.88l-.39.28-.14-.19"/></g><g id="c-88"><path id="t-175" class="cls-6" d="M31.54,24.88l.39.28.14-.19"/><path id="t-176" class="cls-6" d="M31.54,24.88h.48v.24"/></g><g id="c-89"><path id="t-177" class="cls-6" d="M32.28,25.42l-.15-.46-.23.07"/><path id="t-178" class="cls-6" d="M32.28,25.42l-.39-.28.14-.19"/></g><g id="c-90"><path id="t-179" class="cls-6" d="M31.72,25.42l.39-.28-.14-.19"/><path id="t-180" class="cls-6" d="M31.72,25.42l.15-.46.23.07"/></g></g></g></g><g id="_βCru"><g id="star2-7"><g id="star-19"><g id="c-91"><path id="t-181" class="cls-6" d="M33.3,22.4l-.12.38.19.06"/><path id="t-182" class="cls-6" d="M33.3,22.4l.12.38-.19.06"/></g><g id="c-92"><path id="t-183" class="cls-6" d="M33.68,22.68h-.4v.2"/><path id="t-184" class="cls-6" d="M33.68,22.68l-.32.24-.12-.16"/></g><g id="c-93"><path id="t-185" class="cls-6" d="M32.91,22.68l.32.24.12-.16"/><path id="t-186" class="cls-6" d="M32.91,22.68h.4v.2"/></g><g id="c-94"><path id="t-187" class="cls-6" d="M33.53,23.13l-.12-.38-.19.06"/><path id="t-188" class="cls-6" d="M33.53,23.13l-.32-.24.12-.16"/></g><g id="c-95"><path id="t-189" class="cls-6" d="M33.06,23.13l.32-.24-.12-.16"/><path id="t-190" class="cls-6" d="M33.06,23.13l.12-.38.19.06"/></g></g></g></g><g id="_γCru"><g id="star2-8"><g id="star-20"><g id="c-96"><path id="t-191" class="cls-6" d="M32,21.4l-.12.38.19.06"/><path id="t-192" class="cls-6" d="M32,21.4l.12.38-.19.06"/></g><g id="c-97"><path id="t-193" class="cls-6" d="M32.38,21.67h-.4v.2"/><path id="t-194" class="cls-6" d="M32.38,21.67l-.32.24-.12-.16"/></g><g id="c-98"><path id="t-195" class="cls-6" d="M31.62,21.67l.32.24.12-.16"/><path id="t-196" class="cls-6" d="M31.62,21.67h.4v.2"/></g><g id="c-99"><path id="t-197" class="cls-6" d="M32.24,22.12l-.12-.38-.19.06"/><path id="t-198" class="cls-6" d="M32.24,22.12l-.32-.24.12-.16"/></g><g id="c-100"><path id="t-199" class="cls-6" d="M31.76,22.12l.32-.24-.12-.16"/><path id="t-200" class="cls-6" d="M31.76,22.12l.12-.38.19.06"/></g></g></g></g><g id="_δCru"><g id="star3-7"><g id="star-21"><g id="c-101"><path id="t-201" class="cls-6" d="M30.87,22.48l-.1.3.15.05"/><path id="t-202" class="cls-6" d="M30.87,22.48l.1.3-.15.05"/></g><g id="c-102"><path id="t-203" class="cls-6" d="M31.18,22.7h-.32v.16"/><path id="t-204" class="cls-6" d="M31.18,22.7l-.26.19-.09-.13"/></g><g id="c-103"><path id="t-205" class="cls-6" d="M30.57,22.7l.26.19.09-.13"/><path id="t-206" class="cls-6" d="M30.57,22.7h.32v.16"/></g><g id="c-104"><path id="t-207" class="cls-6" d="M31.06,23.06l-.1-.3-.15.05"/><path id="t-208" class="cls-6" d="M31.06,23.06l-.26-.19.09-.13"/></g><g id="c-105"><path id="t-209" class="cls-6" d="M30.68,23.06l.26-.19-.09-.13"/><path id="t-210" class="cls-6" d="M30.68,23.06l.1-.3.15.05"/></g></g></g></g><g id="_εCru"><g id="star4-2"><g id="star-22"><g id="c-106"><path id="t-211" class="cls-6" d="M31.44,23.35l-.07.22.11.04"/><path id="t-212" class="cls-6" d="M31.44,23.35l.07.22-.11.04"/></g><g id="c-107"><path id="t-213" class="cls-6" d="M31.65,23.51h-.23v.11"/><path id="t-214" class="cls-6" d="M31.65,23.51l-.18.13-.07-.09"/></g><g id="c-108"><path id="t-215" class="cls-6" d="M31.22,23.51l.18.13.07-.09"/><path id="t-216" class="cls-6" d="M31.22,23.51h.23v.11"/></g><g id="c-109"><path id="t-217" class="cls-6" d="M31.57,23.77l-.07-.22-.11.04"/><path id="t-218" class="cls-6" d="M31.57,23.77l-.18-.13.07-.09"/></g><g id="c-110"><path id="t-219" class="cls-6" d="M31.3,23.77l.18-.13-.07-.09"/><path id="t-220" class="cls-6" d="M31.3,23.77l.07-.22.11.04"/></g></g></g></g><g id="_αTrA"><g id="star2-9"><g id="star-23"><g id="c-111"><path id="t-221" class="cls-6" d="M35.35,27.14l-.12.38.19.06"/><path id="t-222" class="cls-6" d="M35.35,27.14l.12.38-.19.06"/></g><g id="c-112"><path id="t-223" class="cls-6" d="M35.73,27.42h-.4v.2"/><path id="t-224" class="cls-6" d="M35.73,27.42l-.32.24-.12-.16"/></g><g id="c-113"><path id="t-225" class="cls-6" d="M34.97,27.42l.32.24.12-.16"/><path id="t-226" class="cls-6" d="M34.97,27.42h.4v.2"/></g><g id="c-114"><path id="t-227" class="cls-6" d="M35.59,27.87l-.12-.38-.19.06"/><path id="t-228" class="cls-6" d="M35.59,27.87l-.32-.24.12-.16"/></g><g id="c-115"><path id="t-229" class="cls-6" d="M35.12,27.87l.32-.24-.12-.16"/><path id="t-230" class="cls-6" d="M35.12,27.87l.12-.38.19.06"/></g></g></g></g><g id="_βTrA"><g id="star3-8"><g id="star-24"><g id="c-116"><path id="t-231" class="cls-6" d="M36.31,26.23l-.1.3.15.05"/><path id="t-232" class="cls-6" d="M36.31,26.23l.1.3-.15.05"/></g><g id="c-117"><path id="t-233" class="cls-6" d="M36.62,26.45h-.32v.16"/><path id="t-234" class="cls-6" d="M36.62,26.45l-.26.19-.09-.13"/></g><g id="c-118"><path id="t-235" class="cls-6" d="M36.01,26.45l.26.19.09-.13"/><path id="t-236" class="cls-6" d="M36.01,26.45h.32v.16"/></g><g id="c-119"><path id="t-237" class="cls-6" d="M36.5,26.81l-.1-.3-.15.05"/><path id="t-238" class="cls-6" d="M36.5,26.81l-.26-.19.09-.13"/></g><g id="c-120"><path id="t-239" class="cls-6" d="M36.12,26.81l.26-.19-.09-.13"/><path id="t-240" class="cls-6" d="M36.12,26.81l.1-.3.15.05"/></g></g></g></g><g id="_γTrA"><g id="star3-9"><g id="star-25"><g id="c-121"><path id="t-241" class="cls-6" d="M34.47,25.96l-.1.3.15.05"/><path id="t-242" class="cls-6" d="M34.47,25.96l.1.3-.15.05"/></g><g id="c-122"><path id="t-243" class="cls-6" d="M34.77,26.18h-.32v.16"/><path id="t-244" class="cls-6" d="M34.77,26.18l-.26.19-.09-.13"/></g><g id="c-123"><path id="t-245" class="cls-6" d="M34.16,26.18l.26.19.09-.13"/><path id="t-246" class="cls-6" d="M34.16,26.18h.32v.16"/></g><g id="c-124"><path id="t-247" class="cls-6" d="M34.66,26.54l-.1-.3-.15.05"/><path id="t-248" class="cls-6" d="M34.66,26.54l-.26-.19.09-.13"/></g><g id="c-125"><path id="t-249" class="cls-6" d="M34.28,26.54l.26-.19-.09-.13"/><path id="t-250" class="cls-6" d="M34.28,26.54l.1-.3.15.05"/></g></g></g></g><g id="_αCar"><g id="star1-6"><g id="star-26"><g id="c-126"><path id="t-251" class="cls-6" d="M27.5,25.46l-.15.46.23.07"/><path id="t-252" class="cls-6" d="M27.5,25.46l.15.46-.23.07"/></g><g id="c-127"><path id="t-253" class="cls-6" d="M27.96,25.79h-.48v.24"/><path id="t-254" class="cls-6" d="M27.96,25.79l-.39.28-.14-.19"/></g><g id="c-128"><path id="t-255" class="cls-6" d="M27.05,25.79l.39.28.14-.19"/><path id="t-256" class="cls-6" d="M27.05,25.79h.48v.24"/></g><g id="c-129"><path id="t-257" class="cls-6" d="M27.79,26.33l-.15-.46-.23.07"/><path id="t-258" class="cls-6" d="M27.79,26.33l-.39-.28.14-.19"/></g><g id="c-130"><path id="t-259" class="cls-6" d="M27.22,26.33l.39-.28-.14-.19"/><path id="t-260" class="cls-6" d="M27.22,26.33l.15-.46.23.07"/></g></g></g></g><g id="_σOct"><g id="star5"><g id="star-27"><g id="c-131"><path id="t-261" class="cls-6" d="M32,28.6l-.05.15.08.02"/><path id="t-262" class="cls-6" d="M32,28.6l.05.15-.08.02"/></g><g id="c-132"><path id="t-263" class="cls-6" d="M32.15,28.71h-.16v.08"/><path id="t-264" class="cls-6" d="M32.15,28.71l-.13.09-.05-.06"/></g><g id="c-133"><path id="t-265" class="cls-6" d="M31.85,28.71l.13.09.05-.06"/><path id="t-266" class="cls-6" d="M31.85,28.71h.16v.08"/></g><g id="c-134"><path id="t-267" class="cls-6" d="M32.09,28.89l-.05-.15-.08.02"/><path id="t-268" class="cls-6" d="M32.09,28.89l-.13-.09.05-.06"/></g><g id="c-135"><path id="t-269" class="cls-6" d="M31.91,28.89l.13-.09-.05-.06"/><path id="t-270" class="cls-6" d="M31.91,28.89l.05-.15.08.02"/></g></g></g></g></g></svg>