<?xml version="1.0" encoding="utf-8"?>
<!-- Generator: Adobe Illustrator 25.4.1, SVG Export Plug-In . SVG Version: 6.00 Build 0)  -->
<svg version="1.1" id="Layer_1" xmlns="http://www.w3.org/2000/svg" xmlns:xlink="http://www.w3.org/1999/xlink" x="0px" y="0px"
	 viewBox="0 0 64 40" style="enable-background:new 0 0 64 40;" xml:space="preserve">
<style type="text/css">
	.st0{fill:#FF0000;}
	.st1{fill:#F5F7FA;}
</style>
<rect id="rect11503" class="st0" width="64" height="40"/>
<rect id="rect11505" x="17" class="st1" width="30" height="40"/>
<path id="path11507" class="st0" d="M31.9,8L30,11.6c-0.2,0.4-0.6,0.3-1,0.1l-1.3-0.7l1,5.6c0.2,1-0.5,1-0.8,0.5l-2.4-2.5l-0.4,1.4
	c0,0.2-0.2,0.4-0.5,0.3l-3.1-0.6l0.8,2.9c0.2,0.6,0.3,0.9-0.2,1.2L21,20.2l5.2,4.3c0.2,0.2,0.3,0.4,0.2,0.7L26,26.8
	c1.9-0.2,3.4-0.5,5.2-0.7c0.2,0,0.4,0.2,0.4,0.4L31.5,32h0.9l-0.1-5.6c0-0.2,0.2-0.4,0.4-0.4c1.9,0.2,3.4,0.5,5.2,0.7l-0.4-1.6
	c-0.1-0.3,0-0.5,0.2-0.7l5.2-4.3l-1.1-0.5c-0.5-0.2-0.3-0.4-0.2-1.2l0.8-2.9l-3.1,0.6c-0.3,0-0.5-0.1-0.5-0.3l-0.4-1.4l-2.4,2.7
	c-0.3,0.4-1,0.4-0.8-0.5l1-5.6L35,11.9c-0.4,0.2-0.8,0.2-1-0.1"/>
</svg>
