<?xml version="1.0" encoding="UTF-8"?><svg id="CA" xmlns="http://www.w3.org/2000/svg" xmlns:xlink="http://www.w3.org/1999/xlink" viewBox="0 0 64 40"><defs><style>.cls-1{clip-path:url(#clippath);}.cls-2{fill:none;}.cls-2,.cls-3,.cls-4{stroke-width:0px;}.cls-3{fill:#d52b1e;}.cls-4{fill:#fff;}</style><clipPath id="clippath"><rect class="cls-2" width="64" height="40"/></clipPath></defs><g class="cls-1"><path class="cls-3" d="M0-3h16l.66.92h30.68l.66-.92h16v46h-16l-.66-.92h-30.68l-.66.92H0V-3Z"/><path class="cls-4" d="M16-1h32v42H16V-1ZM32.59,33.55l-.3-5.75c-.02-.35.25-.65.6-.66.05,0,.09,0,.14,0l5.73,1.01-.77-2.13c-.06-.17-.01-.37.13-.49l6.27-5.08-1.41-.66c-.2-.09-.29-.32-.23-.53l1.24-3.81-3.61.77c-.2.04-.41-.06-.49-.25l-.7-1.65-2.82,3.03c-.16.17-.44.18-.61.02-.11-.1-.16-.25-.13-.4l1.36-7.01-2.18,1.26c-.21.12-.47.05-.59-.15,0,0,0-.02-.01-.03l-2.21-4.35-2.21,4.35c-.11.21-.37.3-.58.19,0,0-.02,0-.03-.01l-2.18-1.26,1.36,7.01c.05.24-.11.46-.34.51-.15.03-.29-.02-.4-.13l-2.82-3.03-.7,1.65c-.08.19-.28.3-.49.25l-3.61-.77,1.24,3.81c.07.21-.03.43-.23.53l-1.41.66,6.27,5.08c.14.12.2.31.13.49l-.77,2.13,5.73-1.01c.34-.06.67.17.73.52,0,.05.01.09,0,.14l-.3,5.75h1.2Z"/></g></svg>