<?xml version="1.0" encoding="UTF-8"?><svg id="HKG" xmlns="http://www.w3.org/2000/svg" xmlns:xlink="http://www.w3.org/1999/xlink" viewBox="0 0 64 40"><defs><style>.cls-1{clip-path:url(#clippath);}.cls-2{fill:none;}.cls-2,.cls-3,.cls-4{stroke-width:0px;}.cls-3{fill:#fff;}.cls-4{fill:#ee1c25;}</style><clipPath id="clippath"><rect class="cls-2" x="0" width="64" height="40"/></clipPath></defs><g class="cls-1"><path class="cls-4" d="M-3-3.33h70v46.67H-3V-3.33Z"/><g id="a"><path class="cls-3" d="M35.35,6.38c-1.14.37-1.77,1.59-1.41,2.73.06.18.14.36.25.52,1.06,1.63.59,3.8-1.03,4.86-.17.11-.36.21-.54.29-1.53.65-2.24,2.41-1.6,3.94.17.41.43.77.76,1.06-2.35-1.67-2.94-4.91-1.33-7.3-.03-.03-.06-.05-.09-.08-1.65,2.43-1.07,5.73,1.3,7.45-3.6-1.44-5.35-5.53-3.91-9.14,1.22-3.04,4.37-4.83,7.6-4.33"/><path class="cls-4" d="M32.16,10.73l-2.14.94,2.28.5-1.55-1.75.23,2.33"/></g><g id="b"><g id="a-2"><path class="cls-3" d="M45.97,18.95c-.7-.97-2.06-1.19-3.03-.49-.16.11-.3.25-.42.4-1.22,1.51-3.43,1.74-4.94.52-.16-.13-.31-.27-.44-.43-1.09-1.25-2.99-1.39-4.24-.3-.33.29-.6.65-.78,1.05.86-2.75,3.76-4.31,6.54-3.52.02-.04.03-.07.05-.11-2.82-.82-5.78.75-6.68,3.54.26-3.87,3.61-6.8,7.48-6.54,3.26.22,5.95,2.66,6.47,5.89"/><path class="cls-4" d="M40.85,17.27l-1.55-1.75.23,2.33,1.18-2.02-2.14.94"/></g><g id="a-3"><path class="cls-3" d="M21.32,29.02c1.14.38,2.37-.24,2.74-1.38.06-.18.1-.37.11-.57.1-1.94,1.75-3.43,3.69-3.32.21.01.41.04.61.09,1.62.38,3.23-.63,3.61-2.25.1-.43.1-.87.01-1.3.92,2.73-.51,5.7-3.22,6.69,0,.04.02.08.02.12,2.76-1,4.23-4,3.33-6.79,2.07,3.28,1.08,7.62-2.21,9.69-2.77,1.74-6.37,1.34-8.69-.96"/><path class="cls-4" d="M26.45,27.37l2.28.5-1.55-1.75.23,2.33,1.18-2.02"/></g></g><g id="b-2"><g id="a-4"><path class="cls-3" d="M37.3,32.94c.71-.97.5-2.33-.47-3.03-.16-.11-.33-.21-.51-.28-1.81-.7-2.72-2.73-2.02-4.54.07-.19.16-.38.27-.55.86-1.42.4-3.27-1.02-4.13-.38-.23-.8-.37-1.24-.41,2.88-.03,5.27,2.25,5.37,5.13.04,0,.08,0,.12.02-.09-2.93-2.5-5.26-5.43-5.26,3.76-.95,7.58,1.33,8.53,5.09.8,3.17-.69,6.48-3.6,7.97"/><path class="cls-4" d="M37.32,27.55l1.18-2.02-2.14.94,2.28.5-1.55-1.75"/></g><g id="a-5"><path class="cls-3" d="M20.11,12.6c0,1.2.96,2.18,2.16,2.18.19,0,.38-.02.57-.07,1.87-.5,3.8.61,4.3,2.48.05.2.09.4.11.61.14,1.65,1.6,2.88,3.25,2.74.44-.04.86-.17,1.24-.39-2.32,1.72-5.58,1.28-7.36-.99-.03.02-.07.04-.1.06,1.8,2.32,5.11,2.79,7.49,1.06-2.49,2.98-6.92,3.38-9.9.9-2.51-2.1-3.25-5.65-1.77-8.57"/><path class="cls-4" d="M23.26,16.98l.23,2.33,1.18-2.02-2.14.94,2.28.5"/></g></g></g></svg>