<?xml version="1.0" encoding="utf-8"?>
<!-- Generator: Adobe Illustrator 25.4.1, SVG Export Plug-In . SVG Version: 6.00 Build 0)  -->
<svg version="1.1" id="Layer_1" xmlns="http://www.w3.org/2000/svg" xmlns:xlink="http://www.w3.org/1999/xlink" x="0px" y="0px"
	 viewBox="0 0 64 40" style="enable-background:new 0 0 64 40;" xml:space="preserve">
<style type="text/css">
	.st0{fill:#BF0B30;}
	.st1{fill:#F5F7FA;}
	.st2{fill:#002768;}
	.st3{fill:#FFFFFF;}
</style>
<rect id="rect10187_00000060026635416955904470000010043720591782024627_" class="st0" width="64" height="40"/>
<rect y="3.3" class="st1" width="64" height="3"/>
<rect y="9.4" class="st1" width="64" height="3"/>
<rect y="15.5" class="st1" width="64" height="3"/>
<rect y="21.5" class="st1" width="64" height="3"/>
<rect y="27.6" class="st1" width="64" height="3"/>
<rect y="33.7" class="st1" width="64" height="3"/>
<rect id="rect10191_00000163767073778001690370000010319510483280412085_" class="st2" width="27.4" height="21.5"/>
<g>
	<polygon class="st3" points="2.9,2.3 3.5,1.8 2.7,1.8 2.4,1 2.1,1.8 1.3,1.8 2,2.3 1.7,3.1 2.4,2.6 3.1,3.1 	"/>
	<polygon class="st3" points="5.1,4.4 5.8,3.9 4.9,3.9 4.6,3.1 4.4,3.9 3.5,3.9 4.2,4.4 4,5.2 4.6,4.7 5.3,5.2 	"/>
	<polygon class="st3" points="7.3,2.3 8,1.8 7.2,1.8 6.9,1 6.6,1.8 5.8,1.8 6.5,2.3 6.2,3.1 6.9,2.6 7.6,3.1 	"/>
	<polygon class="st3" points="9.6,4.4 10.2,3.9 9.4,3.9 9.1,3.1 8.9,3.9 8,3.9 8.7,4.4 8.4,5.2 9.1,4.7 9.8,5.2 	"/>
	<polygon class="st3" points="11.8,2.3 12.5,1.8 11.6,1.8 11.4,1 11.1,1.8 10.2,1.8 10.9,2.3 10.7,3.1 11.4,2.6 12,3.1 	"/>
	<polygon class="st3" points="14,4.4 14.7,3.9 13.9,3.9 13.6,3.1 13.3,3.9 12.5,3.9 13.2,4.4 12.9,5.2 13.6,4.7 14.3,5.2 	"/>
	<polygon class="st3" points="16.3,2.3 16.9,1.8 16.1,1.8 15.8,1 15.6,1.8 14.7,1.8 15.4,2.3 15.1,3.1 15.8,2.6 16.5,3.1 	"/>
	<polygon class="st3" points="18.5,4.4 19.2,3.9 18.3,3.9 18.1,3.1 17.8,3.9 16.9,3.9 17.6,4.4 17.4,5.2 18.1,4.7 18.7,5.2 	"/>
	<polygon class="st3" points="20.7,2.3 21.4,1.8 20.6,1.8 20.3,1 20,1.8 19.2,1.8 19.9,2.3 19.6,3.1 20.3,2.6 21,3.1 	"/>
	<polygon class="st3" points="23,4.4 23.6,3.9 22.8,3.9 22.5,3.1 22.3,3.9 21.4,3.9 22.1,4.4 21.8,5.2 22.5,4.7 23.2,5.2 	"/>
	<polygon class="st3" points="25.2,2.3 25.9,1.8 25,1.8 24.8,1 24.5,1.8 23.6,1.8 24.4,2.3 24.1,3.1 24.8,2.6 25.4,3.1 	"/>
	<polygon class="st3" points="2.9,6.5 3.5,6 2.7,6 2.4,5.2 2.1,6 1.3,6 2,6.5 1.7,7.3 2.4,6.8 3.1,7.3 	"/>
	<polygon class="st3" points="5.1,8.7 5.8,8.1 4.9,8.1 4.6,7.3 4.4,8.1 3.5,8.1 4.2,8.7 4,9.5 4.6,8.9 5.3,9.5 	"/>
	<polygon class="st3" points="7.3,6.5 8,6 7.2,6 6.9,5.2 6.6,6 5.8,6 6.5,6.5 6.2,7.3 6.9,6.8 7.6,7.3 	"/>
	<polygon class="st3" points="9.6,8.7 10.2,8.1 9.4,8.1 9.1,7.3 8.9,8.1 8,8.1 8.7,8.7 8.4,9.5 9.1,8.9 9.8,9.5 	"/>
	<polygon class="st3" points="11.8,6.5 12.5,6 11.6,6 11.4,5.2 11.1,6 10.2,6 10.9,6.5 10.7,7.3 11.4,6.8 12,7.3 	"/>
	<polygon class="st3" points="14,8.7 14.7,8.1 13.9,8.1 13.6,7.3 13.3,8.1 12.5,8.1 13.2,8.7 12.9,9.5 13.6,8.9 14.3,9.5 	"/>
	<polygon class="st3" points="16.3,6.5 16.9,6 16.1,6 15.8,5.2 15.6,6 14.7,6 15.4,6.5 15.1,7.3 15.8,6.8 16.5,7.3 	"/>
	<polygon class="st3" points="18.5,8.7 19.2,8.1 18.3,8.1 18.1,7.3 17.8,8.1 16.9,8.1 17.6,8.7 17.4,9.5 18.1,8.9 18.7,9.5 	"/>
	<polygon class="st3" points="20.7,6.5 21.4,6 20.6,6 20.3,5.2 20,6 19.2,6 19.9,6.5 19.6,7.3 20.3,6.8 21,7.3 	"/>
	<polygon class="st3" points="23,8.7 23.6,8.1 22.8,8.1 22.5,7.3 22.3,8.1 21.4,8.1 22.1,8.7 21.8,9.5 22.5,8.9 23.2,9.5 	"/>
	<polygon class="st3" points="25.2,6.5 25.9,6 25,6 24.8,5.2 24.5,6 23.6,6 24.4,6.5 24.1,7.3 24.8,6.8 25.4,7.3 	"/>
	<polygon class="st3" points="2.9,10.8 3.5,10.3 2.7,10.3 2.4,9.5 2.1,10.3 1.3,10.3 2,10.8 1.7,11.6 2.4,11.1 3.1,11.6 	"/>
	<polygon class="st3" points="5.1,12.9 5.8,12.4 4.9,12.4 4.6,11.6 4.4,12.4 3.5,12.4 4.2,12.9 4,13.7 4.6,13.2 5.3,13.7 	"/>
	<polygon class="st3" points="7.3,10.8 8,10.3 7.2,10.3 6.9,9.5 6.6,10.3 5.8,10.3 6.5,10.8 6.2,11.6 6.9,11.1 7.6,11.6 	"/>
	<polygon class="st3" points="9.6,12.9 10.2,12.4 9.4,12.4 9.1,11.6 8.9,12.4 8,12.4 8.7,12.9 8.4,13.7 9.1,13.2 9.8,13.7 	"/>
	<polygon class="st3" points="11.8,10.8 12.5,10.3 11.6,10.3 11.4,9.5 11.1,10.3 10.2,10.3 10.9,10.8 10.7,11.6 11.4,11.1 12,11.6 	
		"/>
	<polygon class="st3" points="14,12.9 14.7,12.4 13.9,12.4 13.6,11.6 13.3,12.4 12.5,12.4 13.2,12.9 12.9,13.7 13.6,13.2 14.3,13.7 
			"/>
	<polygon class="st3" points="16.3,10.8 16.9,10.3 16.1,10.3 15.8,9.5 15.6,10.3 14.7,10.3 15.4,10.8 15.1,11.6 15.8,11.1 
		16.5,11.6 	"/>
	<polygon class="st3" points="18.5,12.9 19.2,12.4 18.3,12.4 18.1,11.6 17.8,12.4 16.9,12.4 17.6,12.9 17.4,13.7 18.1,13.2 
		18.7,13.7 	"/>
	<polygon class="st3" points="20.7,10.8 21.4,10.3 20.6,10.3 20.3,9.5 20,10.3 19.2,10.3 19.9,10.8 19.6,11.6 20.3,11.1 21,11.6 	
		"/>
	<polygon class="st3" points="23,12.9 23.6,12.4 22.8,12.4 22.5,11.6 22.3,12.4 21.4,12.4 22.1,12.9 21.8,13.7 22.5,13.2 23.2,13.7 
			"/>
	<polygon class="st3" points="25.2,10.8 25.9,10.3 25,10.3 24.8,9.5 24.5,10.3 23.6,10.3 24.4,10.8 24.1,11.6 24.8,11.1 25.4,11.6 	
		"/>
	<polygon class="st3" points="2.9,15 3.5,14.5 2.7,14.5 2.4,13.7 2.1,14.5 1.3,14.5 2,15 1.7,15.8 2.4,15.3 3.1,15.8 	"/>
	<polygon class="st3" points="5.1,17.1 5.8,16.6 4.9,16.6 4.6,15.8 4.4,16.6 3.5,16.6 4.2,17.1 4,17.9 4.6,17.4 5.3,17.9 	"/>
	<polygon class="st3" points="7.3,15 8,14.5 7.2,14.5 6.9,13.7 6.6,14.5 5.8,14.5 6.5,15 6.2,15.8 6.9,15.3 7.6,15.8 	"/>
	<polygon class="st3" points="9.6,17.1 10.2,16.6 9.4,16.6 9.1,15.8 8.9,16.6 8,16.6 8.7,17.1 8.4,17.9 9.1,17.4 9.8,17.9 	"/>
	<polygon class="st3" points="11.8,15 12.5,14.5 11.6,14.5 11.4,13.7 11.1,14.5 10.2,14.5 10.9,15 10.7,15.8 11.4,15.3 12,15.8 	"/>
	<polygon class="st3" points="14,17.1 14.7,16.6 13.9,16.6 13.6,15.8 13.3,16.6 12.5,16.6 13.2,17.1 12.9,17.9 13.6,17.4 14.3,17.9 
			"/>
	<polygon class="st3" points="16.3,15 16.9,14.5 16.1,14.5 15.8,13.7 15.6,14.5 14.7,14.5 15.4,15 15.1,15.8 15.8,15.3 16.5,15.8 	
		"/>
	<polygon class="st3" points="18.5,17.1 19.2,16.6 18.3,16.6 18.1,15.8 17.8,16.6 16.9,16.6 17.6,17.1 17.4,17.9 18.1,17.4 
		18.7,17.9 	"/>
	<polygon class="st3" points="20.7,15 21.4,14.5 20.6,14.5 20.3,13.7 20,14.5 19.2,14.5 19.9,15 19.6,15.8 20.3,15.3 21,15.8 	"/>
	<polygon class="st3" points="23,17.1 23.6,16.6 22.8,16.6 22.5,15.8 22.3,16.6 21.4,16.6 22.1,17.1 21.8,17.9 22.5,17.4 23.2,17.9 
			"/>
	<polygon class="st3" points="25.2,15 25.9,14.5 25,14.5 24.8,13.7 24.5,14.5 23.6,14.5 24.4,15 24.1,15.8 24.8,15.3 25.4,15.8 	"/>
	<polygon class="st3" points="2.9,19.2 3.5,18.7 2.7,18.7 2.4,17.9 2.1,18.7 1.3,18.7 2,19.2 1.7,20 2.4,19.5 3.1,20 	"/>
	<polygon class="st3" points="7.3,19.2 8,18.7 7.2,18.7 6.9,17.9 6.6,18.7 5.8,18.7 6.5,19.2 6.2,20 6.9,19.5 7.6,20 	"/>
	<polygon class="st3" points="11.8,19.2 12.5,18.7 11.6,18.7 11.4,17.9 11.1,18.7 10.2,18.7 10.9,19.2 10.7,20 11.4,19.5 12,20 	"/>
	<polygon class="st3" points="16.3,19.2 16.9,18.7 16.1,18.7 15.8,17.9 15.6,18.7 14.7,18.7 15.4,19.2 15.1,20 15.8,19.5 16.5,20 	
		"/>
	<polygon class="st3" points="20.7,19.2 21.4,18.7 20.6,18.7 20.3,17.9 20,18.7 19.2,18.7 19.9,19.2 19.6,20 20.3,19.5 21,20 	"/>
	<polygon class="st3" points="25.2,19.2 25.9,18.7 25,18.7 24.8,17.9 24.5,18.7 23.6,18.7 24.4,19.2 24.1,20 24.8,19.5 25.4,20 	"/>
</g>
</svg>
