<?xml version="1.0" encoding="UTF-8"?><svg id="USA" xmlns="http://www.w3.org/2000/svg" xmlns:xlink="http://www.w3.org/1999/xlink" viewBox="0 0 64 40"><defs><style>.cls-1{stroke:#fff;stroke-miterlimit:10;stroke-width:3.08px;}.cls-2{clip-path:url(#clippath);}.cls-3{fill:none;}.cls-3,.cls-4,.cls-5,.cls-6{stroke-width:0px;}.cls-4{fill:#be0b31;}.cls-5{fill:#fff;}.cls-6{fill:#002768;}</style><clipPath id="clippath"><rect class="cls-3" width="64" height="40"/></clipPath></defs><g class="cls-2"><rect class="cls-4" width="76" height="40"/><path class="cls-1" d="M0,4.62h76M76,10.77H0M0,16.92h76M76,23.08H0M0,29.23h76M76,35.38H0"/><rect class="cls-6" width="30.4" height="21.54"/><g id="s18"><g id="s9"><g id="s5"><g id="s4"><path id="s" class="cls-5" d="M2.51.93l.72,2.23-1.89-1.38h2.34l-1.89,1.38.72-2.23Z"/><path id="s-2" class="cls-5" d="M2.51,5.24l.72,2.23-1.89-1.38h2.34l-1.89,1.38.72-2.23Z"/><path id="s-3" class="cls-5" d="M2.51,9.55l.72,2.23-1.89-1.38h2.34l-1.89,1.38.72-2.23Z"/><path id="s-4" class="cls-5" d="M2.51,13.86l.72,2.23-1.89-1.38h2.34l-1.89,1.38.72-2.23Z"/></g><path id="s-5" class="cls-5" d="M2.51,18.16l.72,2.23-1.89-1.38h2.34l-1.89,1.38.72-2.23Z"/></g><g id="s4-2"><path id="s-6" class="cls-5" d="M5.04,3.09l.72,2.23-1.89-1.38h2.34l-1.89,1.38.72-2.23Z"/><path id="s-7" class="cls-5" d="M5.04,7.4l.72,2.23-1.89-1.38h2.34l-1.89,1.38.72-2.23Z"/><path id="s-8" class="cls-5" d="M5.04,11.7l.72,2.23-1.89-1.38h2.34l-1.89,1.38.72-2.23Z"/><path id="s-9" class="cls-5" d="M5.04,16.01l.72,2.23-1.89-1.38h2.34l-1.89,1.38.72-2.23Z"/></g></g><g id="s9-2"><g id="s5-2"><g id="s4-3"><path id="s-10" class="cls-5" d="M7.58.93l.72,2.23-1.89-1.38h2.34l-1.89,1.38.72-2.23Z"/><path id="s-11" class="cls-5" d="M7.58,5.24l.72,2.23-1.89-1.38h2.34l-1.89,1.38.72-2.23Z"/><path id="s-12" class="cls-5" d="M7.58,9.55l.72,2.23-1.89-1.38h2.34l-1.89,1.38.72-2.23Z"/><path id="s-13" class="cls-5" d="M7.58,13.86l.72,2.23-1.89-1.38h2.34l-1.89,1.38.72-2.23Z"/></g><path id="s-14" class="cls-5" d="M7.58,18.16l.72,2.23-1.89-1.38h2.34l-1.89,1.38.72-2.23Z"/></g><g id="s4-4"><path id="s-15" class="cls-5" d="M10.11,3.09l.72,2.23-1.89-1.38h2.34l-1.89,1.38.72-2.23Z"/><path id="s-16" class="cls-5" d="M10.11,7.4l.72,2.23-1.89-1.38h2.34l-1.89,1.38.72-2.23Z"/><path id="s-17" class="cls-5" d="M10.11,11.7l.72,2.23-1.89-1.38h2.34l-1.89,1.38.72-2.23Z"/><path id="s-18" class="cls-5" d="M10.11,16.01l.72,2.23-1.89-1.38h2.34l-1.89,1.38.72-2.23Z"/></g></g></g><g id="s18-2"><g id="s9-3"><g id="s5-3"><g id="s4-5"><path id="s-19" class="cls-5" d="M12.64.93l.72,2.23-1.89-1.38h2.34l-1.89,1.38.72-2.23Z"/><path id="s-20" class="cls-5" d="M12.64,5.24l.72,2.23-1.89-1.38h2.34l-1.89,1.38.72-2.23Z"/><path id="s-21" class="cls-5" d="M12.64,9.55l.72,2.23-1.89-1.38h2.34l-1.89,1.38.72-2.23Z"/><path id="s-22" class="cls-5" d="M12.64,13.86l.72,2.23-1.89-1.38h2.34l-1.89,1.38.72-2.23Z"/></g><path id="s-23" class="cls-5" d="M12.64,18.16l.72,2.23-1.89-1.38h2.34l-1.89,1.38.72-2.23Z"/></g><g id="s4-6"><path id="s-24" class="cls-5" d="M15.18,3.09l.72,2.23-1.89-1.38h2.34l-1.89,1.38.72-2.23Z"/><path id="s-25" class="cls-5" d="M15.18,7.4l.72,2.23-1.89-1.38h2.34l-1.89,1.38.72-2.23Z"/><path id="s-26" class="cls-5" d="M15.18,11.7l.72,2.23-1.89-1.38h2.34l-1.89,1.38.72-2.23Z"/><path id="s-27" class="cls-5" d="M15.18,16.01l.72,2.23-1.89-1.38h2.34l-1.89,1.38.72-2.23Z"/></g></g><g id="s9-4"><g id="s5-4"><g id="s4-7"><path id="s-28" class="cls-5" d="M17.71.93l.72,2.23-1.89-1.38h2.34l-1.89,1.38.72-2.23Z"/><path id="s-29" class="cls-5" d="M17.71,5.24l.72,2.23-1.89-1.38h2.34l-1.89,1.38.72-2.23Z"/><path id="s-30" class="cls-5" d="M17.71,9.55l.72,2.23-1.89-1.38h2.34l-1.89,1.38.72-2.23Z"/><path id="s-31" class="cls-5" d="M17.71,13.86l.72,2.23-1.89-1.38h2.34l-1.89,1.38.72-2.23Z"/></g><path id="s-32" class="cls-5" d="M17.71,18.16l.72,2.23-1.89-1.38h2.34l-1.89,1.38.72-2.23Z"/></g><g id="s4-8"><path id="s-33" class="cls-5" d="M20.24,3.09l.72,2.23-1.89-1.38h2.34l-1.89,1.38.72-2.23Z"/><path id="s-34" class="cls-5" d="M20.24,7.4l.72,2.23-1.89-1.38h2.34l-1.89,1.38.72-2.23Z"/><path id="s-35" class="cls-5" d="M20.24,11.7l.72,2.23-1.89-1.38h2.34l-1.89,1.38.72-2.23Z"/><path id="s-36" class="cls-5" d="M20.24,16.01l.72,2.23-1.89-1.38h2.34l-1.89,1.38.72-2.23Z"/></g></g></g><g id="s9-5"><g id="s5-5"><g id="s4-9"><path id="s-37" class="cls-5" d="M22.78.93l.72,2.23-1.89-1.38h2.34l-1.89,1.38.72-2.23Z"/><path id="s-38" class="cls-5" d="M22.78,5.24l.72,2.23-1.89-1.38h2.34l-1.89,1.38.72-2.23Z"/><path id="s-39" class="cls-5" d="M22.78,9.55l.72,2.23-1.89-1.38h2.34l-1.89,1.38.72-2.23Z"/><path id="s-40" class="cls-5" d="M22.78,13.86l.72,2.23-1.89-1.38h2.34l-1.89,1.38.72-2.23Z"/></g><path id="s-41" class="cls-5" d="M22.78,18.16l.72,2.23-1.89-1.38h2.34l-1.89,1.38.72-2.23Z"/></g><g id="s4-10"><path id="s-42" class="cls-5" d="M25.31,3.09l.72,2.23-1.89-1.38h2.34l-1.89,1.38.72-2.23Z"/><path id="s-43" class="cls-5" d="M25.31,7.4l.72,2.23-1.89-1.38h2.34l-1.89,1.38.72-2.23Z"/><path id="s-44" class="cls-5" d="M25.31,11.7l.72,2.23-1.89-1.38h2.34l-1.89,1.38.72-2.23Z"/><path id="s-45" class="cls-5" d="M25.31,16.01l.72,2.23-1.89-1.38h2.34l-1.89,1.38.72-2.23Z"/></g></g><g id="s5-6"><g id="s4-11"><path id="s-46" class="cls-5" d="M27.84.93l.72,2.23-1.89-1.38h2.34l-1.89,1.38.72-2.23Z"/><path id="s-47" class="cls-5" d="M27.84,5.24l.72,2.23-1.89-1.38h2.34l-1.89,1.38.72-2.23Z"/><path id="s-48" class="cls-5" d="M27.84,9.55l.72,2.23-1.89-1.38h2.34l-1.89,1.38.72-2.23Z"/><path id="s-49" class="cls-5" d="M27.84,13.86l.72,2.23-1.89-1.38h2.34l-1.89,1.38.72-2.23Z"/></g><path id="s-50" class="cls-5" d="M27.84,18.16l.72,2.23-1.89-1.38h2.34l-1.89,1.38.72-2.23Z"/></g></g></svg>