<svg id="FlattenAll" xmlns="http://www.w3.org/2000/svg" xmlns:xlink="http://www.w3.org/1999/xlink" viewBox="0 0 26 26">
  <defs>
    <clipPath id="clip-path">
      <rect id="Rectangle_1734" data-name="Rectangle 1734" width="16" height="16" fill="none"/>
    </clipPath>
  </defs>
  <g id="Group_3370" data-name="Group 3370" transform="translate(5 5)">
    <g id="Group_3367" data-name="Group 3367" clip-path="url(#clip-path)">
      <path id="Path_588" data-name="Path 588" d="M3.5,12,7,7H4.5V1a1,1,0,0,0-2,0V7H0Z" fill="#535353"/>
      <path id="Path_589" data-name="Path 589" d="M0,15H0a1,1,0,0,1,1-1H6a1,1,0,0,1,0,2H1a1,1,0,0,1-1-1" fill="#535353"/>
      <path id="Path_590" data-name="Path 590" d="M12.5,12,16,7H13.5V1a1,1,0,0,0-2,0V7H9Z" fill="#535353"/>
      <path id="Path_591" data-name="Path 591" d="M9,15H9a1,1,0,0,1,1-1h5a1,1,0,0,1,0,2H10a1,1,0,0,1-1-1" fill="#535353"/>
    </g>
  </g>
</svg>
