<svg width="16" height="16" viewBox="0 0 16 16" fill="none" xmlns="http://www.w3.org/2000/svg">
<path d="M10.8652 0C11.1523 2.01153e-08 11.4279 0.114395 11.6309 0.317383L15.6826 4.36914C15.8856 4.57213 16 4.8477 16 5.13477V10.8652C16 11.1523 15.8856 11.4279 15.6826 11.6309L11.6309 15.6826C11.4279 15.8856 11.1523 16 10.8652 16H5.13477C4.8477 16 4.57213 15.8856 4.36914 15.6826L0.317383 11.6309C0.114395 11.4279 7.34973e-09 11.1523 0 10.8652V5.13477C-7.34973e-09 4.8477 0.114395 4.57213 0.317383 4.36914L4.36914 0.317383C4.57213 0.114395 4.8477 -2.11743e-08 5.13477 0H10.8652ZM7.125 11H8.875V9.25H7.125V11ZM7.125 4V8H8.875V4H7.125Z" fill="#E63F44"/>
</svg>
