<svg width="16" height="16" viewBox="0 0 16 16" fill="none" xmlns="http://www.w3.org/2000/svg">
<g clip-path="url(#clip0_231_6513)">
<path d="M9.568 0.144087C3.936 -0.911913 -0.912005 3.93609 0.143995 9.56809C0.735995 12.7201 3.28 15.2641 6.432 15.8561C12.064 16.9281 16.912 12.0801 15.856 6.43209C15.248 3.28009 12.72 0.752087 9.568 0.144087ZM9.008 12.6401C9.008 12.8321 8.896 12.9921 8.752 12.9921H7.248C7.104 12.9921 6.992 12.8321 6.992 12.6401V6.33609C6.992 6.14409 7.104 5.98409 7.248 5.98409H8.752C8.896 5.98409 9.008 6.14409 9.008 6.33609V12.6401ZM8.016 4.99209C7.456 4.99209 7.024 4.54409 7.024 4.00009C7.024 3.45609 7.472 3.00809 8.016 3.00809C8.576 3.00809 9.008 3.45609 9.008 4.00009C9.008 4.54409 8.56 4.99209 8.016 4.99209Z" fill="#DBDBDB"/>
</g>
<defs>
<clipPath id="clip0_231_6513">
<rect width="16" height="16" fill="white"/>
</clipPath>
</defs>
</svg>
