<?xml version="1.0" encoding="utf-8"?>
<!-- Generator: Adobe Illustrator 22.0.1, SVG Export Plug-In . SVG Version: 6.00 Build 0)  -->
<svg version="1.1" id="Layer_1" xmlns="http://www.w3.org/2000/svg" xmlns:xlink="http://www.w3.org/1999/xlink" x="0px" y="0px"
	 viewBox="0 0 100 100" style="enable-background:new 0 0 100 100;" xml:space="preserve">
<style type="text/css">
	.st0{fill:#4B23A0;}
</style>
<path class="st0" d="M50.1,0.1c-27.6,0-50,22.4-50,50s22.4,50,50,50s50-22.4,50-50S77.8,0.1,50.1,0.1z M57.3,76.9
	c0,1-0.8,1.8-1.8,1.8H44.8c-1,0-1.8-0.8-1.8-1.8V44.7c0-1,0.8-1.8,1.8-1.8h10.7c1,0,1.8,0.8,1.8,1.8V76.9z M50.1,35.8
	c-3.9,0-7.1-3.2-7.1-7.1s3.2-7.1,7.1-7.1s7.1,3.2,7.1,7.1S54.1,35.8,50.1,35.8z"/>
</svg>
