<?xml version="1.0" encoding="utf-8"?>
<!-- Generator: Adobe Illustrator 22.0.1, SVG Export Plug-In . SVG Version: 6.00 Build 0)  -->
<svg version="1.1" id="Layer_1" xmlns="http://www.w3.org/2000/svg" xmlns:xlink="http://www.w3.org/1999/xlink" x="0px" y="0px"
	 viewBox="0 0 100 100" style="enable-background:new 0 0 100 100;" xml:space="preserve">
<style type="text/css">
	.st0{fill:#EBEBEB;}
</style>
<g>
	<ellipse class="st0" cx="32.1" cy="30.9" rx="7.1" ry="7.1"/>
	<path class="st0" d="M92.9,0H7.1C3.2,0,0,3.2,0,7.1v85.7c0,3.9,3.2,7.1,7.1,7.1h85.7c3.9,0,7.1-3.2,7.1-7.1V7.1
		C100,3.2,96.8,0,92.9,0z M85.2,76.4L77.6,84c-0.7,0.7-1.8,0.7-2.5,0l-3.5-3.5l-6.4,6.4l-7.6-7.6l6.4-6.4l-5.2-5.2l-6.4,6.4L47.3,69
		l6.4-6.4l-15-15c-6.4,2.5-14,1.2-19.1-4c-7-7-7-18.3,0-25.3s18.3-7,25.3,0c5.2,5.2,6.5,12.7,4,19.1l36.4,36.4
		C85.9,74.6,85.9,75.7,85.2,76.4z"/>
</g>
</svg>
