<?xml version="1.0" encoding="utf-8"?>
<!-- Generator: Adobe Illustrator 22.0.1, SVG Export Plug-In . SVG Version: 6.00 Build 0)  -->
<svg version="1.1" id="Layer_1" xmlns="http://www.w3.org/2000/svg" xmlns:xlink="http://www.w3.org/1999/xlink" x="0px" y="0px"
	 viewBox="0 0 100 100" style="enable-background:new 0 0 100 100;" xml:space="preserve">
<style type="text/css">
	.st0{fill:#8C8C8C;}
</style>
<path class="st0" d="M60.3,65.3l-8.8,8.8c-0.7,0.7-1.8,0.7-2.5,0L21.2,46.3c-0.7-0.7-0.7-1.8,0-2.5l7.6-7.6c0.7-0.7,1.8-0.7,2.5,0
	l18.9,18.9l37.7-37.7C77.1,4.8,60-2.4,41.4,0.7C21.2,4.1,4.8,20.1,0.9,40.1c-6.7,35.1,23.3,65.3,58.4,59
	c19.4-3.5,35.2-18.7,39.5-37.9c2.5-11.3,1.1-22-3-31.3L60.3,65.3z"/>
</svg>
