<?xml version="1.0" encoding="utf-8"?>
<!-- Generator: Adobe Illustrator 22.0.1, SVG Export Plug-In . SVG Version: 6.00 Build 0)  -->
<svg version="1.1" id="Layer_1" xmlns="http://www.w3.org/2000/svg" xmlns:xlink="http://www.w3.org/1999/xlink" x="0px" y="0px"
	 viewBox="0 0 100 100" style="enable-background:new 0 0 100 100;" xml:space="preserve">
<style type="text/css">
	.st0{fill:#8C8C8C;}
</style>
<path class="st0" d="M92.9,35.8H28.6v-7.2c0-11.8,9.6-21.4,21.4-21.4s21.4,9.6,21.4,21.4h7.1C78.6,12.8,65.8,0,50,0
	S21.4,12.8,21.4,28.6v7.2H7.1C3.2,35.8,0,39,0,42.9v50c0,3.9,3.2,7.1,7.1,7.1h85.7c3.9,0,7.1-3.2,7.1-7.1v-50
	C100,39,96.8,35.8,92.9,35.8z M56.8,80c0.2,1.1-0.6,2.1-1.8,2.1H45c-1.1,0-2-1-1.8-2.1l2.5-13.7C44,65,42.9,63,42.9,60.7
	c0-3.9,3.2-7.1,7.1-7.1s7.1,3.2,7.1,7.1c0,2.3-1.2,4.3-2.9,5.6L56.8,80z"/>
</svg>
