<?xml version="1.0" encoding="utf-8"?>
<!-- Generator: Adobe Illustrator 22.1.0, SVG Export Plug-In . SVG Version: 6.00 Build 0)  -->
<svg version="1.1" id="Layer_1" xmlns="http://www.w3.org/2000/svg" xmlns:xlink="http://www.w3.org/1999/xlink" x="0px" y="0px"
	 viewBox="0 0 100 100" style="enable-background:new 0 0 100 100;" xml:space="preserve">
<style type="text/css">
	.st0{fill:#7D7E90;}
</style>
<path class="st0" d="M93.8,37.6l-62.5,0V25c0-6.9,5.6-12.5,12.5-12.5h12.5c6.9,0,12.5,5.6,12.5,12.5v6.2h12.5v-6.2h0
	C81.2,11.2,70,0,56.2,0H43.8c-13.8,0-25,11.2-25,25v12.5l-12.5,0c-3.5,0-6.3,2.8-6.3,6.3v50c0,3.5,2.8,6.3,6.2,6.3h87.5
	c3.5,0,6.2-2.8,6.2-6.3V43.8C100,40.4,97.2,37.6,93.8,37.6z M55.9,79.4c0.2,1-0.6,1.8-1.5,1.8h-8.7c-1,0-1.7-0.9-1.5-1.8l2.2-12
	c-1.5-1.1-2.5-2.9-2.5-4.9c0-3.5,2.8-6.2,6.2-6.2c3.5,0,6.2,2.8,6.2,6.2c0,2-1,3.8-2.5,4.9L55.9,79.4z"/>
</svg>
