<?xml version="1.0" encoding="utf-8"?>
<!-- Generator: Adobe Illustrator 22.0.1, SVG Export Plug-In . SVG Version: 6.00 Build 0)  -->
<svg version="1.1" id="Layer_1" xmlns="http://www.w3.org/2000/svg" xmlns:xlink="http://www.w3.org/1999/xlink" x="0px" y="0px"
	 viewBox="0 0 200 200" style="enable-background:new 0 0 200 200;" xml:space="preserve">
<style type="text/css">
	.st0{fill:#4B23A0;}
</style>
<path class="st0" d="M198.4,93.6l-94.9-92c-2-1.9-5.1-1.9-7.1,0l-94.9,92c-3.3,3.2-1,8.8,3.5,8.8h24.4l4.3,92.9
	c0.1,2.7,2.3,4.8,5,4.8h122.4c2.7,0,4.9-2.1,5-4.8l4.3-92.9h24.4C199.5,102.4,201.7,96.8,198.4,93.6z M114.5,158.1
	c0,7.9-6.6,14.5-14.5,14.5s-14.5-6.6-14.5-14.5v-43.5c0-7.9,6.6-14.5,14.5-14.5s14.5,6.6,14.5,14.5V158.1z M100,85.4
	c-8,0-14.5-6.5-14.5-14.5S92,56.4,100,56.4s14.5,6.5,14.5,14.5S108,85.4,100,85.4z"/>
</svg>
