<?xml version="1.0" encoding="utf-8"?>
<!-- Generator: Adobe Illustrator 22.0.1, SVG Export Plug-In . SVG Version: 6.00 Build 0)  -->
<svg version="1.1" id="Layer_1" xmlns="http://www.w3.org/2000/svg" xmlns:xlink="http://www.w3.org/1999/xlink" x="0px" y="0px"
	 viewBox="0 0 100 100" style="enable-background:new 0 0 100 100;" xml:space="preserve">
<style type="text/css">
	.st0{fill:#EBEBEB;}
</style>
<g>
	<path class="st0" d="M92.9,0H7.1C3.2,0,0,3.2,0,7.1v85.7c0,3.9,3.2,7.1,7.1,7.1h85.7c3.9,0,7.1-3.2,7.1-7.1V7.1
		C100,3.2,96.8,0,92.9,0z M50,78.6C23.8,78.6,14.3,50,14.3,50S23.8,21.4,50,21.4S85.7,50,85.7,50S76.2,78.6,50,78.6z"/>
	<path class="st0" d="M50,35.7c-0.4,0-0.7,0.1-1,0.1c1.9,1.3,3.3,3.4,3.3,5.8c0,3.9-3.2,7.1-7.1,7.1c-3.7,0-6.7-2.9-7-6.6
		c-1.5,2.2-2.3,4.9-2.3,7.8c0,7.9,6.4,14.3,14.3,14.3s14.3-6.4,14.3-14.3C64.3,42.1,57.9,35.7,50,35.7z"/>
</g>
</svg>
