<?xml version="1.0" encoding="utf-8"?>
<!-- Generator: Adobe Illustrator 22.0.1, SVG Export Plug-In . SVG Version: 6.00 Build 0)  -->
<svg version="1.1" id="Layer_1" xmlns="http://www.w3.org/2000/svg" xmlns:xlink="http://www.w3.org/1999/xlink" x="0px" y="0px"
	 viewBox="0 0 100 100" style="enable-background:new 0 0 100 100;" xml:space="preserve">
<style type="text/css">
	.st0{fill:#8C8C8C;}
</style>
<path class="st0" d="M40.4,0.9C21.2,4.5,5.5,19.6,1.3,38.7c-2.5,11.2-1.2,21.9,2.8,31.1l8.6-15.1l6.2-10.9c0.5-0.9,1.6-1.2,2.4-0.7
	l10.9,6.2l12.4,7.1l7-12.4l-9.3-5.3c-1.3-0.7-1.2-2.6,0.2-3.2l27.3-11.9c1.1-0.5,2.3,0.2,2.5,1.4L76,54.6c0.2,1.5-1.4,2.5-2.7,1.8
	L64,51.1l-7,12.4l-6.2,10.9c-0.5,0.9-1.6,1.2-2.4,0.7l-10.9-6.2l-12.4-7.1L12.8,83.4c11,12.2,27.8,19.1,46.2,15.9
	c20-3.5,36.3-19.4,40.1-39.4C105.8,24.6,75.5-5.7,40.4,0.9z"/>
</svg>
