<?xml version="1.0" encoding="utf-8"?>
<!-- Generator: Adobe Illustrator 22.0.1, SVG Export Plug-In . SVG Version: 6.00 Build 0)  -->
<svg version="1.1" id="Layer_1" xmlns="http://www.w3.org/2000/svg" xmlns:xlink="http://www.w3.org/1999/xlink" x="0px" y="0px"
	 viewBox="0 0 100 100" style="enable-background:new 0 0 100 100;" xml:space="preserve">
<style type="text/css">
	.st0{fill:#EBEBEB;}
</style>
<g>
	<path class="st0" d="M27.1,67.8c2.6,3.3,5.8,6,9.6,8c-1.3-2.3-2.4-5-3.3-8H27.1z"/>
	<path class="st0" d="M27.1,32.2h6.3c0.9-2.9,2-5.6,3.3-8C32.9,26.2,29.7,28.9,27.1,32.2z"/>
	<path class="st0" d="M31.7,39.1H23c-0.9,2.3-1.5,4.8-1.8,7.4h9.7C31,44,31.3,41.5,31.7,39.1z"/>
	<path class="st0" d="M50,20.9c-4,0-7.4,4.5-9.7,11.3h19.4C57.4,25.3,54,20.9,50,20.9z"/>
	<path class="st0" d="M30.9,53.5h-9.7c0.3,2.6,0.9,5.1,1.8,7.4h8.7C31.3,58.5,31,56,30.9,53.5z"/>
	<path class="st0" d="M38.6,60.9h22.8c0.4-2.3,0.6-4.8,0.8-7.4H37.8C38,56,38.2,58.6,38.6,60.9z"/>
	<path class="st0" d="M50,79.1c4,0,7.4-4.5,9.7-11.3H40.3C42.6,74.7,46.1,79.1,50,79.1z"/>
	<path class="st0" d="M38.6,39.1c-0.4,2.3-0.6,4.8-0.8,7.4h24.4c-0.1-2.6-0.4-5.1-0.8-7.4H38.6z"/>
	<path class="st0" d="M68.3,60.9H77c0.9-2.3,1.5-4.8,1.8-7.4h-9.7C69,56,68.7,58.5,68.3,60.9z"/>
	<path class="st0" d="M92.9,0H7.1C3.2,0,0,3.2,0,7.1v85.7c0,3.9,3.2,7.1,7.1,7.1h85.7c3.9,0,7.1-3.2,7.1-7.1V7.1
		C100,3.2,96.8,0,92.9,0z M50,85.7c-19.7,0-35.7-16-35.7-35.7s16-35.7,35.7-35.7s35.7,16,35.7,35.7S69.7,85.7,50,85.7z"/>
	<path class="st0" d="M69.1,46.5h9.7c-0.3-2.6-0.9-5.1-1.8-7.4h-8.7C68.7,41.5,69,44,69.1,46.5z"/>
	<path class="st0" d="M72.9,32.2c-2.6-3.3-5.8-6-9.6-8c1.3,2.3,2.4,5,3.3,8H72.9z"/>
	<path class="st0" d="M63.3,75.8c3.8-1.9,7-4.7,9.6-8h-6.3C65.7,70.7,64.6,73.5,63.3,75.8z"/>
</g>
</svg>
