<?xml version="1.0" encoding="utf-8"?>
<!-- Generator: Adobe Illustrator 22.0.1, SVG Export Plug-In . SVG Version: 6.00 Build 0)  -->
<svg version="1.1" id="Layer_1" xmlns="http://www.w3.org/2000/svg" xmlns:xlink="http://www.w3.org/1999/xlink" x="0px" y="0px"
	 viewBox="0 0 100 100" style="enable-background:new 0 0 100 100;" xml:space="preserve">
<style type="text/css">
	.st0{fill:#EBEBEB;}
</style>
<path class="st0" d="M92.9,0H7.1C3.2,0,0,3.2,0,7.1v85.7c0,3.9,3.2,7.1,7.1,7.1h85.7c3.9,0,7.1-3.2,7.1-7.1V7.1
	C100,3.2,96.8,0,92.9,0z M71.4,78.6c-6.1,0-11.3-3.8-13.3-9.2l-8.3,0.7c-1.1,8.8-8.5,15.6-17.6,15.6c-9.9,0-17.9-8-17.9-17.9
	s8-17.9,17.9-17.9c8.1,0,14.9,5.5,17.1,12.9l8.1-0.7c0.5-3.5,2.2-6.5,4.8-8.7l-9-18c-0.6,0.1-1.2,0.2-1.9,0.2
	c-5.9,0-10.7-4.8-10.7-10.7s4.8-10.7,10.7-10.7S61.9,19.1,61.9,25c0,2.7-1,5.1-2.6,7l9.2,18.3c0.9-0.2,1.9-0.3,2.9-0.3
	c7.9,0,14.3,6.4,14.3,14.3S79.3,78.6,71.4,78.6z"/>
</svg>
