<?xml version="1.0" encoding="utf-8"?>
<!-- Generator: Adobe Illustrator 24.1.2, SVG Export Plug-In . SVG Version: 6.00 Build 0)  -->
<svg version="1.1" id="Layer_1" xmlns="http://www.w3.org/2000/svg" xmlns:xlink="http://www.w3.org/1999/xlink" x="0px" y="0px"
	 viewBox="0 0 100 100" style="enable-background:new 0 0 100 100;" xml:space="preserve">
<style type="text/css">
	.st0{fill:#7D7E90;}
</style>
<path class="st0" d="M50,0L0,50h12.7l5.4,44.5c0.4,3.1,3,5.5,6.2,5.5h51.4c3.2,0,5.8-2.4,6.2-5.5L87.3,50H100L50,0z M56.3,85.3
	c0,1.2-0.7,2.2-1.6,2.2h-9.4c-0.9,0-1.6-1-1.6-2.2V45.9c0-1.2,0.7-2.2,1.6-2.2h9.4c0.9,0,1.6,1,1.6,2.2V85.3z M50,37.5
	c-3.5,0-6.3-2.8-6.3-6.3S46.5,25,50,25s6.3,2.8,6.3,6.3S53.5,37.5,50,37.5z"/>
</svg>
