<?xml version="1.0" encoding="UTF-8"?><svg id="logo" xmlns="http://www.w3.org/2000/svg" viewBox="0 0 32 32"><defs><style>.cls-1{fill:#bbdef5;}.cls-1,.cls-2,.cls-3,.cls-4,.cls-5,.cls-6,.cls-7,.cls-8,.cls-9,.cls-10,.cls-11,.cls-12,.cls-13,.cls-14,.cls-15,.cls-16{stroke-width:0px;}.cls-2{fill:#c3e1f5;}.cls-3{fill:#2f7bbd;}.cls-4{fill:#66a4d7;}.cls-5{fill:#2970a9;}.cls-6{fill:#90c1e8;}.cls-7{fill:#c4e4f7;}.cls-8{fill:#7eb4e2;}.cls-9{fill:#1b63ac;}.cls-10{fill:#0e558f;}.cls-11{fill:#2169ac;}.cls-12{fill:#74addd;}.cls-13{fill:#09508d;}.cls-14{fill:#add2ee;}.cls-15{fill:#5c9dd4;}.cls-16{fill:#4e8fcc;}</style></defs><polygon class="cls-7" points="28.68 11.13 29 14.68 24.32 15.24 24.1 12.8 23.49 11 27.28 8.22 28.68 11.13"/><polygon class="cls-1" points="29 14.68 28.73 17.96 27.33 20.98 22.85 19.01 23.89 17.21 24.32 15.24 29 14.68"/><polygon class="cls-14" points="27.33 20.98 25.45 23.51 22.54 25.55 19.82 21.4 21.63 20.55 22.85 19.01 27.33 20.98"/><polygon class="cls-1" points="24.1 12.8 24.32 15.24 16.4 16.19 23.49 11 24.1 12.8"/><polygon class="cls-14" points="24.32 15.24 23.89 17.21 22.85 19.01 16.4 16.19 24.32 15.24"/><polygon class="cls-3" points="22.27 8.71 22.99 10.06 18.79 13.97 17.63 12.8 19.82 6.75 22.27 8.71"/><polygon class="cls-6" points="22.85 19.01 21.63 20.55 19.82 21.4 16.4 16.19 22.85 19.01"/><polygon class="cls-6" points="19.82 21.4 22.54 25.55 19.63 26.42 15.97 26.42 16.19 21.3 17.96 21.84 19.82 21.4"/><polygon class="cls-15" points="19.82 6.75 17.63 12.8 16.35 11.51 15 11.51 13.23 5.58 16.56 5.58 19.82 6.75"/><polygon class="cls-4" points="16.4 16.19 19.82 21.4 17.96 21.84 16.19 21.3 16.4 16.19"/><polygon class="cls-5" points="19.06 14.24 18.79 13.97 22.99 10.06 23.49 11 19.06 14.24"/><polygon class="cls-13" points="18.79 13.97 17.63 12.8 16.4 16.19 19.06 14.24 18.79 13.97"/><polygon class="cls-10" points="16.35 11.51 17.63 12.8 16.4 16.19 16.35 11.51"/><polygon class="cls-9" points="16.35 11.51 16.4 16.19 15 11.51 16.35 11.51"/><polygon class="cls-11" points="15 11.51 16.4 16.19 12.9 11.51 15 11.51"/><polygon class="cls-16" points="16.4 16.19 16.19 21.3 14.84 20.44 16.4 16.19"/><polygon class="cls-3" points="16.4 16.19 14.84 20.44 13.98 18.82 16.4 16.19"/><polygon class="cls-16" points="16.4 16.19 13.98 18.82 10.27 22.86 8.87 19.96 16.4 16.19"/><polygon class="cls-15" points="8.92 16.35 8.89 18.18 8.87 19.96 16.4 16.19 8.92 16.35"/><polygon class="cls-11" points="10.21 13.55 9.54 15.01 8.92 16.35 16.4 16.19 10.21 13.55"/><polygon class="cls-3" points="12.9 11.51 11.8 12.34 10.21 13.55 16.4 16.19 12.9 11.51"/><polygon class="cls-12" points="16.19 21.3 15.97 26.42 12.85 25.23 10.27 22.86 13.98 18.82 14.84 20.44 16.19 21.3"/><polygon class="cls-8" points="13.23 5.58 15 11.51 12.9 11.51 11.8 12.34 7.2 8.49 9.78 6.55 13.23 5.58"/><polygon class="cls-6" points="11.8 12.34 10.21 13.55 9.54 15.01 3.54 13.98 4.91 11 7.2 8.49 11.8 12.34"/><polygon class="cls-2" points="9.54 15.01 8.92 16.35 8.89 18.18 3.22 19.69 3 16.67 3.54 13.98 9.54 15.01"/></svg>