<?xml version="1.0" encoding="UTF-8"?><svg id="logo" xmlns="http://www.w3.org/2000/svg" viewBox="0 0 32 32"><defs><style>.cls-1{fill:#eb4c3d;stroke-width:0px;}</style></defs><path class="cls-1" d="M13.57,11.37v2.8c0,.59-.66.88-1.1.59l-2.43-1.32c-.52-.29-.52-1.03,0-1.32l2.43-1.4c.44-.22,1.1.15,1.1.66Z"/><path class="cls-1" d="M22.25,23.66l-5.74,3.24c-.52.29-1.1-.07-1.1-.59v-6.48c0-.59.66-.88,1.1-.59l5.74,3.24c.52.22.52.88,0,1.18Z"/><path class="cls-1" d="M11.51,17.55l-3.61,2.13c-.44.29-1.1-.07-1.1-.66v-4.12c0-.59.66-.88,1.1-.59l3.61,2.06c.52.22.52.96,0,1.18Z"/><path class="cls-1" d="M7.69,21.89l4.78-2.72c.52-.29,1.1.07,1.1.59v5.44c0,.59-.66.88-1.1.59l-4.78-2.72c-.52-.22-.52-.88,0-1.18Z"/><path class="cls-1" d="M24.02,10.56l-7.43,4.19c-.51.29-1.1-.07-1.1-.59V5.7c0-.59.66-.88,1.1-.59l7.43,4.19c.52.29.52.96,0,1.25Z"/><path class="cls-1" d="M25.2,13.21v7.51c0,.59-.66.88-1.1.59l-6.62-3.75c-.52-.29-.52-1.03,0-1.32l6.62-3.75c.52-.22,1.1.22,1.1.74Z"/></svg>
