<svg viewBox="0 0 72 41" fill="none" xmlns="http://www.w3.org/2000/svg">
<g clip-path="url(#clip0_3_17)">
<path d="M7 25.3C5.052 25.291 3.109 25.09 1.2 24.7C0.88 24.678 0.622 24.42 0.6 24.1V21.7C0.621 21.379 0.879 21.121 1.2 21.1C3.127 21.297 5.063 21.397 7 21.4C9.9 21.4 10.8 20.3 10.8 18.5C10.8 17.3 10.2 16.5 8.1 15.3L3.9 12.7C0.8 10.9 0 9.1 0 6.8C0 3.2 2.1 0.600002 8.2 0.600002C10.281 0.595002 12.358 0.796002 14.4 1.2C14.721 1.221 14.979 1.479 15 1.8V4.2C15 4.5 14.7 4.7 14.4 4.7C12.3 4.5 10.2 4.4 8 4.4C5.6 4.4 4.5 5.3 4.5 6.7C4.5 7.8 5.1 8.4 7.2 9.6L11.1 11.7C14.7 13.7 15.6 15.8 15.6 18.4C15.6 21.8 13.5 25.3 7 25.3Z" fill="white"/>
<path d="M29.9 14.6C29.9 11.9 29.1 9.9 26.4 9.9C25.327 9.921 24.258 10.021 23.2 10.2V21.6C24.256 21.794 25.327 21.895 26.4 21.9C29.3 21.9 29.9 19.9 29.9 17.2V14.6ZM26.4 25.3C25.325 25.332 24.25 25.231 23.2 25V30.8C23.179 31.121 22.921 31.379 22.6 31.4H19.6C19.279 31.379 19.021 31.121 19 30.8V8.005C19 7.51 19.205 7.281 19.9 7.105C22.027 6.567 24.207 6.266 26.4 6.205C31.7 6.205 34.1 9.205 34.1 14.405V17C34.3 22.1 31.7 25.3 26.4 25.3Z" fill="white"/>
<path d="M41.2 25H38.2C37.9 25 37.6 24.7 37.6 24.2V7.2C37.621 6.879 37.879 6.621 38.2 6.6H41.2C41.521 6.621 41.779 6.879 41.8 7.2V24.3C41.8 24.75 41.7 25 41.2 25ZM41.4 4.2H38.2C37.9 4.2 37.4 3.9 37.4 3.6V0.6C37.4 0.3 37.7 0 38.2 0H41.4C41.721 0.021 41.979 0.279 42 0.6V3.5C42.019 3.854 41.753 4.164 41.4 4.2Z" fill="white"/>
<path d="M54.7 10C53.122 10.004 51.571 10.417 50.2 11.2V24.4C50.2 24.7 49.9 25.2 49.6 25.2H46.6C46.3 25.2 46 24.9 46 24.4V7.3C46.021 6.979 46.279 6.721 46.6 6.7H49.5C49.781 6.766 49.986 7.012 50 7.3V8C51.364 7.007 53.013 6.481 54.7 6.5C55.021 6.521 55.279 6.779 55.3 7.1V9.5C55.3 9.7 55.2 9.995 54.7 9.995" fill="white"/>
<path d="M67.5 14.1C67.5 11.5 66.1 10.2 64 10.2C61.9 10.2 60.5 11.6 60.5 14.1V14.3L67.5 14.1ZM71.2 17.3H60.6V17.5C60.6 19.3 61.4 21.6 64.5 21.6C66.9 21.6 69.2 21.4 70.6 21.3H70.8C71.099 21.276 71.367 21.497 71.4 21.795V23.895C71.403 23.925 71.398 24.01 71.398 24.04C71.398 24.483 71.042 24.69 70.6 24.795C68.505 25.292 66.351 25.494 64.2 25.395C60.9 25.395 56.3 23.595 56.3 17.195V14.8C56.3 9.6 59.2 6.5 64.2 6.5C69.2 6.5 72 9.9 72 14.7V16.5C72 17 71.7 17.3 71.2 17.3Z" fill="white"/>
<path d="M72 28.6V39C72 40.104 71.104 41 70 41H28C26.896 41 26 40.104 26 39V28.6C26 27.496 26.896 26.6 28 26.6H70C71.104 26.6 72 27.496 72 28.6Z" fill="#2169AC"/>
<path d="M67.325 37.108C67.675 37.12 68.017 37 68.283 36.772C68.529 36.564 68.676 36.262 68.689 35.94H70.143C70.126 36.37 69.988 36.786 69.743 37.14C69.485 37.512 69.136 37.811 68.728 38.008C68.299 38.224 67.824 38.335 67.344 38.332C66.483 38.373 65.646 38.031 65.059 37.399C64.462 36.678 64.16 35.757 64.215 34.822V34.663C64.169 33.751 64.469 32.855 65.053 32.153C65.634 31.514 66.472 31.167 67.335 31.208C68.069 31.177 68.787 31.433 69.335 31.922C69.853 32.408 70.147 33.088 70.144 33.798H68.69C68.686 33.435 68.543 33.087 68.29 32.827C68.036 32.572 67.687 32.434 67.328 32.446C66.877 32.423 66.443 32.627 66.173 32.989C65.866 33.481 65.722 34.057 65.76 34.636V34.884C65.717 35.467 65.857 36.05 66.16 36.55C66.429 36.921 66.868 37.131 67.325 37.108Z" fill="white"/>
<path d="M62.825 38.208H61.282V31.34H62.825V38.208ZM61.187 29.556C61.18 29.337 61.261 29.125 61.412 28.966C61.584 28.801 61.818 28.716 62.056 28.731C62.295 28.716 62.529 28.801 62.703 28.966C62.856 29.124 62.939 29.337 62.932 29.556C62.938 29.773 62.855 29.983 62.703 30.137C62.528 30.3 62.294 30.384 62.056 30.369C61.819 30.384 61.585 30.3 61.412 30.137C61.262 29.982 61.18 29.772 61.187 29.556Z" fill="white"/>
<path d="M58.324 36.342C58.334 36.087 58.203 35.845 57.984 35.714C57.632 35.526 57.251 35.397 56.857 35.333C56.404 35.246 55.963 35.106 55.543 34.914C54.861 34.666 54.4 34.02 54.388 33.295C54.384 32.709 54.662 32.155 55.135 31.808C55.68 31.395 56.352 31.183 57.035 31.208C57.749 31.174 58.453 31.389 59.025 31.817C59.516 32.192 59.798 32.78 59.784 33.398H58.248C58.254 33.115 58.133 32.843 57.918 32.658C57.674 32.451 57.361 32.344 57.042 32.358C56.748 32.345 56.457 32.428 56.214 32.593C56.008 32.734 55.887 32.971 55.893 33.221C55.887 33.445 56.001 33.656 56.193 33.773C56.572 33.968 56.979 34.103 57.399 34.173C57.893 34.268 58.372 34.428 58.824 34.649C59.132 34.801 59.397 35.029 59.592 35.312C59.766 35.594 59.853 35.92 59.843 36.251C59.853 36.847 59.565 37.411 59.075 37.751C58.485 38.157 57.778 38.359 57.063 38.325C56.547 38.335 56.035 38.233 55.563 38.025C55.151 37.844 54.795 37.555 54.535 37.187C54.296 36.852 54.167 36.45 54.167 36.038H55.667C55.671 36.366 55.823 36.676 56.08 36.879C56.373 37.09 56.729 37.196 57.089 37.179C57.415 37.201 57.739 37.119 58.016 36.947C58.213 36.81 58.329 36.582 58.324 36.342Z" fill="white"/>
<path d="M51.615 36.342C51.625 36.087 51.494 35.845 51.275 35.714C50.923 35.526 50.542 35.397 50.148 35.333C49.695 35.246 49.254 35.105 48.835 34.914C48.153 34.666 47.692 34.02 47.68 33.295C47.676 32.708 47.955 32.155 48.428 31.808C48.975 31.393 49.649 31.181 50.335 31.208C51.049 31.174 51.753 31.389 52.325 31.817C52.816 32.192 53.098 32.78 53.084 33.398H51.535C51.541 33.115 51.42 32.843 51.205 32.658C50.961 32.451 50.648 32.344 50.329 32.358C50.035 32.345 49.744 32.428 49.501 32.593C49.295 32.734 49.174 32.971 49.18 33.221C49.174 33.445 49.288 33.656 49.48 33.773C49.859 33.968 50.266 34.103 50.686 34.173C51.18 34.268 51.659 34.428 52.111 34.649C52.419 34.801 52.684 35.029 52.879 35.312C53.056 35.595 53.145 35.925 53.135 36.259C53.145 36.855 52.857 37.419 52.367 37.759C51.777 38.165 51.07 38.367 50.355 38.333C49.839 38.343 49.327 38.241 48.855 38.033C48.443 37.852 48.087 37.563 47.827 37.195C47.588 36.86 47.459 36.458 47.459 36.046H48.959C48.963 36.374 49.115 36.684 49.372 36.887C49.665 37.098 50.021 37.204 50.381 37.187C50.707 37.209 51.031 37.127 51.308 36.955C51.508 36.816 51.623 36.585 51.615 36.342Z" fill="white"/>
<path d="M44.835 38.208C44.746 38.004 44.686 37.788 44.657 37.567C44.194 38.067 43.539 38.346 42.857 38.335C42.24 38.361 41.636 38.15 41.169 37.745C40.746 37.379 40.506 36.844 40.515 36.285C40.482 35.622 40.79 34.985 41.331 34.6C42.027 34.166 42.842 33.959 43.661 34.008H44.607V33.557C44.622 33.244 44.515 32.938 44.307 32.703C44.064 32.472 43.733 32.355 43.399 32.382C43.09 32.369 42.785 32.462 42.536 32.645C42.322 32.8 42.197 33.051 42.2 33.315H40.659C40.663 32.932 40.796 32.562 41.035 32.263C41.302 31.922 41.653 31.656 42.054 31.492C42.508 31.299 42.997 31.203 43.49 31.208C44.183 31.172 44.866 31.387 45.413 31.814C45.901 32.241 46.171 32.866 46.149 33.514V36.614C46.128 37.12 46.217 37.625 46.409 38.093V38.208H44.835ZM43.141 37.097C43.442 37.098 43.738 37.022 44.001 36.875C44.257 36.739 44.468 36.53 44.607 36.275V34.983H43.775C43.325 34.953 42.876 35.057 42.486 35.283C42.205 35.469 42.041 35.79 42.054 36.127C42.043 36.396 42.153 36.656 42.354 36.835C42.574 37.018 42.855 37.111 43.141 37.097Z" fill="white"/>
<path d="M39.053 38.208H37.51V28.458H39.052L39.053 38.208Z" fill="white"/>
<path d="M36.127 35.199C36.084 36.083 35.691 36.914 35.035 37.508C34.322 38.087 33.419 38.381 32.502 38.335C31.817 38.348 31.142 38.165 30.557 37.808C29.987 37.45 29.535 36.932 29.257 36.319C28.94 35.616 28.778 34.853 28.782 34.082V33.219C28.766 32.428 28.924 31.643 29.245 30.919C29.526 30.285 29.989 29.748 30.576 29.378C31.178 29.012 31.872 28.824 32.576 28.838C33.472 28.795 34.352 29.093 35.039 29.67C35.691 30.283 36.081 31.125 36.127 32.019H34.527C34.507 31.487 34.301 30.978 33.946 30.581C33.564 30.263 33.074 30.104 32.578 30.14C31.947 30.109 31.341 30.398 30.969 30.908C30.551 31.578 30.35 32.361 30.395 33.149V33.968C30.346 34.766 30.534 35.561 30.935 36.253C31.283 36.773 31.881 37.072 32.506 37.04C33.016 37.078 33.523 36.927 33.928 36.615C34.29 36.23 34.503 35.727 34.528 35.199H36.127Z" fill="white"/>
</g>
<defs>
<clipPath id="clip0_3_17">
<rect width="72" height="41" fill="white"/>
</clipPath>
</defs>
</svg>
