<?xml version="1.0" encoding="UTF-8"?><svg id="logo" xmlns="http://www.w3.org/2000/svg" xmlns:xlink="http://www.w3.org/1999/xlink" viewBox="0 0 72 41"><defs><style>.cls-1{clip-path:url(#clippath);}.cls-2{fill:none;}.cls-2,.cls-3,.cls-4{stroke-width:0px;}.cls-5,.cls-6{font-family:Roboto-Medium, Roboto;font-size:128px;font-weight:500;}.cls-5,.cls-4{fill:#fff;}.cls-6{fill:#000;}.cls-6,.cls-7{isolation:isolate;}.cls-8{clip-path:url(#clippath-1);}.cls-3{fill:#2169ac;}</style><symbol id="wordmark" viewBox="0 0 720 416.77"><path id="Path_135" class="cls-4" d="M69.99,253.01c-19.48-.08-38.91-2.1-58-6-3.22-.22-5.78-2.78-6-6v-23.99c.22-3.22,2.78-5.79,6-6,19.27,1.96,38.63,2.95,58,2.97,29,0,38.01-11,38.01-29,0-12-6-20-27-32l-41.99-25.98C8.01,109,0,91,0,68.01,0,32,21,6,82,6c20.81-.05,41.58,1.96,62,6,3.22.22,5.79,2.78,6,6v24.01c-1.98,1.98-2.97,4.95-6,4.95-21-1.98-42-2.97-64-2.97-24,0-35,9-35,23.01,0,11,6,17,27,29l39.01,21c36,20,45,41,45,67,0,34-21,69.01-86.01,69.01"/><path id="Path_136" class="cls-4" d="M299,146.01c0-27-8-47-35-47-10.73.2-21.42,1.19-32,2.97v114.03c10.56,1.93,21.27,2.93,32,2.97,29,0,35-20,35-47v-25.97ZM264,253.01c-10.75.33-21.5-.67-32-2.97v58c-.22,3.22-2.78,5.79-6,6h-30c-3.22-.22-5.79-2.78-6-6V80.05c0-4.95,1.98-8,9-9,21.27-5.38,43.07-8.4,65-9.01,53.01,0,77,30,77,82v26c1.98,51-24.01,83.01-77,83.01"/><path id="Path_137" class="cls-4" d="M412,250.01h-30c-2.97,0-6-2.97-6-8V72.01c.22-3.22,2.78-5.79,6-6h30c3.22.22,5.79,2.78,6,6v171c1.98,3.96-.99,7-6,7M413.99,42.01h-32c-2.97,0-8-2.97-8-6V6c0-2.97,2.97-6,8-6h32c3.22.22,5.78,2.79,5.99,6v29c.19,3.56-2.45,6.64-5.99,7"/><path id="Path_138" class="cls-4" d="M547.01,100.01c-15.79.04-31.29,4.17-45,12v132.01c0,2.97-2.97,8.01-6,8.01h-30c-2.97,0-6-2.97-6-8.01V73c.22-3.22,2.78-5.79,6-6h29c2.8.68,4.82,3.12,4.95,6v7c13.66-9.94,30.16-15.21,47.05-15.01,3.22.22,5.79,2.78,6,6v24.01c0,1.98-.99,4.95-6,4.95"/><path id="Path_139" class="cls-4" d="M675.01,141c0-26-14-39-35-39s-35,14-35,39v1.98l70.01-1.98ZM712.01,173.01h-106.01v1.98c0,18,8.01,41,39.01,41,24.01,0,47-1.98,61-2.97h1.98c3.01-.24,5.67,1.95,6,4.95v21c.5,4.44-2.7,8.45-7.14,8.95-.28.03-.57.05-.85.05-20.95,4.97-42.49,6.98-64,5.99-33,0-79-18-79-82v-23.95c0-52,29-83.01,79-83.01s78,34,78,82v18c-1.98,4.95-2.97,8-8,8"/><g id="Group_37"><rect class="cls-3" x="260" y="266" width="460" height="144" rx="20" ry="20"/><g id="BETA" class="cls-7"><text class="cls-6" transform="translate(281.35 382.08)"><tspan x="0" y="0">Classic</tspan></text><text class="cls-5" transform="translate(281.35 382.08)"><tspan x="0" y="0">Classic</tspan></text></g></g></symbol><clipPath id="clippath"><rect class="cls-2" width="72" height="41"/></clipPath><clipPath id="clippath-1"><rect class="cls-2" width="72" height="41"/></clipPath></defs><g class="cls-1"><g class="cls-8"><use width="720" height="416.77" transform="scale(.1)" xlink:href="#wordmark"/></g></g></svg>