<?xml version="1.0" encoding="UTF-8"?><svg id="logo" xmlns="http://www.w3.org/2000/svg" viewBox="0 0 72 41"><defs><style>.cls-1{fill:#fff;stroke-width:0px;}</style></defs><path id="Path_135" class="cls-1" d="M7,25.3c-1.95,0-3.89-.21-5.8-.6-.32-.02-.58-.28-.6-.6v-2.4c.02-.32.28-.58.6-.6,1.93.2,3.86.3,5.8.3,2.9,0,3.8-1.1,3.8-2.9,0-1.2-.6-2-2.7-3.2l-4.2-2.6C.8,10.9,0,9.1,0,6.8,0,3.2,2.1.6,8.2.6c2.08,0,4.16.2,6.2.6.32.02.58.28.6.6v2.4c-.2.2-.3.5-.6.5-2.1-.2-4.2-.3-6.4-.3-2.4,0-3.5.9-3.5,2.3,0,1.1.6,1.7,2.7,2.9l3.9,2.1c3.6,2,4.5,4.1,4.5,6.7,0,3.4-2.1,6.9-8.6,6.9"/><path id="Path_136" class="cls-1" d="M29.9,14.6c0-2.7-.8-4.7-3.5-4.7-1.07.02-2.14.12-3.2.3v11.4c1.06.19,2.13.29,3.2.3,2.9,0,3.5-2,3.5-4.7v-2.6ZM26.4,25.3c-1.07.03-2.15-.07-3.2-.3v5.8c-.02.32-.28.58-.6.6h-3c-.32-.02-.58-.28-.6-.6V8.01c0-.5.2-.8.9-.9,2.13-.54,4.31-.84,6.5-.9,5.3,0,7.7,3,7.7,8.2v2.6c.2,5.1-2.4,8.3-7.7,8.3"/><path id="Path_137" class="cls-1" d="M41.2,25h-3c-.3,0-.6-.3-.6-.8V7.2c.02-.32.28-.58.6-.6h3c.32.02.58.28.6.6v17.1c.2.4-.1.7-.6.7M41.4,4.2h-3.2c-.3,0-.8-.3-.8-.6V.6c0-.3.3-.6.8-.6h3.2c.32.02.58.28.6.6v2.9c.02.36-.24.66-.6.7"/><path id="Path_138" class="cls-1" d="M54.7,10c-1.58,0-3.13.42-4.5,1.2v13.2c0,.3-.3.8-.6.8h-3c-.3,0-.6-.3-.6-.8V7.3c.02-.32.28-.58.6-.6h2.9c.28.07.48.31.5.6v.7c1.37-.99,3.02-1.52,4.71-1.5.32.02.58.28.6.6v2.4c0,.2-.1.5-.6.5"/><path id="Path_139" class="cls-1" d="M67.5,14.1c0-2.6-1.4-3.9-3.5-3.9s-3.5,1.4-3.5,3.9v.2l7-.2ZM71.2,17.3h-10.6v.2c0,1.8.8,4.1,3.9,4.1,2.4,0,4.7-.2,6.1-.3h.2c.3-.02.57.2.6.5v2.1c.05.44-.27.84-.71.89-.03,0-.06,0-.09,0-2.1.5-4.25.7-6.4.6-3.3,0-7.9-1.8-7.9-8.2v-2.39c0-5.2,2.9-8.3,7.9-8.3s7.8,3.4,7.8,8.2v1.8c-.2.5-.3.8-.8.8"/></svg>