<?xml version="1.0" encoding="UTF-8"?><svg id="logo" xmlns="http://www.w3.org/2000/svg" xmlns:xlink="http://www.w3.org/1999/xlink" viewBox="0 0 72 41"><defs><style>.cls-1{clip-path:url(#clippath);}.cls-2{fill:none;}.cls-2,.cls-3,.cls-4,.cls-5{stroke-width:0px;}.cls-3{fill:#ffd071;}.cls-6{isolation:isolate;}.cls-4{fill:#fff;}.cls-5{fill:#231f20;}</style><clipPath id="clippath"><rect class="cls-2" width="72" height="41"/></clipPath></defs><g class="cls-1"><path id="Path_135" class="cls-4" d="M7,25.33c-1.95,0-3.89-.21-5.8-.6-.32-.02-.58-.28-.6-.6v-2.4c.02-.32.28-.58.6-.6,1.93.2,3.86.3,5.8.3,2.9,0,3.8-1.1,3.8-2.9,0-1.2-.6-2-2.7-3.2l-4.2-2.6C.8,10.93,0,9.13,0,6.83,0,3.23,2.1.63,8.2.63c2.08,0,4.16.2,6.2.6.32.02.58.28.6.6v2.4c-.2.2-.3.5-.6.5-2.1-.2-4.2-.3-6.4-.3-2.4,0-3.5.9-3.5,2.3,0,1.1.6,1.7,2.7,2.9l3.9,2.1c3.6,2,4.5,4.1,4.5,6.7,0,3.4-2.1,6.9-8.6,6.9"/><path id="Path_136" class="cls-4" d="M29.9,14.63c0-2.7-.8-4.7-3.5-4.7-1.07.02-2.14.12-3.2.3v11.4c1.06.19,2.13.29,3.2.3,2.9,0,3.5-2,3.5-4.7v-2.6ZM26.4,25.33c-1.07.03-2.15-.07-3.2-.3v5.8c-.02.32-.28.58-.6.6h-3c-.32-.02-.58-.28-.6-.6V8.04c0-.5.2-.8.9-.9,2.13-.54,4.31-.84,6.5-.9,5.3,0,7.7,3,7.7,8.2v2.6c.2,5.1-2.4,8.3-7.7,8.3"/><path id="Path_137" class="cls-4" d="M41.2,25.03h-3c-.3,0-.6-.3-.6-.8V7.23c.02-.32.28-.58.6-.6h3c.32.02.58.28.6.6v17.1c.2.4-.1.7-.6.7M41.4,4.23h-3.2c-.3,0-.8-.3-.8-.6V.63c0-.3.3-.6.8-.6h3.2c.32.02.58.28.6.6v2.9c.02.36-.24.66-.6.7"/><path id="Path_138" class="cls-4" d="M54.7,10.03c-1.58,0-3.13.42-4.5,1.2v13.2c0,.3-.3.8-.6.8h-3c-.3,0-.6-.3-.6-.8V7.33c.02-.32.28-.58.6-.6h2.9c.28.07.48.31.5.6v.7c1.37-.99,3.02-1.52,4.71-1.5.32.02.58.28.6.6v2.4c0,.2-.1.5-.6.5"/><path id="Path_139" class="cls-4" d="M67.5,14.13c0-2.6-1.4-3.9-3.5-3.9s-3.5,1.4-3.5,3.9v.2l7-.2ZM71.2,17.33h-10.6v.2c0,1.8.8,4.1,3.9,4.1,2.4,0,4.7-.2,6.1-.3h.2c.3-.02.57.2.6.5v2.1c.05.44-.27.84-.71.89-.03,0-.06,0-.09,0-2.1.5-4.25.7-6.4.6-3.3,0-7.9-1.8-7.9-8.2v-2.39c0-5.2,2.9-8.3,7.9-8.3s7.8,3.4,7.8,8.2v1.8c-.2.5-.3.8-.8.8"/><g id="Group_37"><rect class="cls-3" x="25" y="26.56" width="47" height="14.4" rx="1.2" ry="1.2"/><g id="BETA" class="cls-6"><path class="cls-5" d="M28.66,34.58v3.32h-1.56v-8.96h3.43c1,0,1.8.26,2.38.78.59.52.88,1.21.88,2.07s-.29,1.56-.86,2.05c-.58.49-1.38.73-2.42.73h-1.85ZM28.66,33.33h1.87c.55,0,.98-.13,1.27-.39.29-.26.44-.64.44-1.13s-.15-.87-.44-1.16-.7-.44-1.22-.45h-1.91v3.13Z"/><path class="cls-5" d="M38.49,32.61c-.2-.03-.4-.05-.61-.05-.69,0-1.15.26-1.38.79v4.55h-1.5v-6.66h1.43l.04.75c.36-.58.86-.87,1.5-.87.21,0,.39.03.53.09v1.4Z"/><path class="cls-5" d="M42.25,38.03c-.95,0-1.72-.3-2.3-.9-.59-.6-.88-1.39-.88-2.38v-.18c0-.66.13-1.26.38-1.78.26-.52.62-.93,1.08-1.22.46-.29.98-.44,1.55-.44.91,0,1.61.29,2.1.87.49.58.74,1.4.74,2.45v.6h-4.35c.04.55.23.98.55,1.3.32.32.73.48,1.22.48.69,0,1.24-.28,1.67-.83l.81.77c-.27.4-.62.71-1.07.93-.45.22-.94.33-1.5.33ZM42.07,32.32c-.41,0-.74.14-.99.43-.25.29-.41.69-.48,1.2h2.85v-.11c-.03-.5-.17-.88-.4-1.13-.23-.26-.56-.38-.97-.38Z"/><path class="cls-5" d="M48.35,36.01l1.41-4.76h1.54l-2.31,6.66h-1.3l-2.33-6.66h1.55l1.43,4.76Z"/><path class="cls-5" d="M52.24,29.52c0-.23.07-.42.22-.57.15-.15.35-.23.62-.23s.48.08.63.23c.15.15.22.34.22.57s-.07.41-.22.56c-.15.15-.36.22-.63.22s-.48-.08-.62-.22c-.15-.15-.22-.34-.22-.56ZM53.83,37.9h-1.5v-6.66h1.5v6.66Z"/><path class="cls-5" d="M58.38,38.03c-.95,0-1.72-.3-2.3-.9-.59-.6-.88-1.39-.88-2.38v-.18c0-.66.13-1.26.38-1.78.26-.52.62-.93,1.08-1.22.46-.29.98-.44,1.55-.44.91,0,1.61.29,2.1.87.49.58.74,1.4.74,2.45v.6h-4.35c.04.55.23.98.55,1.3.32.32.73.48,1.22.48.69,0,1.24-.28,1.67-.83l.81.77c-.27.4-.62.71-1.07.93-.45.22-.94.33-1.5.33ZM58.21,32.32c-.41,0-.74.14-.99.43-.25.29-.41.69-.48,1.2h2.85v-.11c-.03-.5-.17-.88-.4-1.13-.23-.26-.56-.38-.97-.38Z"/><path class="cls-5" d="M68.06,35.84l1.06-4.6h1.46l-1.81,6.66h-1.23l-1.43-4.57-1.4,4.57h-1.23l-1.82-6.66h1.46l1.08,4.55,1.37-4.55h1.13l1.38,4.6Z"/></g></g></g></svg>